<?xml version="1.0" encoding="utf-8" standalone="no"?>
<!DOCTYPE svg PUBLIC "-//W3C//DTD SVG 1.1//EN"
  "http://www.w3.org/Graphics/SVG/1.1/DTD/svg11.dtd">
<svg xmlns:xlink="http://www.w3.org/1999/xlink" width="388.965625pt" height="269.000686pt" viewBox="0 0 388.965625 269.000686" xmlns="http://www.w3.org/2000/svg" version="1.1">
 <metadata>
  <rdf:RDF xmlns:dc="http://purl.org/dc/elements/1.1/" xmlns:cc="http://creativecommons.org/ns#" xmlns:rdf="http://www.w3.org/1999/02/22-rdf-syntax-ns#">
   <cc:Work>
    <dc:type rdf:resource="http://purl.org/dc/dcmitype/StillImage"/>
    <dc:date>2025-02-09T19:25:56.684941</dc:date>
    <dc:format>image/svg+xml</dc:format>
    <dc:creator>
     <cc:Agent>
      <dc:title>Matplotlib v3.9.0, https://matplotlib.org/</dc:title>
     </cc:Agent>
    </dc:creator>
   </cc:Work>
  </rdf:RDF>
 </metadata>
 <defs>
  <style type="text/css">*{stroke-linejoin: round; stroke-linecap: butt}</style>
 </defs>
 <g id="figure_1">
  <g id="patch_1">
   <path d="M 0 269.000686 
L 388.965625 269.000686 
L 388.965625 0 
L 0 0 
L 0 269.000686 
z
" style="fill: none"/>
  </g>
  <g id="axes_1">
   <g id="patch_2">
    <path d="M 46.965625 231.444436 
L 381.765625 231.444436 
L 381.765625 9.684436 
L 46.965625 9.684436 
L 46.965625 231.444436 
z
" style="fill: none"/>
   </g>
   <g id="PolyCollection_1"/>
   <g id="patch_3">
    <path d="M 123.056534 231.444436 
L 305.674716 231.444436 
L 305.674716 9.684436 
L 123.056534 9.684436 
z
" clip-path="url(#peaef631251)" style="fill: #ffa500; opacity: 0.2; stroke: #ffa500; stroke-linejoin: miter"/>
   </g>
   <g id="matplotlib.axis_1">
    <g id="xtick_1">
     <g id="line2d_1">
      <defs>
       <path id="m71134d126b" d="M 0 0 
L 0 3.5 
" style="stroke: #efefef; stroke-width: 0.8"/>
      </defs>
      <g>
       <use xlink:href="#m71134d126b" x="83.489261" y="231.444436" style="fill: #efefef; stroke: #efefef; stroke-width: 0.8"/>
      </g>
     </g>
     <g id="text_1">
      <!-- 575 -->
      <g style="fill: #efefef" transform="translate(73.945511 246.042874) scale(0.1 -0.1)">
       <defs>
        <path id="DejaVuSans-35" d="M 691 4666 
L 3169 4666 
L 3169 4134 
L 1269 4134 
L 1269 2991 
Q 1406 3038 1543 3061 
Q 1681 3084 1819 3084 
Q 2600 3084 3056 2656 
Q 3513 2228 3513 1497 
Q 3513 744 3044 326 
Q 2575 -91 1722 -91 
Q 1428 -91 1123 -41 
Q 819 9 494 109 
L 494 744 
Q 775 591 1075 516 
Q 1375 441 1709 441 
Q 2250 441 2565 725 
Q 2881 1009 2881 1497 
Q 2881 1984 2565 2268 
Q 2250 2553 1709 2553 
Q 1456 2553 1204 2497 
Q 953 2441 691 2322 
L 691 4666 
z
" transform="scale(0.015625)"/>
        <path id="DejaVuSans-37" d="M 525 4666 
L 3525 4666 
L 3525 4397 
L 1831 0 
L 1172 0 
L 2766 4134 
L 525 4134 
L 525 4666 
z
" transform="scale(0.015625)"/>
       </defs>
       <use xlink:href="#DejaVuSans-35"/>
       <use xlink:href="#DejaVuSans-37" x="63.623047"/>
       <use xlink:href="#DejaVuSans-35" x="127.246094"/>
      </g>
     </g>
    </g>
    <g id="xtick_2">
     <g id="line2d_2">
      <g>
       <use xlink:href="#m71134d126b" x="121.534716" y="231.444436" style="fill: #efefef; stroke: #efefef; stroke-width: 0.8"/>
      </g>
     </g>
     <g id="text_2">
      <!-- 600 -->
      <g style="fill: #efefef" transform="translate(111.990966 246.042874) scale(0.1 -0.1)">
       <defs>
        <path id="DejaVuSans-36" d="M 2113 2584 
Q 1688 2584 1439 2293 
Q 1191 2003 1191 1497 
Q 1191 994 1439 701 
Q 1688 409 2113 409 
Q 2538 409 2786 701 
Q 3034 994 3034 1497 
Q 3034 2003 2786 2293 
Q 2538 2584 2113 2584 
z
M 3366 4563 
L 3366 3988 
Q 3128 4100 2886 4159 
Q 2644 4219 2406 4219 
Q 1781 4219 1451 3797 
Q 1122 3375 1075 2522 
Q 1259 2794 1537 2939 
Q 1816 3084 2150 3084 
Q 2853 3084 3261 2657 
Q 3669 2231 3669 1497 
Q 3669 778 3244 343 
Q 2819 -91 2113 -91 
Q 1303 -91 875 529 
Q 447 1150 447 2328 
Q 447 3434 972 4092 
Q 1497 4750 2381 4750 
Q 2619 4750 2861 4703 
Q 3103 4656 3366 4563 
z
" transform="scale(0.015625)"/>
        <path id="DejaVuSans-30" d="M 2034 4250 
Q 1547 4250 1301 3770 
Q 1056 3291 1056 2328 
Q 1056 1369 1301 889 
Q 1547 409 2034 409 
Q 2525 409 2770 889 
Q 3016 1369 3016 2328 
Q 3016 3291 2770 3770 
Q 2525 4250 2034 4250 
z
M 2034 4750 
Q 2819 4750 3233 4129 
Q 3647 3509 3647 2328 
Q 3647 1150 3233 529 
Q 2819 -91 2034 -91 
Q 1250 -91 836 529 
Q 422 1150 422 2328 
Q 422 3509 836 4129 
Q 1250 4750 2034 4750 
z
" transform="scale(0.015625)"/>
       </defs>
       <use xlink:href="#DejaVuSans-36"/>
       <use xlink:href="#DejaVuSans-30" x="63.623047"/>
       <use xlink:href="#DejaVuSans-30" x="127.246094"/>
      </g>
     </g>
    </g>
    <g id="xtick_3">
     <g id="line2d_3">
      <g>
       <use xlink:href="#m71134d126b" x="159.58017" y="231.444436" style="fill: #efefef; stroke: #efefef; stroke-width: 0.8"/>
      </g>
     </g>
     <g id="text_3">
      <!-- 625 -->
      <g style="fill: #efefef" transform="translate(150.03642 246.042874) scale(0.1 -0.1)">
       <defs>
        <path id="DejaVuSans-32" d="M 1228 531 
L 3431 531 
L 3431 0 
L 469 0 
L 469 531 
Q 828 903 1448 1529 
Q 2069 2156 2228 2338 
Q 2531 2678 2651 2914 
Q 2772 3150 2772 3378 
Q 2772 3750 2511 3984 
Q 2250 4219 1831 4219 
Q 1534 4219 1204 4116 
Q 875 4013 500 3803 
L 500 4441 
Q 881 4594 1212 4672 
Q 1544 4750 1819 4750 
Q 2544 4750 2975 4387 
Q 3406 4025 3406 3419 
Q 3406 3131 3298 2873 
Q 3191 2616 2906 2266 
Q 2828 2175 2409 1742 
Q 1991 1309 1228 531 
z
" transform="scale(0.015625)"/>
       </defs>
       <use xlink:href="#DejaVuSans-36"/>
       <use xlink:href="#DejaVuSans-32" x="63.623047"/>
       <use xlink:href="#DejaVuSans-35" x="127.246094"/>
      </g>
     </g>
    </g>
    <g id="xtick_4">
     <g id="line2d_4">
      <g>
       <use xlink:href="#m71134d126b" x="197.625625" y="231.444436" style="fill: #efefef; stroke: #efefef; stroke-width: 0.8"/>
      </g>
     </g>
     <g id="text_4">
      <!-- 650 -->
      <g style="fill: #efefef" transform="translate(188.081875 246.042874) scale(0.1 -0.1)">
       <use xlink:href="#DejaVuSans-36"/>
       <use xlink:href="#DejaVuSans-35" x="63.623047"/>
       <use xlink:href="#DejaVuSans-30" x="127.246094"/>
      </g>
     </g>
    </g>
    <g id="xtick_5">
     <g id="line2d_5">
      <g>
       <use xlink:href="#m71134d126b" x="235.67108" y="231.444436" style="fill: #efefef; stroke: #efefef; stroke-width: 0.8"/>
      </g>
     </g>
     <g id="text_5">
      <!-- 675 -->
      <g style="fill: #efefef" transform="translate(226.12733 246.042874) scale(0.1 -0.1)">
       <use xlink:href="#DejaVuSans-36"/>
       <use xlink:href="#DejaVuSans-37" x="63.623047"/>
       <use xlink:href="#DejaVuSans-35" x="127.246094"/>
      </g>
     </g>
    </g>
    <g id="xtick_6">
     <g id="line2d_6">
      <g>
       <use xlink:href="#m71134d126b" x="273.716534" y="231.444436" style="fill: #efefef; stroke: #efefef; stroke-width: 0.8"/>
      </g>
     </g>
     <g id="text_6">
      <!-- 700 -->
      <g style="fill: #efefef" transform="translate(264.172784 246.042874) scale(0.1 -0.1)">
       <use xlink:href="#DejaVuSans-37"/>
       <use xlink:href="#DejaVuSans-30" x="63.623047"/>
       <use xlink:href="#DejaVuSans-30" x="127.246094"/>
      </g>
     </g>
    </g>
    <g id="xtick_7">
     <g id="line2d_7">
      <g>
       <use xlink:href="#m71134d126b" x="311.761989" y="231.444436" style="fill: #efefef; stroke: #efefef; stroke-width: 0.8"/>
      </g>
     </g>
     <g id="text_7">
      <!-- 725 -->
      <g style="fill: #efefef" transform="translate(302.218239 246.042874) scale(0.1 -0.1)">
       <use xlink:href="#DejaVuSans-37"/>
       <use xlink:href="#DejaVuSans-32" x="63.623047"/>
       <use xlink:href="#DejaVuSans-35" x="127.246094"/>
      </g>
     </g>
    </g>
    <g id="xtick_8">
     <g id="line2d_8">
      <g>
       <use xlink:href="#m71134d126b" x="349.807443" y="231.444436" style="fill: #efefef; stroke: #efefef; stroke-width: 0.8"/>
      </g>
     </g>
     <g id="text_8">
      <!-- 750 -->
      <g style="fill: #efefef" transform="translate(340.263693 246.042874) scale(0.1 -0.1)">
       <use xlink:href="#DejaVuSans-37"/>
       <use xlink:href="#DejaVuSans-35" x="63.623047"/>
       <use xlink:href="#DejaVuSans-30" x="127.246094"/>
      </g>
     </g>
    </g>
    <g id="text_9">
     <!-- Frame -->
     <g style="fill: #efefef" transform="translate(198.785938 259.720999) scale(0.1 -0.1)">
      <defs>
       <path id="DejaVuSans-46" d="M 628 4666 
L 3309 4666 
L 3309 4134 
L 1259 4134 
L 1259 2759 
L 3109 2759 
L 3109 2228 
L 1259 2228 
L 1259 0 
L 628 0 
L 628 4666 
z
" transform="scale(0.015625)"/>
       <path id="DejaVuSans-72" d="M 2631 2963 
Q 2534 3019 2420 3045 
Q 2306 3072 2169 3072 
Q 1681 3072 1420 2755 
Q 1159 2438 1159 1844 
L 1159 0 
L 581 0 
L 581 3500 
L 1159 3500 
L 1159 2956 
Q 1341 3275 1631 3429 
Q 1922 3584 2338 3584 
Q 2397 3584 2469 3576 
Q 2541 3569 2628 3553 
L 2631 2963 
z
" transform="scale(0.015625)"/>
       <path id="DejaVuSans-61" d="M 2194 1759 
Q 1497 1759 1228 1600 
Q 959 1441 959 1056 
Q 959 750 1161 570 
Q 1363 391 1709 391 
Q 2188 391 2477 730 
Q 2766 1069 2766 1631 
L 2766 1759 
L 2194 1759 
z
M 3341 1997 
L 3341 0 
L 2766 0 
L 2766 531 
Q 2569 213 2275 61 
Q 1981 -91 1556 -91 
Q 1019 -91 701 211 
Q 384 513 384 1019 
Q 384 1609 779 1909 
Q 1175 2209 1959 2209 
L 2766 2209 
L 2766 2266 
Q 2766 2663 2505 2880 
Q 2244 3097 1772 3097 
Q 1472 3097 1187 3025 
Q 903 2953 641 2809 
L 641 3341 
Q 956 3463 1253 3523 
Q 1550 3584 1831 3584 
Q 2591 3584 2966 3190 
Q 3341 2797 3341 1997 
z
" transform="scale(0.015625)"/>
       <path id="DejaVuSans-6d" d="M 3328 2828 
Q 3544 3216 3844 3400 
Q 4144 3584 4550 3584 
Q 5097 3584 5394 3201 
Q 5691 2819 5691 2113 
L 5691 0 
L 5113 0 
L 5113 2094 
Q 5113 2597 4934 2840 
Q 4756 3084 4391 3084 
Q 3944 3084 3684 2787 
Q 3425 2491 3425 1978 
L 3425 0 
L 2847 0 
L 2847 2094 
Q 2847 2600 2669 2842 
Q 2491 3084 2119 3084 
Q 1678 3084 1418 2786 
Q 1159 2488 1159 1978 
L 1159 0 
L 581 0 
L 581 3500 
L 1159 3500 
L 1159 2956 
Q 1356 3278 1631 3431 
Q 1906 3584 2284 3584 
Q 2666 3584 2933 3390 
Q 3200 3197 3328 2828 
z
" transform="scale(0.015625)"/>
       <path id="DejaVuSans-65" d="M 3597 1894 
L 3597 1613 
L 953 1613 
Q 991 1019 1311 708 
Q 1631 397 2203 397 
Q 2534 397 2845 478 
Q 3156 559 3463 722 
L 3463 178 
Q 3153 47 2828 -22 
Q 2503 -91 2169 -91 
Q 1331 -91 842 396 
Q 353 884 353 1716 
Q 353 2575 817 3079 
Q 1281 3584 2069 3584 
Q 2775 3584 3186 3129 
Q 3597 2675 3597 1894 
z
M 3022 2063 
Q 3016 2534 2758 2815 
Q 2500 3097 2075 3097 
Q 1594 3097 1305 2825 
Q 1016 2553 972 2059 
L 3022 2063 
z
" transform="scale(0.015625)"/>
      </defs>
      <use xlink:href="#DejaVuSans-46"/>
      <use xlink:href="#DejaVuSans-72" x="50.269531"/>
      <use xlink:href="#DejaVuSans-61" x="91.382812"/>
      <use xlink:href="#DejaVuSans-6d" x="152.662109"/>
      <use xlink:href="#DejaVuSans-65" x="250.074219"/>
     </g>
    </g>
   </g>
   <g id="matplotlib.axis_2">
    <g id="ytick_1">
     <g id="line2d_9">
      <defs>
       <path id="m9a6541bdcc" d="M 0 0 
L -3.5 0 
" style="stroke: #efefef; stroke-width: 0.8"/>
      </defs>
      <g>
       <use xlink:href="#m9a6541bdcc" x="46.965625" y="230.129654" style="fill: #efefef; stroke: #efefef; stroke-width: 0.8"/>
      </g>
     </g>
     <g id="text_10">
      <!-- 0 -->
      <g style="fill: #efefef" transform="translate(33.603125 233.928872) scale(0.1 -0.1)">
       <use xlink:href="#DejaVuSans-30"/>
      </g>
     </g>
    </g>
    <g id="ytick_2">
     <g id="line2d_10">
      <g>
       <use xlink:href="#m9a6541bdcc" x="46.965625" y="186.303567" style="fill: #efefef; stroke: #efefef; stroke-width: 0.8"/>
      </g>
     </g>
     <g id="text_11">
      <!-- 20 -->
      <g style="fill: #efefef" transform="translate(27.240625 190.102785) scale(0.1 -0.1)">
       <use xlink:href="#DejaVuSans-32"/>
       <use xlink:href="#DejaVuSans-30" x="63.623047"/>
      </g>
     </g>
    </g>
    <g id="ytick_3">
     <g id="line2d_11">
      <g>
       <use xlink:href="#m9a6541bdcc" x="46.965625" y="142.47748" style="fill: #efefef; stroke: #efefef; stroke-width: 0.8"/>
      </g>
     </g>
     <g id="text_12">
      <!-- 40 -->
      <g style="fill: #efefef" transform="translate(27.240625 146.276698) scale(0.1 -0.1)">
       <defs>
        <path id="DejaVuSans-34" d="M 2419 4116 
L 825 1625 
L 2419 1625 
L 2419 4116 
z
M 2253 4666 
L 3047 4666 
L 3047 1625 
L 3713 1625 
L 3713 1100 
L 3047 1100 
L 3047 0 
L 2419 0 
L 2419 1100 
L 313 1100 
L 313 1709 
L 2253 4666 
z
" transform="scale(0.015625)"/>
       </defs>
       <use xlink:href="#DejaVuSans-34"/>
       <use xlink:href="#DejaVuSans-30" x="63.623047"/>
      </g>
     </g>
    </g>
    <g id="ytick_4">
     <g id="line2d_12">
      <g>
       <use xlink:href="#m9a6541bdcc" x="46.965625" y="98.651393" style="fill: #efefef; stroke: #efefef; stroke-width: 0.8"/>
      </g>
     </g>
     <g id="text_13">
      <!-- 60 -->
      <g style="fill: #efefef" transform="translate(27.240625 102.450611) scale(0.1 -0.1)">
       <use xlink:href="#DejaVuSans-36"/>
       <use xlink:href="#DejaVuSans-30" x="63.623047"/>
      </g>
     </g>
    </g>
    <g id="ytick_5">
     <g id="line2d_13">
      <g>
       <use xlink:href="#m9a6541bdcc" x="46.965625" y="54.825306" style="fill: #efefef; stroke: #efefef; stroke-width: 0.8"/>
      </g>
     </g>
     <g id="text_14">
      <!-- 80 -->
      <g style="fill: #efefef" transform="translate(27.240625 58.624524) scale(0.1 -0.1)">
       <defs>
        <path id="DejaVuSans-38" d="M 2034 2216 
Q 1584 2216 1326 1975 
Q 1069 1734 1069 1313 
Q 1069 891 1326 650 
Q 1584 409 2034 409 
Q 2484 409 2743 651 
Q 3003 894 3003 1313 
Q 3003 1734 2745 1975 
Q 2488 2216 2034 2216 
z
M 1403 2484 
Q 997 2584 770 2862 
Q 544 3141 544 3541 
Q 544 4100 942 4425 
Q 1341 4750 2034 4750 
Q 2731 4750 3128 4425 
Q 3525 4100 3525 3541 
Q 3525 3141 3298 2862 
Q 3072 2584 2669 2484 
Q 3125 2378 3379 2068 
Q 3634 1759 3634 1313 
Q 3634 634 3220 271 
Q 2806 -91 2034 -91 
Q 1263 -91 848 271 
Q 434 634 434 1313 
Q 434 1759 690 2068 
Q 947 2378 1403 2484 
z
M 1172 3481 
Q 1172 3119 1398 2916 
Q 1625 2713 2034 2713 
Q 2441 2713 2670 2916 
Q 2900 3119 2900 3481 
Q 2900 3844 2670 4047 
Q 2441 4250 2034 4250 
Q 1625 4250 1398 4047 
Q 1172 3844 1172 3481 
z
" transform="scale(0.015625)"/>
       </defs>
       <use xlink:href="#DejaVuSans-38"/>
       <use xlink:href="#DejaVuSans-30" x="63.623047"/>
      </g>
     </g>
    </g>
    <g id="ytick_6">
     <g id="line2d_14">
      <g>
       <use xlink:href="#m9a6541bdcc" x="46.965625" y="10.999219" style="fill: #efefef; stroke: #efefef; stroke-width: 0.8"/>
      </g>
     </g>
     <g id="text_15">
      <!-- 100 -->
      <g style="fill: #efefef" transform="translate(20.878125 14.798437) scale(0.1 -0.1)">
       <defs>
        <path id="DejaVuSans-31" d="M 794 531 
L 1825 531 
L 1825 4091 
L 703 3866 
L 703 4441 
L 1819 4666 
L 2450 4666 
L 2450 531 
L 3481 531 
L 3481 0 
L 794 0 
L 794 531 
z
" transform="scale(0.015625)"/>
       </defs>
       <use xlink:href="#DejaVuSans-31"/>
       <use xlink:href="#DejaVuSans-30" x="63.623047"/>
       <use xlink:href="#DejaVuSans-30" x="127.246094"/>
      </g>
     </g>
    </g>
    <g id="text_16">
     <!-- CSI Amplitude -->
     <g style="fill: #efefef" transform="translate(14.798438 155.91678) rotate(-90) scale(0.1 -0.1)">
      <defs>
       <path id="DejaVuSans-43" d="M 4122 4306 
L 4122 3641 
Q 3803 3938 3442 4084 
Q 3081 4231 2675 4231 
Q 1875 4231 1450 3742 
Q 1025 3253 1025 2328 
Q 1025 1406 1450 917 
Q 1875 428 2675 428 
Q 3081 428 3442 575 
Q 3803 722 4122 1019 
L 4122 359 
Q 3791 134 3420 21 
Q 3050 -91 2638 -91 
Q 1578 -91 968 557 
Q 359 1206 359 2328 
Q 359 3453 968 4101 
Q 1578 4750 2638 4750 
Q 3056 4750 3426 4639 
Q 3797 4528 4122 4306 
z
" transform="scale(0.015625)"/>
       <path id="DejaVuSans-53" d="M 3425 4513 
L 3425 3897 
Q 3066 4069 2747 4153 
Q 2428 4238 2131 4238 
Q 1616 4238 1336 4038 
Q 1056 3838 1056 3469 
Q 1056 3159 1242 3001 
Q 1428 2844 1947 2747 
L 2328 2669 
Q 3034 2534 3370 2195 
Q 3706 1856 3706 1288 
Q 3706 609 3251 259 
Q 2797 -91 1919 -91 
Q 1588 -91 1214 -16 
Q 841 59 441 206 
L 441 856 
Q 825 641 1194 531 
Q 1563 422 1919 422 
Q 2459 422 2753 634 
Q 3047 847 3047 1241 
Q 3047 1584 2836 1778 
Q 2625 1972 2144 2069 
L 1759 2144 
Q 1053 2284 737 2584 
Q 422 2884 422 3419 
Q 422 4038 858 4394 
Q 1294 4750 2059 4750 
Q 2388 4750 2728 4690 
Q 3069 4631 3425 4513 
z
" transform="scale(0.015625)"/>
       <path id="DejaVuSans-49" d="M 628 4666 
L 1259 4666 
L 1259 0 
L 628 0 
L 628 4666 
z
" transform="scale(0.015625)"/>
       <path id="DejaVuSans-20" transform="scale(0.015625)"/>
       <path id="DejaVuSans-41" d="M 2188 4044 
L 1331 1722 
L 3047 1722 
L 2188 4044 
z
M 1831 4666 
L 2547 4666 
L 4325 0 
L 3669 0 
L 3244 1197 
L 1141 1197 
L 716 0 
L 50 0 
L 1831 4666 
z
" transform="scale(0.015625)"/>
       <path id="DejaVuSans-70" d="M 1159 525 
L 1159 -1331 
L 581 -1331 
L 581 3500 
L 1159 3500 
L 1159 2969 
Q 1341 3281 1617 3432 
Q 1894 3584 2278 3584 
Q 2916 3584 3314 3078 
Q 3713 2572 3713 1747 
Q 3713 922 3314 415 
Q 2916 -91 2278 -91 
Q 1894 -91 1617 61 
Q 1341 213 1159 525 
z
M 3116 1747 
Q 3116 2381 2855 2742 
Q 2594 3103 2138 3103 
Q 1681 3103 1420 2742 
Q 1159 2381 1159 1747 
Q 1159 1113 1420 752 
Q 1681 391 2138 391 
Q 2594 391 2855 752 
Q 3116 1113 3116 1747 
z
" transform="scale(0.015625)"/>
       <path id="DejaVuSans-6c" d="M 603 4863 
L 1178 4863 
L 1178 0 
L 603 0 
L 603 4863 
z
" transform="scale(0.015625)"/>
       <path id="DejaVuSans-69" d="M 603 3500 
L 1178 3500 
L 1178 0 
L 603 0 
L 603 3500 
z
M 603 4863 
L 1178 4863 
L 1178 4134 
L 603 4134 
L 603 4863 
z
" transform="scale(0.015625)"/>
       <path id="DejaVuSans-74" d="M 1172 4494 
L 1172 3500 
L 2356 3500 
L 2356 3053 
L 1172 3053 
L 1172 1153 
Q 1172 725 1289 603 
Q 1406 481 1766 481 
L 2356 481 
L 2356 0 
L 1766 0 
Q 1100 0 847 248 
Q 594 497 594 1153 
L 594 3053 
L 172 3053 
L 172 3500 
L 594 3500 
L 594 4494 
L 1172 4494 
z
" transform="scale(0.015625)"/>
       <path id="DejaVuSans-75" d="M 544 1381 
L 544 3500 
L 1119 3500 
L 1119 1403 
Q 1119 906 1312 657 
Q 1506 409 1894 409 
Q 2359 409 2629 706 
Q 2900 1003 2900 1516 
L 2900 3500 
L 3475 3500 
L 3475 0 
L 2900 0 
L 2900 538 
Q 2691 219 2414 64 
Q 2138 -91 1772 -91 
Q 1169 -91 856 284 
Q 544 659 544 1381 
z
M 1991 3584 
L 1991 3584 
z
" transform="scale(0.015625)"/>
       <path id="DejaVuSans-64" d="M 2906 2969 
L 2906 4863 
L 3481 4863 
L 3481 0 
L 2906 0 
L 2906 525 
Q 2725 213 2448 61 
Q 2172 -91 1784 -91 
Q 1150 -91 751 415 
Q 353 922 353 1747 
Q 353 2572 751 3078 
Q 1150 3584 1784 3584 
Q 2172 3584 2448 3432 
Q 2725 3281 2906 2969 
z
M 947 1747 
Q 947 1113 1208 752 
Q 1469 391 1925 391 
Q 2381 391 2643 752 
Q 2906 1113 2906 1747 
Q 2906 2381 2643 2742 
Q 2381 3103 1925 3103 
Q 1469 3103 1208 2742 
Q 947 2381 947 1747 
z
" transform="scale(0.015625)"/>
      </defs>
      <use xlink:href="#DejaVuSans-43"/>
      <use xlink:href="#DejaVuSans-53" x="69.824219"/>
      <use xlink:href="#DejaVuSans-49" x="133.300781"/>
      <use xlink:href="#DejaVuSans-20" x="162.792969"/>
      <use xlink:href="#DejaVuSans-41" x="194.580078"/>
      <use xlink:href="#DejaVuSans-6d" x="262.988281"/>
      <use xlink:href="#DejaVuSans-70" x="360.400391"/>
      <use xlink:href="#DejaVuSans-6c" x="423.876953"/>
      <use xlink:href="#DejaVuSans-69" x="451.660156"/>
      <use xlink:href="#DejaVuSans-74" x="479.443359"/>
      <use xlink:href="#DejaVuSans-75" x="518.652344"/>
      <use xlink:href="#DejaVuSans-64" x="582.03125"/>
      <use xlink:href="#DejaVuSans-65" x="645.507812"/>
     </g>
    </g>
   </g>
   <g id="line2d_15">
    <path d="M 45.443807 118.373132 
L 46.965625 109.607914 
L 48.487443 129.329654 
L 50.009261 190.686175 
L 51.53108 133.712262 
L 53.052898 111.799219 
L 54.574716 133.712262 
L 56.096534 133.712262 
L 57.618352 138.094871 
L 59.14017 170.964436 
L 60.661989 149.051393 
L 62.183807 138.094871 
L 63.705625 146.860088 
L 65.227443 149.051393 
L 66.749261 146.860088 
L 68.27108 142.47748 
L 69.792898 140.286175 
L 72.836534 149.051393 
L 74.358352 138.094871 
L 75.88017 122.75574 
L 77.401989 131.520958 
L 78.923807 109.607914 
L 80.445625 127.138349 
L 81.967443 135.903567 
L 83.489261 124.947045 
L 85.01108 131.520958 
L 86.532898 140.286175 
L 88.054716 124.947045 
L 89.576534 127.138349 
L 91.098352 127.138349 
L 92.62017 120.564436 
L 94.141989 122.75574 
L 95.663807 118.373132 
L 98.707443 122.75574 
L 100.229261 105.225306 
L 101.75108 116.181827 
L 103.272898 122.75574 
L 104.794716 131.520958 
L 106.316534 135.903567 
L 107.838352 131.520958 
L 109.36017 124.947045 
L 110.881989 122.75574 
L 112.403807 105.225306 
L 113.925625 135.903567 
L 115.447443 129.329654 
L 118.49108 129.329654 
L 120.012898 103.034001 
L 121.534716 107.41661 
L 123.056534 113.990523 
L 124.578352 127.138349 
L 126.10017 118.373132 
L 127.621989 113.990523 
L 129.143807 135.903567 
L 130.665625 186.303567 
L 132.187443 122.75574 
L 133.709261 94.268784 
L 135.23108 85.503567 
L 136.752898 122.75574 
L 138.274716 116.181827 
L 139.796534 111.799219 
L 141.318352 96.460088 
L 142.84017 138.094871 
L 144.361989 140.286175 
L 145.883807 111.799219 
L 147.405625 74.547045 
L 148.927443 122.75574 
L 150.449261 96.460088 
L 151.97108 28.529654 
L 153.492898 63.590523 
L 155.014716 157.81661 
L 156.536534 149.051393 
L 158.058352 127.138349 
L 159.58017 138.094871 
L 161.101989 120.564436 
L 162.623807 146.860088 
L 164.145625 155.625306 
L 167.189261 151.242697 
L 168.71108 173.15574 
L 170.232898 127.138349 
L 171.754716 113.990523 
L 173.276534 153.434001 
L 174.798352 186.303567 
L 176.32017 162.199219 
L 177.841989 151.242697 
L 179.363807 146.860088 
L 180.885625 153.434001 
L 182.407443 142.47748 
L 183.929261 162.199219 
L 185.45108 192.87748 
L 186.972898 177.538349 
L 188.494716 210.407914 
L 190.016534 214.790523 
L 191.538352 160.007914 
L 193.06017 170.964436 
L 194.581989 179.729654 
L 196.103807 190.686175 
L 197.625625 144.668784 
L 199.147443 109.607914 
L 200.669261 131.520958 
L 202.19108 160.007914 
L 203.712898 92.07748 
L 205.234716 81.120958 
L 206.756534 138.094871 
L 208.278352 111.799219 
L 209.80017 94.268784 
L 211.321989 138.094871 
L 212.843807 142.47748 
L 214.365625 83.312262 
L 215.887443 72.35574 
L 217.409261 89.886175 
L 218.93108 120.564436 
L 220.452898 138.094871 
L 221.974716 142.47748 
L 223.496534 135.903567 
L 225.018352 173.15574 
L 226.54017 173.15574 
L 228.061989 142.47748 
L 229.583807 162.199219 
L 231.105625 157.81661 
L 232.627443 146.860088 
L 234.149261 166.581827 
L 235.67108 177.538349 
L 237.192898 186.303567 
L 238.714716 177.538349 
L 240.236534 184.112262 
L 241.758352 170.964436 
L 243.28017 177.538349 
L 244.801989 173.15574 
L 246.323807 199.451393 
L 247.845625 162.199219 
L 250.889261 157.81661 
L 252.41108 164.390523 
L 253.932898 212.599219 
L 255.454716 170.964436 
L 256.976534 168.773132 
L 260.02017 168.773132 
L 261.541989 173.15574 
L 263.063807 170.964436 
L 264.585625 186.303567 
L 266.107443 168.773132 
L 267.629261 160.007914 
L 269.15108 135.903567 
L 270.672898 131.520958 
L 272.194716 109.607914 
L 273.716534 164.390523 
L 275.238352 190.686175 
L 276.76017 195.068784 
L 278.281989 190.686175 
L 279.803807 190.686175 
L 281.325625 181.920958 
L 282.847443 190.686175 
L 284.369261 197.260088 
L 285.89108 192.87748 
L 287.412898 170.964436 
L 288.934716 162.199219 
L 290.456534 177.538349 
L 291.978352 162.199219 
L 293.50017 188.494871 
L 295.021989 166.581827 
L 296.543807 142.47748 
L 299.587443 133.712262 
L 301.109261 155.625306 
L 302.63108 155.625306 
L 304.152898 129.329654 
L 305.674716 124.947045 
L 307.196534 155.625306 
L 308.718352 131.520958 
L 310.24017 142.47748 
L 311.761989 157.81661 
L 313.283807 155.625306 
L 314.805625 144.668784 
L 316.327443 135.903567 
L 317.849261 151.242697 
L 319.37108 155.625306 
L 320.892898 170.964436 
L 322.414716 155.625306 
L 323.936534 164.390523 
L 325.458352 160.007914 
L 326.98017 175.347045 
L 328.501989 179.729654 
L 330.023807 190.686175 
L 331.545625 186.303567 
L 333.067443 157.81661 
L 334.589261 144.668784 
L 336.11108 144.668784 
L 337.632898 135.903567 
L 340.676534 162.199219 
L 342.198352 135.903567 
L 343.72017 135.903567 
L 345.241989 149.051393 
L 346.763807 131.520958 
L 348.285625 127.138349 
L 351.329261 127.138349 
L 352.85108 113.990523 
L 354.372898 135.903567 
L 355.894716 118.373132 
L 357.416534 124.947045 
L 358.938352 135.903567 
L 360.46017 142.47748 
L 361.981989 157.81661 
L 363.503807 129.329654 
L 365.025625 124.947045 
L 366.547443 188.494871 
L 368.069261 146.860088 
L 369.59108 146.860088 
L 371.112898 133.712262 
L 372.634716 133.712262 
L 374.156534 179.729654 
L 375.678352 122.75574 
L 377.20017 155.625306 
L 378.721989 138.094871 
L 380.243807 140.286175 
L 381.765625 127.138349 
L 383.287443 120.564436 
L 383.287443 120.564436 
" clip-path="url(#peaef631251)" style="fill: none; stroke: #1f77b4; stroke-width: 1.5; stroke-linecap: square"/>
   </g>
   <g id="line2d_16">
    <path d="M 123.056534 231.444436 
L 123.056534 9.684436 
" clip-path="url(#peaef631251)" style="fill: none; stroke-dasharray: 5.55,2.4; stroke-dashoffset: 0; stroke: #ffa500; stroke-width: 1.5"/>
   </g>
   <g id="line2d_17">
    <path d="M 305.674716 231.444436 
L 305.674716 9.684436 
" clip-path="url(#peaef631251)" style="fill: none; stroke-dasharray: 5.55,2.4; stroke-dashoffset: 0; stroke: #ffa500; stroke-width: 1.5"/>
   </g>
   <g id="patch_4">
    <path d="M 46.965625 231.444436 
L 46.965625 9.684436 
" style="fill: none; stroke: #efefef; stroke-width: 0.8; stroke-linejoin: miter; stroke-linecap: square"/>
   </g>
   <g id="patch_5">
    <path d="M 381.765625 231.444436 
L 381.765625 9.684436 
" style="fill: none; stroke: #efefef; stroke-width: 0.8; stroke-linejoin: miter; stroke-linecap: square"/>
   </g>
   <g id="patch_6">
    <path d="M 46.965625 231.444436 
L 381.765625 231.444436 
" style="fill: none; stroke: #efefef; stroke-width: 0.8; stroke-linejoin: miter; stroke-linecap: square"/>
   </g>
   <g id="patch_7">
    <path d="M 46.965625 9.684436 
L 381.765625 9.684436 
" style="fill: none; stroke: #efefef; stroke-width: 0.8; stroke-linejoin: miter; stroke-linecap: square"/>
   </g>
  </g>
 </g>
 <defs>
  <clipPath id="peaef631251">
   <rect x="46.965625" y="9.684436" width="334.8" height="221.76"/>
  </clipPath>
 </defs>
</svg>
