<?xml version="1.0" encoding="utf-8" standalone="no"?>
<!DOCTYPE svg PUBLIC "-//W3C//DTD SVG 1.1//EN"
  "http://www.w3.org/Graphics/SVG/1.1/DTD/svg11.dtd">
<svg xmlns:xlink="http://www.w3.org/1999/xlink" width="388.965625pt" height="266.51625pt" viewBox="0 0 388.965625 266.51625" xmlns="http://www.w3.org/2000/svg" version="1.1">
 <metadata>
  <rdf:RDF xmlns:dc="http://purl.org/dc/elements/1.1/" xmlns:cc="http://creativecommons.org/ns#" xmlns:rdf="http://www.w3.org/1999/02/22-rdf-syntax-ns#">
   <cc:Work>
    <dc:type rdf:resource="http://purl.org/dc/dcmitype/StillImage"/>
    <dc:date>2025-02-09T19:25:57.111975</dc:date>
    <dc:format>image/svg+xml</dc:format>
    <dc:creator>
     <cc:Agent>
      <dc:title>Matplotlib v3.9.0, https://matplotlib.org/</dc:title>
     </cc:Agent>
    </dc:creator>
   </cc:Work>
  </rdf:RDF>
 </metadata>
 <defs>
  <style type="text/css">*{stroke-linejoin: round; stroke-linecap: butt}</style>
 </defs>
 <g id="figure_1">
  <g id="patch_1">
   <path d="M 0 266.51625 
L 388.965625 266.51625 
L 388.965625 0 
L 0 0 
L 0 266.51625 
z
" style="fill: none"/>
  </g>
  <g id="axes_1">
   <g id="patch_2">
    <path d="M 46.965625 228.96 
L 381.765625 228.96 
L 381.765625 7.2 
L 46.965625 7.2 
L 46.965625 228.96 
z
" style="fill: none"/>
   </g>
   <g id="PolyCollection_1"/>
   <g id="patch_3">
    <path d="M 123.056534 228.96 
L 305.674716 228.96 
L 305.674716 7.2 
L 123.056534 7.2 
z
" clip-path="url(#pd1870c1725)" style="fill: #ffa500; opacity: 0.2; stroke: #ffa500; stroke-linejoin: miter"/>
   </g>
   <g id="matplotlib.axis_1">
    <g id="xtick_1">
     <g id="line2d_1">
      <defs>
       <path id="m4ca64a9f13" d="M 0 0 
L 0 3.5 
" style="stroke: #efefef; stroke-width: 0.8"/>
      </defs>
      <g>
       <use xlink:href="#m4ca64a9f13" x="83.489261" y="228.96" style="fill: #efefef; stroke: #efefef; stroke-width: 0.8"/>
      </g>
     </g>
     <g id="text_1">
      <!-- 575 -->
      <g style="fill: #efefef" transform="translate(73.945511 243.558437) scale(0.1 -0.1)">
       <defs>
        <path id="DejaVuSans-35" d="M 691 4666 
L 3169 4666 
L 3169 4134 
L 1269 4134 
L 1269 2991 
Q 1406 3038 1543 3061 
Q 1681 3084 1819 3084 
Q 2600 3084 3056 2656 
Q 3513 2228 3513 1497 
Q 3513 744 3044 326 
Q 2575 -91 1722 -91 
Q 1428 -91 1123 -41 
Q 819 9 494 109 
L 494 744 
Q 775 591 1075 516 
Q 1375 441 1709 441 
Q 2250 441 2565 725 
Q 2881 1009 2881 1497 
Q 2881 1984 2565 2268 
Q 2250 2553 1709 2553 
Q 1456 2553 1204 2497 
Q 953 2441 691 2322 
L 691 4666 
z
" transform="scale(0.015625)"/>
        <path id="DejaVuSans-37" d="M 525 4666 
L 3525 4666 
L 3525 4397 
L 1831 0 
L 1172 0 
L 2766 4134 
L 525 4134 
L 525 4666 
z
" transform="scale(0.015625)"/>
       </defs>
       <use xlink:href="#DejaVuSans-35"/>
       <use xlink:href="#DejaVuSans-37" x="63.623047"/>
       <use xlink:href="#DejaVuSans-35" x="127.246094"/>
      </g>
     </g>
    </g>
    <g id="xtick_2">
     <g id="line2d_2">
      <g>
       <use xlink:href="#m4ca64a9f13" x="121.534716" y="228.96" style="fill: #efefef; stroke: #efefef; stroke-width: 0.8"/>
      </g>
     </g>
     <g id="text_2">
      <!-- 600 -->
      <g style="fill: #efefef" transform="translate(111.990966 243.558437) scale(0.1 -0.1)">
       <defs>
        <path id="DejaVuSans-36" d="M 2113 2584 
Q 1688 2584 1439 2293 
Q 1191 2003 1191 1497 
Q 1191 994 1439 701 
Q 1688 409 2113 409 
Q 2538 409 2786 701 
Q 3034 994 3034 1497 
Q 3034 2003 2786 2293 
Q 2538 2584 2113 2584 
z
M 3366 4563 
L 3366 3988 
Q 3128 4100 2886 4159 
Q 2644 4219 2406 4219 
Q 1781 4219 1451 3797 
Q 1122 3375 1075 2522 
Q 1259 2794 1537 2939 
Q 1816 3084 2150 3084 
Q 2853 3084 3261 2657 
Q 3669 2231 3669 1497 
Q 3669 778 3244 343 
Q 2819 -91 2113 -91 
Q 1303 -91 875 529 
Q 447 1150 447 2328 
Q 447 3434 972 4092 
Q 1497 4750 2381 4750 
Q 2619 4750 2861 4703 
Q 3103 4656 3366 4563 
z
" transform="scale(0.015625)"/>
        <path id="DejaVuSans-30" d="M 2034 4250 
Q 1547 4250 1301 3770 
Q 1056 3291 1056 2328 
Q 1056 1369 1301 889 
Q 1547 409 2034 409 
Q 2525 409 2770 889 
Q 3016 1369 3016 2328 
Q 3016 3291 2770 3770 
Q 2525 4250 2034 4250 
z
M 2034 4750 
Q 2819 4750 3233 4129 
Q 3647 3509 3647 2328 
Q 3647 1150 3233 529 
Q 2819 -91 2034 -91 
Q 1250 -91 836 529 
Q 422 1150 422 2328 
Q 422 3509 836 4129 
Q 1250 4750 2034 4750 
z
" transform="scale(0.015625)"/>
       </defs>
       <use xlink:href="#DejaVuSans-36"/>
       <use xlink:href="#DejaVuSans-30" x="63.623047"/>
       <use xlink:href="#DejaVuSans-30" x="127.246094"/>
      </g>
     </g>
    </g>
    <g id="xtick_3">
     <g id="line2d_3">
      <g>
       <use xlink:href="#m4ca64a9f13" x="159.58017" y="228.96" style="fill: #efefef; stroke: #efefef; stroke-width: 0.8"/>
      </g>
     </g>
     <g id="text_3">
      <!-- 625 -->
      <g style="fill: #efefef" transform="translate(150.03642 243.558437) scale(0.1 -0.1)">
       <defs>
        <path id="DejaVuSans-32" d="M 1228 531 
L 3431 531 
L 3431 0 
L 469 0 
L 469 531 
Q 828 903 1448 1529 
Q 2069 2156 2228 2338 
Q 2531 2678 2651 2914 
Q 2772 3150 2772 3378 
Q 2772 3750 2511 3984 
Q 2250 4219 1831 4219 
Q 1534 4219 1204 4116 
Q 875 4013 500 3803 
L 500 4441 
Q 881 4594 1212 4672 
Q 1544 4750 1819 4750 
Q 2544 4750 2975 4387 
Q 3406 4025 3406 3419 
Q 3406 3131 3298 2873 
Q 3191 2616 2906 2266 
Q 2828 2175 2409 1742 
Q 1991 1309 1228 531 
z
" transform="scale(0.015625)"/>
       </defs>
       <use xlink:href="#DejaVuSans-36"/>
       <use xlink:href="#DejaVuSans-32" x="63.623047"/>
       <use xlink:href="#DejaVuSans-35" x="127.246094"/>
      </g>
     </g>
    </g>
    <g id="xtick_4">
     <g id="line2d_4">
      <g>
       <use xlink:href="#m4ca64a9f13" x="197.625625" y="228.96" style="fill: #efefef; stroke: #efefef; stroke-width: 0.8"/>
      </g>
     </g>
     <g id="text_4">
      <!-- 650 -->
      <g style="fill: #efefef" transform="translate(188.081875 243.558437) scale(0.1 -0.1)">
       <use xlink:href="#DejaVuSans-36"/>
       <use xlink:href="#DejaVuSans-35" x="63.623047"/>
       <use xlink:href="#DejaVuSans-30" x="127.246094"/>
      </g>
     </g>
    </g>
    <g id="xtick_5">
     <g id="line2d_5">
      <g>
       <use xlink:href="#m4ca64a9f13" x="235.67108" y="228.96" style="fill: #efefef; stroke: #efefef; stroke-width: 0.8"/>
      </g>
     </g>
     <g id="text_5">
      <!-- 675 -->
      <g style="fill: #efefef" transform="translate(226.12733 243.558437) scale(0.1 -0.1)">
       <use xlink:href="#DejaVuSans-36"/>
       <use xlink:href="#DejaVuSans-37" x="63.623047"/>
       <use xlink:href="#DejaVuSans-35" x="127.246094"/>
      </g>
     </g>
    </g>
    <g id="xtick_6">
     <g id="line2d_6">
      <g>
       <use xlink:href="#m4ca64a9f13" x="273.716534" y="228.96" style="fill: #efefef; stroke: #efefef; stroke-width: 0.8"/>
      </g>
     </g>
     <g id="text_6">
      <!-- 700 -->
      <g style="fill: #efefef" transform="translate(264.172784 243.558437) scale(0.1 -0.1)">
       <use xlink:href="#DejaVuSans-37"/>
       <use xlink:href="#DejaVuSans-30" x="63.623047"/>
       <use xlink:href="#DejaVuSans-30" x="127.246094"/>
      </g>
     </g>
    </g>
    <g id="xtick_7">
     <g id="line2d_7">
      <g>
       <use xlink:href="#m4ca64a9f13" x="311.761989" y="228.96" style="fill: #efefef; stroke: #efefef; stroke-width: 0.8"/>
      </g>
     </g>
     <g id="text_7">
      <!-- 725 -->
      <g style="fill: #efefef" transform="translate(302.218239 243.558437) scale(0.1 -0.1)">
       <use xlink:href="#DejaVuSans-37"/>
       <use xlink:href="#DejaVuSans-32" x="63.623047"/>
       <use xlink:href="#DejaVuSans-35" x="127.246094"/>
      </g>
     </g>
    </g>
    <g id="xtick_8">
     <g id="line2d_8">
      <g>
       <use xlink:href="#m4ca64a9f13" x="349.807443" y="228.96" style="fill: #efefef; stroke: #efefef; stroke-width: 0.8"/>
      </g>
     </g>
     <g id="text_8">
      <!-- 750 -->
      <g style="fill: #efefef" transform="translate(340.263693 243.558437) scale(0.1 -0.1)">
       <use xlink:href="#DejaVuSans-37"/>
       <use xlink:href="#DejaVuSans-35" x="63.623047"/>
       <use xlink:href="#DejaVuSans-30" x="127.246094"/>
      </g>
     </g>
    </g>
    <g id="text_9">
     <!-- Frame -->
     <g style="fill: #efefef" transform="translate(198.785938 257.236562) scale(0.1 -0.1)">
      <defs>
       <path id="DejaVuSans-46" d="M 628 4666 
L 3309 4666 
L 3309 4134 
L 1259 4134 
L 1259 2759 
L 3109 2759 
L 3109 2228 
L 1259 2228 
L 1259 0 
L 628 0 
L 628 4666 
z
" transform="scale(0.015625)"/>
       <path id="DejaVuSans-72" d="M 2631 2963 
Q 2534 3019 2420 3045 
Q 2306 3072 2169 3072 
Q 1681 3072 1420 2755 
Q 1159 2438 1159 1844 
L 1159 0 
L 581 0 
L 581 3500 
L 1159 3500 
L 1159 2956 
Q 1341 3275 1631 3429 
Q 1922 3584 2338 3584 
Q 2397 3584 2469 3576 
Q 2541 3569 2628 3553 
L 2631 2963 
z
" transform="scale(0.015625)"/>
       <path id="DejaVuSans-61" d="M 2194 1759 
Q 1497 1759 1228 1600 
Q 959 1441 959 1056 
Q 959 750 1161 570 
Q 1363 391 1709 391 
Q 2188 391 2477 730 
Q 2766 1069 2766 1631 
L 2766 1759 
L 2194 1759 
z
M 3341 1997 
L 3341 0 
L 2766 0 
L 2766 531 
Q 2569 213 2275 61 
Q 1981 -91 1556 -91 
Q 1019 -91 701 211 
Q 384 513 384 1019 
Q 384 1609 779 1909 
Q 1175 2209 1959 2209 
L 2766 2209 
L 2766 2266 
Q 2766 2663 2505 2880 
Q 2244 3097 1772 3097 
Q 1472 3097 1187 3025 
Q 903 2953 641 2809 
L 641 3341 
Q 956 3463 1253 3523 
Q 1550 3584 1831 3584 
Q 2591 3584 2966 3190 
Q 3341 2797 3341 1997 
z
" transform="scale(0.015625)"/>
       <path id="DejaVuSans-6d" d="M 3328 2828 
Q 3544 3216 3844 3400 
Q 4144 3584 4550 3584 
Q 5097 3584 5394 3201 
Q 5691 2819 5691 2113 
L 5691 0 
L 5113 0 
L 5113 2094 
Q 5113 2597 4934 2840 
Q 4756 3084 4391 3084 
Q 3944 3084 3684 2787 
Q 3425 2491 3425 1978 
L 3425 0 
L 2847 0 
L 2847 2094 
Q 2847 2600 2669 2842 
Q 2491 3084 2119 3084 
Q 1678 3084 1418 2786 
Q 1159 2488 1159 1978 
L 1159 0 
L 581 0 
L 581 3500 
L 1159 3500 
L 1159 2956 
Q 1356 3278 1631 3431 
Q 1906 3584 2284 3584 
Q 2666 3584 2933 3390 
Q 3200 3197 3328 2828 
z
" transform="scale(0.015625)"/>
       <path id="DejaVuSans-65" d="M 3597 1894 
L 3597 1613 
L 953 1613 
Q 991 1019 1311 708 
Q 1631 397 2203 397 
Q 2534 397 2845 478 
Q 3156 559 3463 722 
L 3463 178 
Q 3153 47 2828 -22 
Q 2503 -91 2169 -91 
Q 1331 -91 842 396 
Q 353 884 353 1716 
Q 353 2575 817 3079 
Q 1281 3584 2069 3584 
Q 2775 3584 3186 3129 
Q 3597 2675 3597 1894 
z
M 3022 2063 
Q 3016 2534 2758 2815 
Q 2500 3097 2075 3097 
Q 1594 3097 1305 2825 
Q 1016 2553 972 2059 
L 3022 2063 
z
" transform="scale(0.015625)"/>
      </defs>
      <use xlink:href="#DejaVuSans-46"/>
      <use xlink:href="#DejaVuSans-72" x="50.269531"/>
      <use xlink:href="#DejaVuSans-61" x="91.382812"/>
      <use xlink:href="#DejaVuSans-6d" x="152.662109"/>
      <use xlink:href="#DejaVuSans-65" x="250.074219"/>
     </g>
    </g>
   </g>
   <g id="matplotlib.axis_2">
    <g id="ytick_1">
     <g id="line2d_9">
      <defs>
       <path id="m3a22d0082e" d="M 0 0 
L -3.5 0 
" style="stroke: #efefef; stroke-width: 0.8"/>
      </defs>
      <g>
       <use xlink:href="#m3a22d0082e" x="46.965625" y="199.269105" style="fill: #efefef; stroke: #efefef; stroke-width: 0.8"/>
      </g>
     </g>
     <g id="text_10">
      <!-- 50 -->
      <g style="fill: #efefef" transform="translate(27.240625 203.068324) scale(0.1 -0.1)">
       <use xlink:href="#DejaVuSans-35"/>
       <use xlink:href="#DejaVuSans-30" x="63.623047"/>
      </g>
     </g>
    </g>
    <g id="ytick_2">
     <g id="line2d_10">
      <g>
       <use xlink:href="#m3a22d0082e" x="46.965625" y="160.047315" style="fill: #efefef; stroke: #efefef; stroke-width: 0.8"/>
      </g>
     </g>
     <g id="text_11">
      <!-- 100 -->
      <g style="fill: #efefef" transform="translate(20.878125 163.846534) scale(0.1 -0.1)">
       <defs>
        <path id="DejaVuSans-31" d="M 794 531 
L 1825 531 
L 1825 4091 
L 703 3866 
L 703 4441 
L 1819 4666 
L 2450 4666 
L 2450 531 
L 3481 531 
L 3481 0 
L 794 0 
L 794 531 
z
" transform="scale(0.015625)"/>
       </defs>
       <use xlink:href="#DejaVuSans-31"/>
       <use xlink:href="#DejaVuSans-30" x="63.623047"/>
       <use xlink:href="#DejaVuSans-30" x="127.246094"/>
      </g>
     </g>
    </g>
    <g id="ytick_3">
     <g id="line2d_11">
      <g>
       <use xlink:href="#m3a22d0082e" x="46.965625" y="120.825525" style="fill: #efefef; stroke: #efefef; stroke-width: 0.8"/>
      </g>
     </g>
     <g id="text_12">
      <!-- 150 -->
      <g style="fill: #efefef" transform="translate(20.878125 124.624744) scale(0.1 -0.1)">
       <use xlink:href="#DejaVuSans-31"/>
       <use xlink:href="#DejaVuSans-35" x="63.623047"/>
       <use xlink:href="#DejaVuSans-30" x="127.246094"/>
      </g>
     </g>
    </g>
    <g id="ytick_4">
     <g id="line2d_12">
      <g>
       <use xlink:href="#m3a22d0082e" x="46.965625" y="81.603735" style="fill: #efefef; stroke: #efefef; stroke-width: 0.8"/>
      </g>
     </g>
     <g id="text_13">
      <!-- 200 -->
      <g style="fill: #efefef" transform="translate(20.878125 85.402954) scale(0.1 -0.1)">
       <use xlink:href="#DejaVuSans-32"/>
       <use xlink:href="#DejaVuSans-30" x="63.623047"/>
       <use xlink:href="#DejaVuSans-30" x="127.246094"/>
      </g>
     </g>
    </g>
    <g id="ytick_5">
     <g id="line2d_13">
      <g>
       <use xlink:href="#m3a22d0082e" x="46.965625" y="42.381946" style="fill: #efefef; stroke: #efefef; stroke-width: 0.8"/>
      </g>
     </g>
     <g id="text_14">
      <!-- 250 -->
      <g style="fill: #efefef" transform="translate(20.878125 46.181164) scale(0.1 -0.1)">
       <use xlink:href="#DejaVuSans-32"/>
       <use xlink:href="#DejaVuSans-35" x="63.623047"/>
       <use xlink:href="#DejaVuSans-30" x="127.246094"/>
      </g>
     </g>
    </g>
    <g id="text_15">
     <!-- CSI Amplitude -->
     <g style="fill: #efefef" transform="translate(14.798438 153.432344) rotate(-90) scale(0.1 -0.1)">
      <defs>
       <path id="DejaVuSans-43" d="M 4122 4306 
L 4122 3641 
Q 3803 3938 3442 4084 
Q 3081 4231 2675 4231 
Q 1875 4231 1450 3742 
Q 1025 3253 1025 2328 
Q 1025 1406 1450 917 
Q 1875 428 2675 428 
Q 3081 428 3442 575 
Q 3803 722 4122 1019 
L 4122 359 
Q 3791 134 3420 21 
Q 3050 -91 2638 -91 
Q 1578 -91 968 557 
Q 359 1206 359 2328 
Q 359 3453 968 4101 
Q 1578 4750 2638 4750 
Q 3056 4750 3426 4639 
Q 3797 4528 4122 4306 
z
" transform="scale(0.015625)"/>
       <path id="DejaVuSans-53" d="M 3425 4513 
L 3425 3897 
Q 3066 4069 2747 4153 
Q 2428 4238 2131 4238 
Q 1616 4238 1336 4038 
Q 1056 3838 1056 3469 
Q 1056 3159 1242 3001 
Q 1428 2844 1947 2747 
L 2328 2669 
Q 3034 2534 3370 2195 
Q 3706 1856 3706 1288 
Q 3706 609 3251 259 
Q 2797 -91 1919 -91 
Q 1588 -91 1214 -16 
Q 841 59 441 206 
L 441 856 
Q 825 641 1194 531 
Q 1563 422 1919 422 
Q 2459 422 2753 634 
Q 3047 847 3047 1241 
Q 3047 1584 2836 1778 
Q 2625 1972 2144 2069 
L 1759 2144 
Q 1053 2284 737 2584 
Q 422 2884 422 3419 
Q 422 4038 858 4394 
Q 1294 4750 2059 4750 
Q 2388 4750 2728 4690 
Q 3069 4631 3425 4513 
z
" transform="scale(0.015625)"/>
       <path id="DejaVuSans-49" d="M 628 4666 
L 1259 4666 
L 1259 0 
L 628 0 
L 628 4666 
z
" transform="scale(0.015625)"/>
       <path id="DejaVuSans-20" transform="scale(0.015625)"/>
       <path id="DejaVuSans-41" d="M 2188 4044 
L 1331 1722 
L 3047 1722 
L 2188 4044 
z
M 1831 4666 
L 2547 4666 
L 4325 0 
L 3669 0 
L 3244 1197 
L 1141 1197 
L 716 0 
L 50 0 
L 1831 4666 
z
" transform="scale(0.015625)"/>
       <path id="DejaVuSans-70" d="M 1159 525 
L 1159 -1331 
L 581 -1331 
L 581 3500 
L 1159 3500 
L 1159 2969 
Q 1341 3281 1617 3432 
Q 1894 3584 2278 3584 
Q 2916 3584 3314 3078 
Q 3713 2572 3713 1747 
Q 3713 922 3314 415 
Q 2916 -91 2278 -91 
Q 1894 -91 1617 61 
Q 1341 213 1159 525 
z
M 3116 1747 
Q 3116 2381 2855 2742 
Q 2594 3103 2138 3103 
Q 1681 3103 1420 2742 
Q 1159 2381 1159 1747 
Q 1159 1113 1420 752 
Q 1681 391 2138 391 
Q 2594 391 2855 752 
Q 3116 1113 3116 1747 
z
" transform="scale(0.015625)"/>
       <path id="DejaVuSans-6c" d="M 603 4863 
L 1178 4863 
L 1178 0 
L 603 0 
L 603 4863 
z
" transform="scale(0.015625)"/>
       <path id="DejaVuSans-69" d="M 603 3500 
L 1178 3500 
L 1178 0 
L 603 0 
L 603 3500 
z
M 603 4863 
L 1178 4863 
L 1178 4134 
L 603 4134 
L 603 4863 
z
" transform="scale(0.015625)"/>
       <path id="DejaVuSans-74" d="M 1172 4494 
L 1172 3500 
L 2356 3500 
L 2356 3053 
L 1172 3053 
L 1172 1153 
Q 1172 725 1289 603 
Q 1406 481 1766 481 
L 2356 481 
L 2356 0 
L 1766 0 
Q 1100 0 847 248 
Q 594 497 594 1153 
L 594 3053 
L 172 3053 
L 172 3500 
L 594 3500 
L 594 4494 
L 1172 4494 
z
" transform="scale(0.015625)"/>
       <path id="DejaVuSans-75" d="M 544 1381 
L 544 3500 
L 1119 3500 
L 1119 1403 
Q 1119 906 1312 657 
Q 1506 409 1894 409 
Q 2359 409 2629 706 
Q 2900 1003 2900 1516 
L 2900 3500 
L 3475 3500 
L 3475 0 
L 2900 0 
L 2900 538 
Q 2691 219 2414 64 
Q 2138 -91 1772 -91 
Q 1169 -91 856 284 
Q 544 659 544 1381 
z
M 1991 3584 
L 1991 3584 
z
" transform="scale(0.015625)"/>
       <path id="DejaVuSans-64" d="M 2906 2969 
L 2906 4863 
L 3481 4863 
L 3481 0 
L 2906 0 
L 2906 525 
Q 2725 213 2448 61 
Q 2172 -91 1784 -91 
Q 1150 -91 751 415 
Q 353 922 353 1747 
Q 353 2572 751 3078 
Q 1150 3584 1784 3584 
Q 2172 3584 2448 3432 
Q 2725 3281 2906 2969 
z
M 947 1747 
Q 947 1113 1208 752 
Q 1469 391 1925 391 
Q 2381 391 2643 752 
Q 2906 1113 2906 1747 
Q 2906 2381 2643 2742 
Q 2381 3103 1925 3103 
Q 1469 3103 1208 2742 
Q 947 2381 947 1747 
z
" transform="scale(0.015625)"/>
      </defs>
      <use xlink:href="#DejaVuSans-43"/>
      <use xlink:href="#DejaVuSans-53" x="69.824219"/>
      <use xlink:href="#DejaVuSans-49" x="133.300781"/>
      <use xlink:href="#DejaVuSans-20" x="162.792969"/>
      <use xlink:href="#DejaVuSans-41" x="194.580078"/>
      <use xlink:href="#DejaVuSans-6d" x="262.988281"/>
      <use xlink:href="#DejaVuSans-70" x="360.400391"/>
      <use xlink:href="#DejaVuSans-6c" x="423.876953"/>
      <use xlink:href="#DejaVuSans-69" x="451.660156"/>
      <use xlink:href="#DejaVuSans-74" x="479.443359"/>
      <use xlink:href="#DejaVuSans-75" x="518.652344"/>
      <use xlink:href="#DejaVuSans-64" x="582.03125"/>
      <use xlink:href="#DejaVuSans-65" x="645.507812"/>
     </g>
    </g>
   </g>
   <g id="line2d_14">
    <path d="M 45.443807 111.412296 
L 46.965625 158.478444 
L 48.487443 125.53214 
L 50.009261 109.058988 
L 51.53108 156.125136 
L 53.052898 100.430195 
L 54.574716 164.75393 
L 56.096534 155.3407 
L 57.618352 176.520467 
L 59.14017 108.274553 
L 60.661989 187.502568 
L 62.183807 172.598288 
L 63.705625 54.932918 
L 65.227443 181.227082 
L 66.749261 208.682335 
L 68.27108 121.609961 
L 69.792898 139.651984 
L 71.314716 74.543813 
L 72.836534 108.274553 
L 74.358352 152.987393 
L 75.88017 89.448093 
L 77.401989 152.202957 
L 78.923807 91.016965 
L 80.445625 139.651984 
L 81.967443 147.496342 
L 83.489261 123.963268 
L 85.01108 185.149261 
L 86.532898 156.125136 
L 88.054716 108.274553 
L 89.576534 146.711907 
L 91.098352 156.909572 
L 92.62017 162.400623 
L 94.141989 138.083113 
L 95.663807 169.460545 
L 97.185625 165.538366 
L 98.707443 114.550039 
L 100.229261 98.076887 
L 101.75108 126.316576 
L 103.272898 182.795953 
L 104.794716 121.609961 
L 106.316534 69.837198 
L 107.838352 142.005292 
L 109.36017 120.041089 
L 110.881989 155.3407 
L 112.403807 160.831751 
L 113.925625 189.07144 
L 115.447443 120.041089 
L 116.969261 101.999066 
L 118.49108 209.46677 
L 120.012898 90.232529 
L 121.534716 137.298677 
L 123.056534 166.322802 
L 124.578352 192.993619 
L 126.10017 170.244981 
L 127.621989 178.089339 
L 129.143807 58.855097 
L 130.665625 157.694008 
L 132.187443 197.700233 
L 133.709261 141.220856 
L 135.23108 154.556265 
L 136.752898 148.280778 
L 138.274716 176.520467 
L 139.796534 168.676109 
L 141.318352 92.585837 
L 142.84017 182.011518 
L 144.361989 174.951595 
L 145.883807 173.382724 
L 147.405625 192.993619 
L 148.927443 153.771829 
L 150.449261 139.651984 
L 151.97108 182.795953 
L 153.492898 145.927471 
L 155.014716 91.801401 
L 156.536534 167.107237 
L 158.058352 196.915798 
L 159.58017 120.825525 
L 161.101989 174.16716 
L 162.623807 100.430195 
L 164.145625 167.107237 
L 165.667443 152.987393 
L 167.189261 89.448093 
L 168.71108 87.094786 
L 170.232898 156.909572 
L 171.754716 156.909572 
L 173.276534 173.382724 
L 174.798352 111.412296 
L 176.32017 167.107237 
L 177.841989 100.430195 
L 179.363807 113.765603 
L 180.885625 159.262879 
L 182.407443 89.448093 
L 183.929261 126.316576 
L 185.45108 62.777276 
L 186.972898 152.987393 
L 188.494716 65.130584 
L 190.016534 70.621634 
L 191.538352 173.382724 
L 193.06017 190.640311 
L 194.581989 182.011518 
L 196.103807 116.118911 
L 197.625625 185.149261 
L 199.147443 142.005292 
L 200.669261 149.84965 
L 202.19108 84.741479 
L 203.712898 156.125136 
L 205.234716 108.274553 
L 206.756534 65.915019 
L 208.278352 112.981167 
L 209.80017 109.843424 
L 211.321989 76.112685 
L 212.843807 79.250428 
L 214.365625 116.903346 
L 215.887443 139.651984 
L 217.409261 171.813852 
L 218.93108 92.585837 
L 220.452898 67.483891 
L 221.974716 82.388171 
L 223.496534 160.047315 
L 225.018352 182.011518 
L 226.54017 179.65821 
L 228.061989 166.322802 
L 229.583807 171.813852 
L 231.105625 132.592062 
L 232.627443 134.160934 
L 234.149261 171.029416 
L 235.67108 195.346926 
L 237.192898 185.149261 
L 238.714716 147.496342 
L 240.236534 81.603735 
L 241.758352 86.31035 
L 243.28017 170.244981 
L 244.801989 145.927471 
L 246.323807 99.645759 
L 247.845625 150.634086 
L 249.367443 122.394397 
L 250.889261 155.3407 
L 252.41108 152.987393 
L 253.932898 88.663658 
L 255.454716 149.84965 
L 256.976534 86.31035 
L 258.498352 183.580389 
L 260.02017 107.490117 
L 261.541989 132.592062 
L 263.063807 153.771829 
L 264.585625 106.705681 
L 266.107443 145.927471 
L 267.629261 130.238755 
L 269.15108 84.741479 
L 270.672898 214.173385 
L 272.194716 152.202957 
L 273.716534 182.795953 
L 275.238352 127.101012 
L 276.76017 156.909572 
L 278.281989 160.047315 
L 279.803807 80.034864 
L 281.325625 151.418521 
L 282.847443 98.861323 
L 284.369261 95.72358 
L 285.89108 171.813852 
L 287.412898 170.244981 
L 288.934716 156.125136 
L 290.456534 69.052763 
L 291.978352 167.107237 
L 293.50017 85.525914 
L 295.021989 69.052763 
L 298.065625 132.592062 
L 299.587443 134.160934 
L 301.109261 203.191284 
L 302.63108 143.574163 
L 304.152898 174.951595 
L 305.674716 150.634086 
L 307.196534 83.172607 
L 308.718352 139.651984 
L 310.24017 80.034864 
L 311.761989 77.681556 
L 313.283807 137.298677 
L 314.805625 128.669883 
L 316.327443 92.585837 
L 317.849261 87.094786 
L 319.37108 124.747704 
L 320.892898 101.21463 
L 322.414716 136.514241 
L 323.936534 96.508016 
L 325.458352 163.185058 
L 326.98017 96.508016 
L 328.501989 49.441868 
L 330.023807 64.346148 
L 331.545625 106.705681 
L 333.067443 66.699455 
L 334.589261 184.364825 
L 336.11108 82.388171 
L 337.632898 114.550039 
L 339.154716 167.891673 
L 340.676534 79.250428 
L 342.198352 108.274553 
L 343.72017 109.843424 
L 345.241989 88.663658 
L 346.763807 183.580389 
L 348.285625 145.143035 
L 349.807443 126.316576 
L 351.329261 163.185058 
L 352.85108 120.825525 
L 354.372898 75.328249 
L 355.894716 139.651984 
L 357.416534 185.149261 
L 358.938352 101.21463 
L 360.46017 189.855875 
L 361.981989 72.974942 
L 363.503807 74.543813 
L 365.025625 89.448093 
L 366.547443 69.052763 
L 368.069261 183.580389 
L 369.59108 141.220856 
L 371.112898 154.556265 
L 372.634716 98.076887 
L 374.156534 46.304125 
L 375.678352 125.53214 
L 377.20017 83.957043 
L 378.721989 136.514241 
L 380.243807 162.400623 
L 381.765625 143.574163 
L 383.287443 98.076887 
L 383.287443 98.076887 
" clip-path="url(#pd1870c1725)" style="fill: none; stroke: #1f77b4; stroke-width: 1.5; stroke-linecap: square"/>
   </g>
   <g id="line2d_15">
    <path d="M 123.056534 228.96 
L 123.056534 7.2 
" clip-path="url(#pd1870c1725)" style="fill: none; stroke-dasharray: 5.55,2.4; stroke-dashoffset: 0; stroke: #ffa500; stroke-width: 1.5"/>
   </g>
   <g id="line2d_16">
    <path d="M 305.674716 228.96 
L 305.674716 7.2 
" clip-path="url(#pd1870c1725)" style="fill: none; stroke-dasharray: 5.55,2.4; stroke-dashoffset: 0; stroke: #ffa500; stroke-width: 1.5"/>
   </g>
   <g id="patch_4">
    <path d="M 46.965625 228.96 
L 46.965625 7.2 
" style="fill: none; stroke: #efefef; stroke-width: 0.8; stroke-linejoin: miter; stroke-linecap: square"/>
   </g>
   <g id="patch_5">
    <path d="M 381.765625 228.96 
L 381.765625 7.2 
" style="fill: none; stroke: #efefef; stroke-width: 0.8; stroke-linejoin: miter; stroke-linecap: square"/>
   </g>
   <g id="patch_6">
    <path d="M 46.965625 228.96 
L 381.765625 228.96 
" style="fill: none; stroke: #efefef; stroke-width: 0.8; stroke-linejoin: miter; stroke-linecap: square"/>
   </g>
   <g id="patch_7">
    <path d="M 46.965625 7.2 
L 381.765625 7.2 
" style="fill: none; stroke: #efefef; stroke-width: 0.8; stroke-linejoin: miter; stroke-linecap: square"/>
   </g>
  </g>
 </g>
 <defs>
  <clipPath id="pd1870c1725">
   <rect x="46.965625" y="7.2" width="334.8" height="221.76"/>
  </clipPath>
 </defs>
</svg>
