<?xml version="1.0" encoding="utf-8" standalone="no"?>
<!DOCTYPE svg PUBLIC "-//W3C//DTD SVG 1.1//EN"
  "http://www.w3.org/Graphics/SVG/1.1/DTD/svg11.dtd">
<svg xmlns:xlink="http://www.w3.org/1999/xlink" width="487.840625pt" height="281.634375pt" viewBox="0 0 487.840625 281.634375" xmlns="http://www.w3.org/2000/svg" version="1.1">
 <metadata>
  <rdf:RDF xmlns:dc="http://purl.org/dc/elements/1.1/" xmlns:cc="http://creativecommons.org/ns#" xmlns:rdf="http://www.w3.org/1999/02/22-rdf-syntax-ns#">
   <cc:Work>
    <dc:type rdf:resource="http://purl.org/dc/dcmitype/StillImage"/>
    <dc:date>2024-12-12T13:08:51.411528</dc:date>
    <dc:format>image/svg+xml</dc:format>
    <dc:creator>
     <cc:Agent>
      <dc:title>Matplotlib v3.9.0, https://matplotlib.org/</dc:title>
     </cc:Agent>
    </dc:creator>
   </cc:Work>
  </rdf:RDF>
 </metadata>
 <defs>
  <style type="text/css">*{stroke-linejoin: round; stroke-linecap: butt}</style>
 </defs>
 <g id="figure_1">
  <g id="patch_1">
   <path d="M 0 281.634375 
L 487.840625 281.634375 
L 487.840625 0 
L 0 0 
z
" style="fill: #ffffff"/>
  </g>
  <g id="axes_1">
   <g id="patch_2">
    <path d="M 34.240625 244.078125 
L 480.640625 244.078125 
L 480.640625 22.318125 
L 34.240625 22.318125 
z
" style="fill: #ffffff"/>
   </g>
   <g id="PolyCollection_1"/>
   <g id="PolyCollection_2"/>
   <g id="matplotlib.axis_1">
    <g id="xtick_1">
     <g id="line2d_1">
      <defs>
       <path id="m9dfe4f02a6" d="M 0 0 
L 0 3.5 
" style="stroke: #000000; stroke-width: 0.8"/>
      </defs>
      <g>
       <use xlink:href="#m9dfe4f02a6" x="54.531534" y="244.078125" style="stroke: #000000; stroke-width: 0.8"/>
      </g>
     </g>
     <g id="text_1">
      <!-- 0 -->
      <g transform="translate(51.350284 258.676562) scale(0.1 -0.1)">
       <defs>
        <path id="DejaVuSans-30" d="M 2034 4250 
Q 1547 4250 1301 3770 
Q 1056 3291 1056 2328 
Q 1056 1369 1301 889 
Q 1547 409 2034 409 
Q 2525 409 2770 889 
Q 3016 1369 3016 2328 
Q 3016 3291 2770 3770 
Q 2525 4250 2034 4250 
z
M 2034 4750 
Q 2819 4750 3233 4129 
Q 3647 3509 3647 2328 
Q 3647 1150 3233 529 
Q 2819 -91 2034 -91 
Q 1250 -91 836 529 
Q 422 1150 422 2328 
Q 422 3509 836 4129 
Q 1250 4750 2034 4750 
z
" transform="scale(0.015625)"/>
       </defs>
       <use xlink:href="#DejaVuSans-30"/>
      </g>
     </g>
    </g>
    <g id="xtick_2">
     <g id="line2d_2">
      <g>
       <use xlink:href="#m9dfe4f02a6" x="122.394106" y="244.078125" style="stroke: #000000; stroke-width: 0.8"/>
      </g>
     </g>
     <g id="text_2">
      <!-- 50 -->
      <g transform="translate(116.031606 258.676562) scale(0.1 -0.1)">
       <defs>
        <path id="DejaVuSans-35" d="M 691 4666 
L 3169 4666 
L 3169 4134 
L 1269 4134 
L 1269 2991 
Q 1406 3038 1543 3061 
Q 1681 3084 1819 3084 
Q 2600 3084 3056 2656 
Q 3513 2228 3513 1497 
Q 3513 744 3044 326 
Q 2575 -91 1722 -91 
Q 1428 -91 1123 -41 
Q 819 9 494 109 
L 494 744 
Q 775 591 1075 516 
Q 1375 441 1709 441 
Q 2250 441 2565 725 
Q 2881 1009 2881 1497 
Q 2881 1984 2565 2268 
Q 2250 2553 1709 2553 
Q 1456 2553 1204 2497 
Q 953 2441 691 2322 
L 691 4666 
z
" transform="scale(0.015625)"/>
       </defs>
       <use xlink:href="#DejaVuSans-35"/>
       <use xlink:href="#DejaVuSans-30" x="63.623047"/>
      </g>
     </g>
    </g>
    <g id="xtick_3">
     <g id="line2d_3">
      <g>
       <use xlink:href="#m9dfe4f02a6" x="190.256679" y="244.078125" style="stroke: #000000; stroke-width: 0.8"/>
      </g>
     </g>
     <g id="text_3">
      <!-- 100 -->
      <g transform="translate(180.712929 258.676562) scale(0.1 -0.1)">
       <defs>
        <path id="DejaVuSans-31" d="M 794 531 
L 1825 531 
L 1825 4091 
L 703 3866 
L 703 4441 
L 1819 4666 
L 2450 4666 
L 2450 531 
L 3481 531 
L 3481 0 
L 794 0 
L 794 531 
z
" transform="scale(0.015625)"/>
       </defs>
       <use xlink:href="#DejaVuSans-31"/>
       <use xlink:href="#DejaVuSans-30" x="63.623047"/>
       <use xlink:href="#DejaVuSans-30" x="127.246094"/>
      </g>
     </g>
    </g>
    <g id="xtick_4">
     <g id="line2d_4">
      <g>
       <use xlink:href="#m9dfe4f02a6" x="258.119251" y="244.078125" style="stroke: #000000; stroke-width: 0.8"/>
      </g>
     </g>
     <g id="text_4">
      <!-- 150 -->
      <g transform="translate(248.575501 258.676562) scale(0.1 -0.1)">
       <use xlink:href="#DejaVuSans-31"/>
       <use xlink:href="#DejaVuSans-35" x="63.623047"/>
       <use xlink:href="#DejaVuSans-30" x="127.246094"/>
      </g>
     </g>
    </g>
    <g id="xtick_5">
     <g id="line2d_5">
      <g>
       <use xlink:href="#m9dfe4f02a6" x="325.981823" y="244.078125" style="stroke: #000000; stroke-width: 0.8"/>
      </g>
     </g>
     <g id="text_5">
      <!-- 200 -->
      <g transform="translate(316.438073 258.676562) scale(0.1 -0.1)">
       <defs>
        <path id="DejaVuSans-32" d="M 1228 531 
L 3431 531 
L 3431 0 
L 469 0 
L 469 531 
Q 828 903 1448 1529 
Q 2069 2156 2228 2338 
Q 2531 2678 2651 2914 
Q 2772 3150 2772 3378 
Q 2772 3750 2511 3984 
Q 2250 4219 1831 4219 
Q 1534 4219 1204 4116 
Q 875 4013 500 3803 
L 500 4441 
Q 881 4594 1212 4672 
Q 1544 4750 1819 4750 
Q 2544 4750 2975 4387 
Q 3406 4025 3406 3419 
Q 3406 3131 3298 2873 
Q 3191 2616 2906 2266 
Q 2828 2175 2409 1742 
Q 1991 1309 1228 531 
z
" transform="scale(0.015625)"/>
       </defs>
       <use xlink:href="#DejaVuSans-32"/>
       <use xlink:href="#DejaVuSans-30" x="63.623047"/>
       <use xlink:href="#DejaVuSans-30" x="127.246094"/>
      </g>
     </g>
    </g>
    <g id="xtick_6">
     <g id="line2d_6">
      <g>
       <use xlink:href="#m9dfe4f02a6" x="393.844395" y="244.078125" style="stroke: #000000; stroke-width: 0.8"/>
      </g>
     </g>
     <g id="text_6">
      <!-- 250 -->
      <g transform="translate(384.300645 258.676562) scale(0.1 -0.1)">
       <use xlink:href="#DejaVuSans-32"/>
       <use xlink:href="#DejaVuSans-35" x="63.623047"/>
       <use xlink:href="#DejaVuSans-30" x="127.246094"/>
      </g>
     </g>
    </g>
    <g id="xtick_7">
     <g id="line2d_7">
      <g>
       <use xlink:href="#m9dfe4f02a6" x="461.706967" y="244.078125" style="stroke: #000000; stroke-width: 0.8"/>
      </g>
     </g>
     <g id="text_7">
      <!-- 300 -->
      <g transform="translate(452.163217 258.676562) scale(0.1 -0.1)">
       <defs>
        <path id="DejaVuSans-33" d="M 2597 2516 
Q 3050 2419 3304 2112 
Q 3559 1806 3559 1356 
Q 3559 666 3084 287 
Q 2609 -91 1734 -91 
Q 1441 -91 1130 -33 
Q 819 25 488 141 
L 488 750 
Q 750 597 1062 519 
Q 1375 441 1716 441 
Q 2309 441 2620 675 
Q 2931 909 2931 1356 
Q 2931 1769 2642 2001 
Q 2353 2234 1838 2234 
L 1294 2234 
L 1294 2753 
L 1863 2753 
Q 2328 2753 2575 2939 
Q 2822 3125 2822 3475 
Q 2822 3834 2567 4026 
Q 2313 4219 1838 4219 
Q 1578 4219 1281 4162 
Q 984 4106 628 3988 
L 628 4550 
Q 988 4650 1302 4700 
Q 1616 4750 1894 4750 
Q 2613 4750 3031 4423 
Q 3450 4097 3450 3541 
Q 3450 3153 3228 2886 
Q 3006 2619 2597 2516 
z
" transform="scale(0.015625)"/>
       </defs>
       <use xlink:href="#DejaVuSans-33"/>
       <use xlink:href="#DejaVuSans-30" x="63.623047"/>
       <use xlink:href="#DejaVuSans-30" x="127.246094"/>
      </g>
     </g>
    </g>
    <g id="text_8">
     <!-- Frame number -->
     <g transform="translate(220.757812 272.354687) scale(0.1 -0.1)">
      <defs>
       <path id="DejaVuSans-46" d="M 628 4666 
L 3309 4666 
L 3309 4134 
L 1259 4134 
L 1259 2759 
L 3109 2759 
L 3109 2228 
L 1259 2228 
L 1259 0 
L 628 0 
L 628 4666 
z
" transform="scale(0.015625)"/>
       <path id="DejaVuSans-72" d="M 2631 2963 
Q 2534 3019 2420 3045 
Q 2306 3072 2169 3072 
Q 1681 3072 1420 2755 
Q 1159 2438 1159 1844 
L 1159 0 
L 581 0 
L 581 3500 
L 1159 3500 
L 1159 2956 
Q 1341 3275 1631 3429 
Q 1922 3584 2338 3584 
Q 2397 3584 2469 3576 
Q 2541 3569 2628 3553 
L 2631 2963 
z
" transform="scale(0.015625)"/>
       <path id="DejaVuSans-61" d="M 2194 1759 
Q 1497 1759 1228 1600 
Q 959 1441 959 1056 
Q 959 750 1161 570 
Q 1363 391 1709 391 
Q 2188 391 2477 730 
Q 2766 1069 2766 1631 
L 2766 1759 
L 2194 1759 
z
M 3341 1997 
L 3341 0 
L 2766 0 
L 2766 531 
Q 2569 213 2275 61 
Q 1981 -91 1556 -91 
Q 1019 -91 701 211 
Q 384 513 384 1019 
Q 384 1609 779 1909 
Q 1175 2209 1959 2209 
L 2766 2209 
L 2766 2266 
Q 2766 2663 2505 2880 
Q 2244 3097 1772 3097 
Q 1472 3097 1187 3025 
Q 903 2953 641 2809 
L 641 3341 
Q 956 3463 1253 3523 
Q 1550 3584 1831 3584 
Q 2591 3584 2966 3190 
Q 3341 2797 3341 1997 
z
" transform="scale(0.015625)"/>
       <path id="DejaVuSans-6d" d="M 3328 2828 
Q 3544 3216 3844 3400 
Q 4144 3584 4550 3584 
Q 5097 3584 5394 3201 
Q 5691 2819 5691 2113 
L 5691 0 
L 5113 0 
L 5113 2094 
Q 5113 2597 4934 2840 
Q 4756 3084 4391 3084 
Q 3944 3084 3684 2787 
Q 3425 2491 3425 1978 
L 3425 0 
L 2847 0 
L 2847 2094 
Q 2847 2600 2669 2842 
Q 2491 3084 2119 3084 
Q 1678 3084 1418 2786 
Q 1159 2488 1159 1978 
L 1159 0 
L 581 0 
L 581 3500 
L 1159 3500 
L 1159 2956 
Q 1356 3278 1631 3431 
Q 1906 3584 2284 3584 
Q 2666 3584 2933 3390 
Q 3200 3197 3328 2828 
z
" transform="scale(0.015625)"/>
       <path id="DejaVuSans-65" d="M 3597 1894 
L 3597 1613 
L 953 1613 
Q 991 1019 1311 708 
Q 1631 397 2203 397 
Q 2534 397 2845 478 
Q 3156 559 3463 722 
L 3463 178 
Q 3153 47 2828 -22 
Q 2503 -91 2169 -91 
Q 1331 -91 842 396 
Q 353 884 353 1716 
Q 353 2575 817 3079 
Q 1281 3584 2069 3584 
Q 2775 3584 3186 3129 
Q 3597 2675 3597 1894 
z
M 3022 2063 
Q 3016 2534 2758 2815 
Q 2500 3097 2075 3097 
Q 1594 3097 1305 2825 
Q 1016 2553 972 2059 
L 3022 2063 
z
" transform="scale(0.015625)"/>
       <path id="DejaVuSans-20" transform="scale(0.015625)"/>
       <path id="DejaVuSans-6e" d="M 3513 2113 
L 3513 0 
L 2938 0 
L 2938 2094 
Q 2938 2591 2744 2837 
Q 2550 3084 2163 3084 
Q 1697 3084 1428 2787 
Q 1159 2491 1159 1978 
L 1159 0 
L 581 0 
L 581 3500 
L 1159 3500 
L 1159 2956 
Q 1366 3272 1645 3428 
Q 1925 3584 2291 3584 
Q 2894 3584 3203 3211 
Q 3513 2838 3513 2113 
z
" transform="scale(0.015625)"/>
       <path id="DejaVuSans-75" d="M 544 1381 
L 544 3500 
L 1119 3500 
L 1119 1403 
Q 1119 906 1312 657 
Q 1506 409 1894 409 
Q 2359 409 2629 706 
Q 2900 1003 2900 1516 
L 2900 3500 
L 3475 3500 
L 3475 0 
L 2900 0 
L 2900 538 
Q 2691 219 2414 64 
Q 2138 -91 1772 -91 
Q 1169 -91 856 284 
Q 544 659 544 1381 
z
M 1991 3584 
L 1991 3584 
z
" transform="scale(0.015625)"/>
       <path id="DejaVuSans-62" d="M 3116 1747 
Q 3116 2381 2855 2742 
Q 2594 3103 2138 3103 
Q 1681 3103 1420 2742 
Q 1159 2381 1159 1747 
Q 1159 1113 1420 752 
Q 1681 391 2138 391 
Q 2594 391 2855 752 
Q 3116 1113 3116 1747 
z
M 1159 2969 
Q 1341 3281 1617 3432 
Q 1894 3584 2278 3584 
Q 2916 3584 3314 3078 
Q 3713 2572 3713 1747 
Q 3713 922 3314 415 
Q 2916 -91 2278 -91 
Q 1894 -91 1617 61 
Q 1341 213 1159 525 
L 1159 0 
L 581 0 
L 581 4863 
L 1159 4863 
L 1159 2969 
z
" transform="scale(0.015625)"/>
      </defs>
      <use xlink:href="#DejaVuSans-46"/>
      <use xlink:href="#DejaVuSans-72" x="50.269531"/>
      <use xlink:href="#DejaVuSans-61" x="91.382812"/>
      <use xlink:href="#DejaVuSans-6d" x="152.662109"/>
      <use xlink:href="#DejaVuSans-65" x="250.074219"/>
      <use xlink:href="#DejaVuSans-20" x="311.597656"/>
      <use xlink:href="#DejaVuSans-6e" x="343.384766"/>
      <use xlink:href="#DejaVuSans-75" x="406.763672"/>
      <use xlink:href="#DejaVuSans-6d" x="470.142578"/>
      <use xlink:href="#DejaVuSans-62" x="567.554688"/>
      <use xlink:href="#DejaVuSans-65" x="631.03125"/>
      <use xlink:href="#DejaVuSans-72" x="692.554688"/>
     </g>
    </g>
   </g>
   <g id="matplotlib.axis_2">
    <g id="ytick_1">
     <g id="line2d_8">
      <defs>
       <path id="m1aa1d71217" d="M 0 0 
L -3.5 0 
" style="stroke: #000000; stroke-width: 0.8"/>
      </defs>
      <g>
       <use xlink:href="#m1aa1d71217" x="34.240625" y="235.15888" style="stroke: #000000; stroke-width: 0.8"/>
      </g>
     </g>
     <g id="text_9">
      <!-- 0 -->
      <g transform="translate(20.878125 238.958099) scale(0.1 -0.1)">
       <use xlink:href="#DejaVuSans-30"/>
      </g>
     </g>
    </g>
    <g id="ytick_2">
     <g id="line2d_9">
      <g>
       <use xlink:href="#m1aa1d71217" x="34.240625" y="188.728664" style="stroke: #000000; stroke-width: 0.8"/>
      </g>
     </g>
     <g id="text_10">
      <!-- 1 -->
      <g transform="translate(20.878125 192.527883) scale(0.1 -0.1)">
       <use xlink:href="#DejaVuSans-31"/>
      </g>
     </g>
    </g>
    <g id="ytick_3">
     <g id="line2d_10">
      <g>
       <use xlink:href="#m1aa1d71217" x="34.240625" y="142.298447" style="stroke: #000000; stroke-width: 0.8"/>
      </g>
     </g>
     <g id="text_11">
      <!-- 2 -->
      <g transform="translate(20.878125 146.097666) scale(0.1 -0.1)">
       <use xlink:href="#DejaVuSans-32"/>
      </g>
     </g>
    </g>
    <g id="ytick_4">
     <g id="line2d_11">
      <g>
       <use xlink:href="#m1aa1d71217" x="34.240625" y="95.868231" style="stroke: #000000; stroke-width: 0.8"/>
      </g>
     </g>
     <g id="text_12">
      <!-- 3 -->
      <g transform="translate(20.878125 99.66745) scale(0.1 -0.1)">
       <use xlink:href="#DejaVuSans-33"/>
      </g>
     </g>
    </g>
    <g id="ytick_5">
     <g id="line2d_12">
      <g>
       <use xlink:href="#m1aa1d71217" x="34.240625" y="49.438014" style="stroke: #000000; stroke-width: 0.8"/>
      </g>
     </g>
     <g id="text_13">
      <!-- 4 -->
      <g transform="translate(20.878125 53.237233) scale(0.1 -0.1)">
       <defs>
        <path id="DejaVuSans-34" d="M 2419 4116 
L 825 1625 
L 2419 1625 
L 2419 4116 
z
M 2253 4666 
L 3047 4666 
L 3047 1625 
L 3713 1625 
L 3713 1100 
L 3047 1100 
L 3047 0 
L 2419 0 
L 2419 1100 
L 313 1100 
L 313 1709 
L 2253 4666 
z
" transform="scale(0.015625)"/>
       </defs>
       <use xlink:href="#DejaVuSans-34"/>
      </g>
     </g>
    </g>
    <g id="text_14">
     <!-- Interval (ms) -->
     <g transform="translate(14.798437 165.312187) rotate(-90) scale(0.1 -0.1)">
      <defs>
       <path id="DejaVuSans-49" d="M 628 4666 
L 1259 4666 
L 1259 0 
L 628 0 
L 628 4666 
z
" transform="scale(0.015625)"/>
       <path id="DejaVuSans-74" d="M 1172 4494 
L 1172 3500 
L 2356 3500 
L 2356 3053 
L 1172 3053 
L 1172 1153 
Q 1172 725 1289 603 
Q 1406 481 1766 481 
L 2356 481 
L 2356 0 
L 1766 0 
Q 1100 0 847 248 
Q 594 497 594 1153 
L 594 3053 
L 172 3053 
L 172 3500 
L 594 3500 
L 594 4494 
L 1172 4494 
z
" transform="scale(0.015625)"/>
       <path id="DejaVuSans-76" d="M 191 3500 
L 800 3500 
L 1894 563 
L 2988 3500 
L 3597 3500 
L 2284 0 
L 1503 0 
L 191 3500 
z
" transform="scale(0.015625)"/>
       <path id="DejaVuSans-6c" d="M 603 4863 
L 1178 4863 
L 1178 0 
L 603 0 
L 603 4863 
z
" transform="scale(0.015625)"/>
       <path id="DejaVuSans-28" d="M 1984 4856 
Q 1566 4138 1362 3434 
Q 1159 2731 1159 2009 
Q 1159 1288 1364 580 
Q 1569 -128 1984 -844 
L 1484 -844 
Q 1016 -109 783 600 
Q 550 1309 550 2009 
Q 550 2706 781 3412 
Q 1013 4119 1484 4856 
L 1984 4856 
z
" transform="scale(0.015625)"/>
       <path id="DejaVuSans-73" d="M 2834 3397 
L 2834 2853 
Q 2591 2978 2328 3040 
Q 2066 3103 1784 3103 
Q 1356 3103 1142 2972 
Q 928 2841 928 2578 
Q 928 2378 1081 2264 
Q 1234 2150 1697 2047 
L 1894 2003 
Q 2506 1872 2764 1633 
Q 3022 1394 3022 966 
Q 3022 478 2636 193 
Q 2250 -91 1575 -91 
Q 1294 -91 989 -36 
Q 684 19 347 128 
L 347 722 
Q 666 556 975 473 
Q 1284 391 1588 391 
Q 1994 391 2212 530 
Q 2431 669 2431 922 
Q 2431 1156 2273 1281 
Q 2116 1406 1581 1522 
L 1381 1569 
Q 847 1681 609 1914 
Q 372 2147 372 2553 
Q 372 3047 722 3315 
Q 1072 3584 1716 3584 
Q 2034 3584 2315 3537 
Q 2597 3491 2834 3397 
z
" transform="scale(0.015625)"/>
       <path id="DejaVuSans-29" d="M 513 4856 
L 1013 4856 
Q 1481 4119 1714 3412 
Q 1947 2706 1947 2009 
Q 1947 1309 1714 600 
Q 1481 -109 1013 -844 
L 513 -844 
Q 928 -128 1133 580 
Q 1338 1288 1338 2009 
Q 1338 2731 1133 3434 
Q 928 4138 513 4856 
z
" transform="scale(0.015625)"/>
      </defs>
      <use xlink:href="#DejaVuSans-49"/>
      <use xlink:href="#DejaVuSans-6e" x="29.492188"/>
      <use xlink:href="#DejaVuSans-74" x="92.871094"/>
      <use xlink:href="#DejaVuSans-65" x="132.080078"/>
      <use xlink:href="#DejaVuSans-72" x="193.603516"/>
      <use xlink:href="#DejaVuSans-76" x="234.716797"/>
      <use xlink:href="#DejaVuSans-61" x="293.896484"/>
      <use xlink:href="#DejaVuSans-6c" x="355.175781"/>
      <use xlink:href="#DejaVuSans-20" x="382.958984"/>
      <use xlink:href="#DejaVuSans-28" x="414.746094"/>
      <use xlink:href="#DejaVuSans-6d" x="453.759766"/>
      <use xlink:href="#DejaVuSans-73" x="551.171875"/>
      <use xlink:href="#DejaVuSans-29" x="603.271484"/>
     </g>
    </g>
   </g>
   <g id="line2d_13">
    <path d="M 54.531534 184.921386 
L 55.888786 176.796098 
L 57.246037 195.275324 
L 58.603288 186.360723 
L 59.96054 186.500014 
L 61.317791 186.964316 
L 62.675043 186.639304 
L 64.032294 169.924426 
L 65.389546 191.978779 
L 66.746797 194.439581 
L 68.104049 184.828526 
L 69.4613 184.271363 
L 70.818551 186.592874 
L 72.175803 187.289327 
L 73.533054 185.014247 
L 74.890306 184.549944 
L 76.247557 185.66427 
L 77.604809 186.546444 
L 78.96206 184.828526 
L 80.319312 184.596375 
L 81.676563 185.75713 
L 83.033814 186.314293 
L 84.391066 184.271363 
L 85.748317 184.782096 
L 87.105569 184.549944 
L 88.46282 184.596375 
L 89.820072 183.807061 
L 91.177323 187.428618 
L 92.534575 184.364224 
L 93.891826 184.596375 
L 95.249077 184.457084 
L 96.606329 184.967816 
L 97.96358 185.339258 
L 99.320832 184.549944 
L 104.749838 184.457084 
L 106.107089 120.801257 
L 107.46434 233.348102 
L 108.821592 199.639765 
L 110.178843 184.364224 
L 114.250598 184.689235 
L 115.607849 184.503514 
L 119.679603 184.642805 
L 121.036855 184.410654 
L 122.394106 184.549944 
L 125.108609 184.457084 
L 126.465861 185.75713 
L 127.823112 184.596375 
L 130.537615 184.549944 
L 131.894866 173.406692 
L 133.252118 196.900382 
L 134.609369 184.549944 
L 135.966621 184.549944 
L 137.323872 184.364224 
L 138.681124 184.457084 
L 140.038375 184.410654 
L 141.395627 184.735665 
L 142.752878 184.224933 
L 144.110129 233.440962 
L 145.467381 186.221432 
L 146.824632 184.317793 
L 148.181884 184.596375 
L 152.253638 184.503514 
L 153.61089 187.057176 
L 154.968141 184.782096 
L 156.325392 184.549944 
L 157.682644 171.874495 
L 159.039895 198.52544 
L 160.397147 184.596375 
L 161.754398 184.549944 
L 163.11165 32.398125 
L 164.468901 233.440962 
L 165.826153 233.998125 
L 167.183404 233.951695 
L 168.540655 188.635803 
L 169.897907 184.457084 
L 171.255158 184.689235 
L 172.61241 168.67081 
L 173.969661 200.382648 
L 175.326913 184.596375 
L 176.684164 184.457084 
L 178.041416 184.549944 
L 179.398667 184.364224 
L 180.755918 184.782096 
L 182.11317 177.16754 
L 183.470421 191.793058 
L 184.827673 184.596375 
L 186.184924 185.153537 
L 187.542176 185.84999 
L 188.899427 184.410654 
L 190.256679 184.549944 
L 191.61393 176.378226 
L 192.971181 193.975278 
L 194.328433 184.364224 
L 195.685684 184.457084 
L 197.042936 186.500014 
L 198.400187 184.782096 
L 199.757439 185.989281 
L 201.11469 186.685734 
L 202.471942 186.407153 
L 203.829193 186.546444 
L 205.186444 186.917885 
L 206.543696 186.732165 
L 207.900947 184.596375 
L 209.258199 166.581451 
L 210.61545 204.514938 
L 211.972702 184.410654 
L 213.329953 184.642805 
L 214.687205 184.503514 
L 218.758959 184.410654 
L 220.11621 183.992782 
L 221.473462 184.596375 
L 222.830713 184.503514 
L 224.187965 173.731704 
L 225.545216 173.870995 
L 226.902468 207.765053 
L 228.259719 184.457084 
L 232.331473 184.596375 
L 233.688725 184.503514 
L 235.045976 83.796375 
L 236.403228 233.487393 
L 237.760479 233.951695 
L 239.117731 187.428618 
L 240.474982 184.549944 
L 241.832233 184.689235 
L 243.189485 184.271363 
L 244.546736 184.642805 
L 245.903988 184.364224 
L 247.261239 184.549944 
L 256.761999 184.549944 
L 258.119251 185.80356 
L 259.476502 184.457084 
L 260.833754 184.410654 
L 262.191005 184.549944 
L 264.905508 184.457084 
L 267.620011 184.596375 
L 268.977262 185.246398 
L 270.334514 184.596375 
L 271.691765 170.203008 
L 273.049017 198.943312 
L 274.406268 184.364224 
L 275.763519 184.642805 
L 279.835274 184.457084 
L 281.192525 164.167079 
L 282.549777 204.886379 
L 283.907028 184.549944 
L 285.26428 184.364224 
L 286.621531 184.735665 
L 289.336034 184.271363 
L 290.693285 184.457084 
L 292.050537 83.099921 
L 293.407788 233.440962 
L 294.76504 233.765974 
L 296.122291 188.867955 
L 297.479543 184.642805 
L 298.836794 184.410654 
L 300.194045 184.457084 
L 301.551297 185.66427 
L 302.908548 184.503514 
L 304.2658 183.899921 
L 305.623051 183.714201 
L 306.980303 165.188544 
L 308.337554 202.564868 
L 309.694806 183.807061 
L 311.052057 183.807061 
L 312.409308 183.482049 
L 313.76656 183.714201 
L 315.123811 183.714201 
L 316.481063 180.510516 
L 317.838314 187.010746 
L 319.195566 183.899921 
L 320.552817 185.75713 
L 321.910069 185.107107 
L 323.26732 183.110608 
L 324.624571 183.760631 
L 325.981823 183.853491 
L 327.339074 185.246398 
L 328.696326 183.946352 
L 330.053577 185.66427 
L 331.410829 184.921386 
L 332.76808 185.942851 
L 334.125332 184.317793 
L 335.482583 175.12461 
L 336.839834 194.25386 
L 338.197086 184.271363 
L 339.554337 169.552985 
L 340.911589 233.487393 
L 342.26884 201.032671 
L 343.626092 184.085642 
L 344.983343 184.457084 
L 349.055097 184.596375 
L 351.7696 184.457084 
L 353.126852 184.549944 
L 354.484103 168.206508 
L 355.841355 200.382648 
L 357.198606 184.364224 
L 358.555858 184.642805 
L 359.913109 184.503514 
L 361.27036 184.549944 
L 362.627612 184.364224 
L 363.984863 115.090341 
L 365.342115 233.394532 
L 366.699366 205.164961 
L 368.056618 184.642805 
L 369.413869 184.039212 
L 370.771121 184.364224 
L 373.485623 184.549944 
L 374.842875 184.410654 
L 376.200126 184.596375 
L 377.557378 184.503514 
L 378.914629 184.596375 
L 380.271881 184.317793 
L 381.629132 185.617839 
L 382.986384 185.75713 
L 384.343635 184.503514 
L 387.058138 184.457084 
L 388.415389 185.80356 
L 389.772641 184.457084 
L 391.129892 184.549944 
L 392.487144 184.503514 
L 393.844395 185.84999 
L 395.201647 184.410654 
L 396.558898 184.642805 
L 397.916149 184.503514 
L 399.273401 185.7107 
L 400.630652 184.410654 
L 401.987904 184.596375 
L 404.702407 184.224933 
L 406.059658 184.503514 
L 407.41691 184.457084 
L 408.774161 184.596375 
L 410.131412 177.771133 
L 411.488664 191.143035 
L 412.845915 185.896421 
L 414.203167 185.617839 
L 415.560418 186.267862 
L 416.91767 186.407153 
L 418.274921 184.967816 
L 419.632173 186.685734 
L 420.989424 81.428434 
L 422.346675 232.094486 
L 423.703927 232.790939 
L 425.061178 196.946812 
L 426.41843 184.410654 
L 427.775681 184.317793 
L 430.490184 184.642805 
L 431.847436 185.989281 
L 433.204687 186.175002 
L 434.561938 180.464085 
L 435.91919 190.818024 
L 437.276441 184.085642 
L 438.633693 184.596375 
L 441.348196 184.596375 
L 442.705447 168.345799 
L 444.062699 201.032671 
L 445.41995 184.364224 
L 446.777201 185.107107 
L 448.134453 186.825025 
L 449.491704 185.84999 
L 450.848956 184.735665 
L 452.206207 184.503514 
L 453.563459 186.500014 
L 454.92071 180.092644 
L 456.277962 188.728664 
L 457.635213 184.642805 
L 458.992464 185.478549 
L 460.349716 184.549944 
L 460.349716 184.549944 
" clip-path="url(#p4d910cd844)" style="fill: none; stroke: #1f77b4; stroke-opacity: 0.5; stroke-width: 1.5; stroke-linecap: square"/>
   </g>
   <g id="line2d_14">
    <path d="M 54.531534 184.596375 
L 55.888786 185.339258 
L 57.246037 186.639304 
L 58.603288 184.642805 
L 59.96054 186.592874 
L 61.317791 186.732165 
L 62.675043 186.732165 
L 64.032294 184.642805 
L 65.389546 185.80356 
L 66.746797 185.66427 
L 68.104049 184.735665 
L 69.4613 184.642805 
L 72.175803 187.80006 
L 73.533054 184.642805 
L 74.890306 184.596375 
L 76.247557 185.75713 
L 77.604809 186.546444 
L 78.96206 184.596375 
L 80.319312 184.596375 
L 81.676563 185.75713 
L 83.033814 186.360723 
L 84.391066 184.642805 
L 89.820072 184.549944 
L 91.177323 185.7107 
L 92.534575 184.503514 
L 95.249077 184.503514 
L 96.606329 185.80356 
L 97.96358 184.503514 
L 99.320832 184.596375 
L 100.678083 184.457084 
L 104.749838 184.503514 
L 106.107089 184.503514 
L 107.46434 184.642805 
L 110.178843 184.457084 
L 111.536095 184.596375 
L 112.893346 184.503514 
L 114.250598 184.642805 
L 122.394106 184.457084 
L 125.108609 184.549944 
L 126.465861 185.66427 
L 127.823112 184.596375 
L 130.537615 184.457084 
L 131.894866 185.75713 
L 133.252118 184.503514 
L 135.966621 184.549944 
L 137.323872 184.457084 
L 138.681124 184.549944 
L 142.752878 184.317793 
L 144.110129 184.549944 
L 145.467381 184.410654 
L 148.181884 184.596375 
L 149.539135 184.503514 
L 150.896387 184.549944 
L 152.253638 187.150037 
L 153.61089 184.596375 
L 156.325392 184.549944 
L 157.682644 185.942851 
L 159.039895 184.503514 
L 161.754398 184.596375 
L 165.826153 184.596375 
L 167.183404 184.039212 
L 168.540655 184.549944 
L 183.470421 184.503514 
L 184.827673 185.246398 
L 186.184924 185.7107 
L 187.542176 184.503514 
L 188.899427 184.549944 
L 190.256679 185.7107 
L 191.61393 184.457084 
L 194.328433 184.549944 
L 195.685684 186.546444 
L 197.042936 184.596375 
L 198.400187 185.989281 
L 199.757439 186.732165 
L 201.11469 186.407153 
L 202.471942 186.685734 
L 203.829193 186.778595 
L 205.186444 186.732165 
L 206.543696 184.642805 
L 207.900947 186.546444 
L 209.258199 184.549944 
L 216.044456 184.549944 
L 217.401707 183.946352 
L 218.758959 184.549944 
L 224.187965 184.549944 
L 225.545216 186.267862 
L 226.902468 184.549944 
L 228.259719 184.410654 
L 229.61697 184.549944 
L 235.045976 184.549944 
L 236.403228 185.107107 
L 237.760479 184.503514 
L 240.474982 184.642805 
L 243.189485 184.364224 
L 244.546736 184.549944 
L 248.618491 184.503514 
L 254.047496 184.596375 
L 255.404748 184.549944 
L 256.761999 185.66427 
L 258.119251 184.549944 
L 259.476502 184.410654 
L 262.191005 184.503514 
L 264.905508 184.549944 
L 266.262759 184.503514 
L 267.620011 185.339258 
L 268.977262 184.503514 
L 292.050537 184.549944 
L 293.407788 185.478549 
L 294.76504 184.457084 
L 296.122291 184.549944 
L 298.836794 184.503514 
L 300.194045 185.571409 
L 301.551297 184.457084 
L 302.908548 183.946352 
L 305.623051 183.760631 
L 306.980303 183.853491 
L 308.337554 183.807061 
L 309.694806 183.435619 
L 311.052057 183.853491 
L 312.409308 183.66777 
L 316.481063 183.853491 
L 317.838314 183.807061 
L 319.195566 185.75713 
L 320.552817 185.060677 
L 321.910069 183.157038 
L 323.26732 183.760631 
L 324.624571 183.899921 
L 325.981823 185.246398 
L 327.339074 183.899921 
L 328.696326 185.524979 
L 330.053577 185.060677 
L 331.410829 185.75713 
L 332.76808 184.549944 
L 335.482583 184.549944 
L 336.839834 183.946352 
L 338.197086 184.549944 
L 350.412349 184.503514 
L 351.7696 183.946352 
L 353.126852 184.596375 
L 357.198606 184.457084 
L 358.555858 184.549944 
L 362.627612 184.503514 
L 365.342115 184.596375 
L 366.699366 184.039212 
L 368.056618 184.503514 
L 370.771121 184.503514 
L 377.557378 184.503514 
L 378.914629 185.617839 
L 380.271881 185.617839 
L 381.629132 184.457084 
L 382.986384 184.549944 
L 384.343635 184.503514 
L 385.700886 185.7107 
L 387.058138 184.457084 
L 388.415389 184.596375 
L 389.772641 184.549944 
L 391.129892 185.75713 
L 392.487144 184.503514 
L 395.201647 184.549944 
L 396.558898 185.617839 
L 397.916149 184.549944 
L 399.273401 184.596375 
L 400.630652 184.457084 
L 401.987904 184.132072 
L 403.345155 184.503514 
L 407.41691 184.549944 
L 408.774161 184.503514 
L 410.131412 185.75713 
L 411.488664 185.66427 
L 412.845915 186.360723 
L 415.560418 186.407153 
L 416.91767 186.546444 
L 418.274921 186.360723 
L 419.632173 186.592874 
L 420.989424 185.75713 
L 422.346675 184.364224 
L 423.703927 184.503514 
L 427.775681 184.457084 
L 429.132933 185.80356 
L 430.490184 186.453583 
L 431.847436 186.546444 
L 433.204687 184.549944 
L 434.561938 184.317793 
L 435.91919 184.596375 
L 437.276441 184.410654 
L 438.633693 184.549944 
L 442.705447 184.457084 
L 444.062699 185.478549 
L 445.41995 186.035711 
L 446.777201 186.407153 
L 448.134453 184.689235 
L 449.491704 184.549944 
L 450.848956 186.592874 
L 452.206207 184.224933 
L 453.563459 184.503514 
L 454.92071 184.503514 
L 456.277962 185.66427 
L 457.635213 184.596375 
L 458.992464 184.457084 
L 460.349716 185.75713 
L 460.349716 185.75713 
" clip-path="url(#p4d910cd844)" style="fill: none; stroke: #ff7f0e; stroke-opacity: 0.5; stroke-width: 1.5; stroke-linecap: square"/>
   </g>
   <g id="patch_3">
    <path d="M 34.240625 244.078125 
L 34.240625 22.318125 
" style="fill: none; stroke: #000000; stroke-width: 0.8; stroke-linejoin: miter; stroke-linecap: square"/>
   </g>
   <g id="patch_4">
    <path d="M 480.640625 244.078125 
L 480.640625 22.318125 
" style="fill: none; stroke: #000000; stroke-width: 0.8; stroke-linejoin: miter; stroke-linecap: square"/>
   </g>
   <g id="patch_5">
    <path d="M 34.240625 244.078125 
L 480.640625 244.078125 
" style="fill: none; stroke: #000000; stroke-width: 0.8; stroke-linejoin: miter; stroke-linecap: square"/>
   </g>
   <g id="patch_6">
    <path d="M 34.240625 22.318125 
L 480.640625 22.318125 
" style="fill: none; stroke: #000000; stroke-width: 0.8; stroke-linejoin: miter; stroke-linecap: square"/>
   </g>
   <g id="text_15">
    <!-- Send and Receive Frame Intervals -->
    <g transform="translate(155.120938 16.318125) scale(0.12 -0.12)">
     <defs>
      <path id="DejaVuSans-53" d="M 3425 4513 
L 3425 3897 
Q 3066 4069 2747 4153 
Q 2428 4238 2131 4238 
Q 1616 4238 1336 4038 
Q 1056 3838 1056 3469 
Q 1056 3159 1242 3001 
Q 1428 2844 1947 2747 
L 2328 2669 
Q 3034 2534 3370 2195 
Q 3706 1856 3706 1288 
Q 3706 609 3251 259 
Q 2797 -91 1919 -91 
Q 1588 -91 1214 -16 
Q 841 59 441 206 
L 441 856 
Q 825 641 1194 531 
Q 1563 422 1919 422 
Q 2459 422 2753 634 
Q 3047 847 3047 1241 
Q 3047 1584 2836 1778 
Q 2625 1972 2144 2069 
L 1759 2144 
Q 1053 2284 737 2584 
Q 422 2884 422 3419 
Q 422 4038 858 4394 
Q 1294 4750 2059 4750 
Q 2388 4750 2728 4690 
Q 3069 4631 3425 4513 
z
" transform="scale(0.015625)"/>
      <path id="DejaVuSans-64" d="M 2906 2969 
L 2906 4863 
L 3481 4863 
L 3481 0 
L 2906 0 
L 2906 525 
Q 2725 213 2448 61 
Q 2172 -91 1784 -91 
Q 1150 -91 751 415 
Q 353 922 353 1747 
Q 353 2572 751 3078 
Q 1150 3584 1784 3584 
Q 2172 3584 2448 3432 
Q 2725 3281 2906 2969 
z
M 947 1747 
Q 947 1113 1208 752 
Q 1469 391 1925 391 
Q 2381 391 2643 752 
Q 2906 1113 2906 1747 
Q 2906 2381 2643 2742 
Q 2381 3103 1925 3103 
Q 1469 3103 1208 2742 
Q 947 2381 947 1747 
z
" transform="scale(0.015625)"/>
      <path id="DejaVuSans-52" d="M 2841 2188 
Q 3044 2119 3236 1894 
Q 3428 1669 3622 1275 
L 4263 0 
L 3584 0 
L 2988 1197 
Q 2756 1666 2539 1819 
Q 2322 1972 1947 1972 
L 1259 1972 
L 1259 0 
L 628 0 
L 628 4666 
L 2053 4666 
Q 2853 4666 3247 4331 
Q 3641 3997 3641 3322 
Q 3641 2881 3436 2590 
Q 3231 2300 2841 2188 
z
M 1259 4147 
L 1259 2491 
L 2053 2491 
Q 2509 2491 2742 2702 
Q 2975 2913 2975 3322 
Q 2975 3731 2742 3939 
Q 2509 4147 2053 4147 
L 1259 4147 
z
" transform="scale(0.015625)"/>
      <path id="DejaVuSans-63" d="M 3122 3366 
L 3122 2828 
Q 2878 2963 2633 3030 
Q 2388 3097 2138 3097 
Q 1578 3097 1268 2742 
Q 959 2388 959 1747 
Q 959 1106 1268 751 
Q 1578 397 2138 397 
Q 2388 397 2633 464 
Q 2878 531 3122 666 
L 3122 134 
Q 2881 22 2623 -34 
Q 2366 -91 2075 -91 
Q 1284 -91 818 406 
Q 353 903 353 1747 
Q 353 2603 823 3093 
Q 1294 3584 2113 3584 
Q 2378 3584 2631 3529 
Q 2884 3475 3122 3366 
z
" transform="scale(0.015625)"/>
      <path id="DejaVuSans-69" d="M 603 3500 
L 1178 3500 
L 1178 0 
L 603 0 
L 603 3500 
z
M 603 4863 
L 1178 4863 
L 1178 4134 
L 603 4134 
L 603 4863 
z
" transform="scale(0.015625)"/>
     </defs>
     <use xlink:href="#DejaVuSans-53"/>
     <use xlink:href="#DejaVuSans-65" x="63.476562"/>
     <use xlink:href="#DejaVuSans-6e" x="125"/>
     <use xlink:href="#DejaVuSans-64" x="188.378906"/>
     <use xlink:href="#DejaVuSans-20" x="251.855469"/>
     <use xlink:href="#DejaVuSans-61" x="283.642578"/>
     <use xlink:href="#DejaVuSans-6e" x="344.921875"/>
     <use xlink:href="#DejaVuSans-64" x="408.300781"/>
     <use xlink:href="#DejaVuSans-20" x="471.777344"/>
     <use xlink:href="#DejaVuSans-52" x="503.564453"/>
     <use xlink:href="#DejaVuSans-65" x="568.546875"/>
     <use xlink:href="#DejaVuSans-63" x="630.070312"/>
     <use xlink:href="#DejaVuSans-65" x="685.050781"/>
     <use xlink:href="#DejaVuSans-69" x="746.574219"/>
     <use xlink:href="#DejaVuSans-76" x="774.357422"/>
     <use xlink:href="#DejaVuSans-65" x="833.537109"/>
     <use xlink:href="#DejaVuSans-20" x="895.060547"/>
     <use xlink:href="#DejaVuSans-46" x="926.847656"/>
     <use xlink:href="#DejaVuSans-72" x="977.117188"/>
     <use xlink:href="#DejaVuSans-61" x="1018.230469"/>
     <use xlink:href="#DejaVuSans-6d" x="1079.509766"/>
     <use xlink:href="#DejaVuSans-65" x="1176.921875"/>
     <use xlink:href="#DejaVuSans-20" x="1238.445312"/>
     <use xlink:href="#DejaVuSans-49" x="1270.232422"/>
     <use xlink:href="#DejaVuSans-6e" x="1299.724609"/>
     <use xlink:href="#DejaVuSans-74" x="1363.103516"/>
     <use xlink:href="#DejaVuSans-65" x="1402.3125"/>
     <use xlink:href="#DejaVuSans-72" x="1463.835938"/>
     <use xlink:href="#DejaVuSans-76" x="1504.949219"/>
     <use xlink:href="#DejaVuSans-61" x="1564.128906"/>
     <use xlink:href="#DejaVuSans-6c" x="1625.408203"/>
     <use xlink:href="#DejaVuSans-73" x="1653.191406"/>
    </g>
   </g>
   <g id="legend_1">
    <g id="patch_7">
     <path d="M 417.592188 59.674375 
L 473.640625 59.674375 
Q 475.640625 59.674375 475.640625 57.674375 
L 475.640625 29.318125 
Q 475.640625 27.318125 473.640625 27.318125 
L 417.592188 27.318125 
Q 415.592188 27.318125 415.592188 29.318125 
L 415.592188 57.674375 
Q 415.592188 59.674375 417.592188 59.674375 
z
" style="fill: #ffffff; opacity: 0.8; stroke: #cccccc; stroke-linejoin: miter"/>
    </g>
    <g id="line2d_15">
     <path d="M 419.592188 35.416562 
L 429.592188 35.416562 
L 439.592188 35.416562 
" style="fill: none; stroke: #1f77b4; stroke-opacity: 0.5; stroke-width: 1.5; stroke-linecap: square"/>
    </g>
    <g id="text_16">
     <!-- recv -->
     <g transform="translate(447.592188 38.916562) scale(0.1 -0.1)">
      <use xlink:href="#DejaVuSans-72"/>
      <use xlink:href="#DejaVuSans-65" x="38.863281"/>
      <use xlink:href="#DejaVuSans-63" x="100.386719"/>
      <use xlink:href="#DejaVuSans-76" x="155.367188"/>
     </g>
    </g>
    <g id="line2d_16">
     <path d="M 419.592188 50.094687 
L 429.592188 50.094687 
L 439.592188 50.094687 
" style="fill: none; stroke: #ff7f0e; stroke-opacity: 0.5; stroke-width: 1.5; stroke-linecap: square"/>
    </g>
    <g id="text_17">
     <!-- send -->
     <g transform="translate(447.592188 53.594687) scale(0.1 -0.1)">
      <use xlink:href="#DejaVuSans-73"/>
      <use xlink:href="#DejaVuSans-65" x="52.099609"/>
      <use xlink:href="#DejaVuSans-6e" x="113.623047"/>
      <use xlink:href="#DejaVuSans-64" x="177.001953"/>
     </g>
    </g>
   </g>
  </g>
 </g>
 <defs>
  <clipPath id="p4d910cd844">
   <rect x="34.240625" y="22.318125" width="446.4" height="221.76"/>
  </clipPath>
 </defs>
</svg>
