<?xml version="1.0" encoding="utf-8" standalone="no"?>
<!DOCTYPE svg PUBLIC "-//W3C//DTD SVG 1.1//EN"
  "http://www.w3.org/Graphics/SVG/1.1/DTD/svg11.dtd">
<svg xmlns:xlink="http://www.w3.org/1999/xlink" width="605.803125pt" height="266.51625pt" viewBox="0 0 605.803125 266.51625" xmlns="http://www.w3.org/2000/svg" version="1.1">
 <metadata>
  <rdf:RDF xmlns:dc="http://purl.org/dc/elements/1.1/" xmlns:cc="http://creativecommons.org/ns#" xmlns:rdf="http://www.w3.org/1999/02/22-rdf-syntax-ns#">
   <cc:Work>
    <dc:type rdf:resource="http://purl.org/dc/dcmitype/StillImage"/>
    <dc:date>2024-12-12T18:41:38.741493</dc:date>
    <dc:format>image/svg+xml</dc:format>
    <dc:creator>
     <cc:Agent>
      <dc:title>Matplotlib v3.9.0, https://matplotlib.org/</dc:title>
     </cc:Agent>
    </dc:creator>
   </cc:Work>
  </rdf:RDF>
 </metadata>
 <defs>
  <style type="text/css">*{stroke-linejoin: round; stroke-linecap: butt}</style>
 </defs>
 <g id="figure_1">
  <g id="patch_1">
   <path d="M 0 266.51625 
L 605.803125 266.51625 
L 605.803125 0 
L 0 0 
z
" style="fill: #ffffff"/>
  </g>
  <g id="axes_1">
   <g id="patch_2">
    <path d="M 40.603125 228.96 
L 598.603125 228.96 
L 598.603125 7.2 
L 40.603125 7.2 
z
" style="fill: #ffffff"/>
   </g>
   <g id="patch_3">
    <path d="M 90.590625 228.96 
C 90.590625 208.51066 88.752211 188.877954 85.483299 174.418087 
C 82.214388 159.95822 77.776064 151.826087 73.153125 151.826087 
C 68.530186 151.826087 64.091862 159.95822 60.822951 174.418087 
C 57.554039 188.877954 55.715625 208.51066 55.715625 228.96 
" clip-path="url(#p3a5be25ed5)" style="fill: none; opacity: 0.6; stroke: #1b9e77; stroke-linejoin: miter"/>
   </g>
   <g id="patch_4">
    <path d="M 92.915625 228.96 
C 92.915625 202.120241 91.077211 176.352315 87.808299 157.373739 
C 84.539388 138.395164 80.101064 127.721739 75.478125 127.721739 
C 70.855186 127.721739 66.416862 138.395164 63.147951 157.373739 
C 59.879039 176.352315 58.040625 202.120241 58.040625 228.96 
" clip-path="url(#p3a5be25ed5)" style="fill: none; opacity: 0.6; stroke: #1b9e77; stroke-linejoin: miter"/>
   </g>
   <g id="patch_5">
    <path d="M 95.240625 228.96 
C 95.240625 202.120241 93.402211 176.352315 90.133299 157.373739 
C 86.864388 138.395164 82.426064 127.721739 77.803125 127.721739 
C 73.180186 127.721739 68.741862 138.395164 65.472951 157.373739 
C 62.204039 176.352315 60.365625 202.120241 60.365625 228.96 
" clip-path="url(#p3a5be25ed5)" style="fill: none; opacity: 0.6; stroke: #1b9e77; stroke-linejoin: miter"/>
   </g>
   <g id="patch_6">
    <path d="M 97.565625 228.96 
C 97.565625 200.842158 95.727211 173.847187 92.458299 153.96487 
C 89.189388 134.082553 84.751064 122.90087 80.128125 122.90087 
C 75.505186 122.90087 71.066862 134.082553 67.797951 153.96487 
C 64.529039 173.847187 62.690625 200.842158 62.690625 228.96 
" clip-path="url(#p3a5be25ed5)" style="fill: none; opacity: 0.6; stroke: #1b9e77; stroke-linejoin: miter"/>
   </g>
   <g id="patch_7">
    <path d="M 99.890625 228.96 
C 99.890625 198.28599 98.052211 168.836931 94.783299 147.147131 
C 91.514388 125.45733 87.076064 113.25913 82.453125 113.25913 
C 77.830186 113.25913 73.391862 125.45733 70.122951 147.147131 
C 66.854039 168.836931 65.015625 198.28599 65.015625 228.96 
" clip-path="url(#p3a5be25ed5)" style="fill: none; opacity: 0.6; stroke: #1b9e77; stroke-linejoin: miter"/>
   </g>
   <g id="patch_8">
    <path d="M 102.215625 228.96 
C 102.215625 195.729823 100.377211 163.826675 97.108299 140.329391 
C 93.839388 116.832108 89.401064 103.617391 84.778125 103.617391 
C 80.155186 103.617391 75.716862 116.832108 72.447951 140.329391 
C 69.179039 163.826675 67.340625 195.729823 67.340625 228.96 
" clip-path="url(#p3a5be25ed5)" style="fill: none; opacity: 0.6; stroke: #1b9e77; stroke-linejoin: miter"/>
   </g>
   <g id="patch_9">
    <path d="M 104.540625 228.96 
C 104.540625 195.729823 102.702211 163.826675 99.433299 140.329391 
C 96.164388 116.832108 91.726064 103.617391 87.103125 103.617391 
C 82.480186 103.617391 78.041862 116.832108 74.772951 140.329391 
C 71.504039 163.826675 69.665625 195.729823 69.665625 228.96 
" clip-path="url(#p3a5be25ed5)" style="fill: none; opacity: 0.6; stroke: #1b9e77; stroke-linejoin: miter"/>
   </g>
   <g id="patch_10">
    <path d="M 106.865625 228.96 
C 106.865625 189.339404 105.027211 151.301036 101.758299 123.285044 
C 98.489388 95.269051 94.051064 79.513043 89.428125 79.513043 
C 84.805186 79.513043 80.366862 95.269051 77.097951 123.285044 
C 73.829039 151.301036 71.990625 189.339404 71.990625 228.96 
" clip-path="url(#p3a5be25ed5)" style="fill: none; opacity: 0.6; stroke: #1b9e77; stroke-linejoin: miter"/>
   </g>
   <g id="patch_11">
    <path d="M 109.190625 228.96 
C 109.190625 189.339404 107.352211 151.301036 104.083299 123.285044 
C 100.814388 95.269051 96.376064 79.513043 91.753125 79.513043 
C 87.130186 79.513043 82.691862 95.269051 79.422951 123.285044 
C 76.154039 151.301036 74.315625 189.339404 74.315625 228.96 
" clip-path="url(#p3a5be25ed5)" style="fill: none; opacity: 0.6; stroke: #1b9e77; stroke-linejoin: miter"/>
   </g>
   <g id="patch_12">
    <path d="M 111.515625 228.96 
C 111.515625 189.339404 109.677211 151.301036 106.408299 123.285044 
C 103.139388 95.269051 98.701064 79.513043 94.078125 79.513043 
C 89.455186 79.513043 85.016862 95.269051 81.747951 123.285044 
C 78.479039 151.301036 76.640625 189.339404 76.640625 228.96 
" clip-path="url(#p3a5be25ed5)" style="fill: none; opacity: 0.6; stroke: #1b9e77; stroke-linejoin: miter"/>
   </g>
   <g id="patch_13">
    <path d="M 113.840625 228.96 
C 113.840625 185.505153 112.002211 143.785652 108.733299 113.058435 
C 105.464388 82.331218 101.026064 65.050435 96.403125 65.050435 
C 91.780186 65.050435 87.341862 82.331218 84.072951 113.058435 
C 80.804039 143.785652 78.965625 185.505153 78.965625 228.96 
" clip-path="url(#p3a5be25ed5)" style="fill: none; opacity: 0.6; stroke: #1b9e77; stroke-linejoin: miter"/>
   </g>
   <g id="patch_14">
    <path d="M 116.165625 228.96 
C 116.165625 184.227069 114.327211 141.280524 111.058299 109.649565 
C 107.789388 78.018607 103.351064 60.229565 98.728125 60.229565 
C 94.105186 60.229565 89.666862 78.018607 86.397951 109.649565 
C 83.129039 141.280524 81.290625 184.227069 81.290625 228.96 
" clip-path="url(#p3a5be25ed5)" style="fill: none; opacity: 0.6; stroke: #1b9e77; stroke-linejoin: miter"/>
   </g>
   <g id="patch_15">
    <path d="M 320.765625 228.96 
C 320.765625 200.842158 318.927211 173.847187 315.658299 153.96487 
C 312.389388 134.082553 307.951064 122.90087 303.328125 122.90087 
C 298.705186 122.90087 294.266862 134.082553 290.997951 153.96487 
C 287.729039 173.847187 285.890625 200.842158 285.890625 228.96 
" clip-path="url(#p3a5be25ed5)" style="fill: none; opacity: 0.6; stroke: #d95f02; stroke-linejoin: miter"/>
   </g>
   <g id="patch_16">
    <path d="M 323.090625 228.96 
C 323.090625 200.842158 321.252211 173.847187 317.983299 153.96487 
C 314.714388 134.082553 310.276064 122.90087 305.653125 122.90087 
C 301.030186 122.90087 296.591862 134.082553 293.322951 153.96487 
C 290.054039 173.847187 288.215625 200.842158 288.215625 228.96 
" clip-path="url(#p3a5be25ed5)" style="fill: none; opacity: 0.6; stroke: #d95f02; stroke-linejoin: miter"/>
   </g>
   <g id="patch_17">
    <path d="M 325.415625 228.96 
C 325.415625 200.842158 323.577211 173.847187 320.308299 153.96487 
C 317.039388 134.082553 312.601064 122.90087 307.978125 122.90087 
C 303.355186 122.90087 298.916862 134.082553 295.647951 153.96487 
C 292.379039 173.847187 290.540625 200.842158 290.540625 228.96 
" clip-path="url(#p3a5be25ed5)" style="fill: none; opacity: 0.6; stroke: #d95f02; stroke-linejoin: miter"/>
   </g>
   <g id="patch_18">
    <path d="M 327.740625 228.96 
C 327.740625 199.564074 325.902211 171.342059 322.633299 150.556 
C 319.364388 129.769941 314.926064 118.08 310.303125 118.08 
C 305.680186 118.08 301.241862 129.769941 297.972951 150.556 
C 294.704039 171.342059 292.865625 199.564074 292.865625 228.96 
" clip-path="url(#p3a5be25ed5)" style="fill: none; opacity: 0.6; stroke: #d95f02; stroke-linejoin: miter"/>
   </g>
   <g id="patch_19">
    <path d="M 330.065625 228.96 
C 330.065625 199.564074 328.227211 171.342059 324.958299 150.556 
C 321.689388 129.769941 317.251064 118.08 312.628125 118.08 
C 308.005186 118.08 303.566862 129.769941 300.297951 150.556 
C 297.029039 171.342059 295.190625 199.564074 295.190625 228.96 
" clip-path="url(#p3a5be25ed5)" style="fill: none; opacity: 0.6; stroke: #d95f02; stroke-linejoin: miter"/>
   </g>
   <g id="patch_20">
    <path d="M 332.390625 228.96 
C 332.390625 198.28599 330.552211 168.836931 327.283299 147.147131 
C 324.014388 125.45733 319.576064 113.25913 314.953125 113.25913 
C 310.330186 113.25913 305.891862 125.45733 302.622951 147.147131 
C 299.354039 168.836931 297.515625 198.28599 297.515625 228.96 
" clip-path="url(#p3a5be25ed5)" style="fill: none; opacity: 0.6; stroke: #d95f02; stroke-linejoin: miter"/>
   </g>
   <g id="patch_21">
    <path d="M 334.715625 228.96 
C 334.715625 198.28599 332.877211 168.836931 329.608299 147.147131 
C 326.339388 125.45733 321.901064 113.25913 317.278125 113.25913 
C 312.655186 113.25913 308.216862 125.45733 304.947951 147.147131 
C 301.679039 168.836931 299.840625 198.28599 299.840625 228.96 
" clip-path="url(#p3a5be25ed5)" style="fill: none; opacity: 0.6; stroke: #d95f02; stroke-linejoin: miter"/>
   </g>
   <g id="patch_22">
    <path d="M 337.040625 228.96 
C 337.040625 190.617488 335.202211 153.806164 331.933299 126.693913 
C 328.664388 99.581663 324.226064 84.333913 319.603125 84.333913 
C 314.980186 84.333913 310.541862 99.581663 307.272951 126.693913 
C 304.004039 153.806164 302.165625 190.617488 302.165625 228.96 
" clip-path="url(#p3a5be25ed5)" style="fill: none; opacity: 0.6; stroke: #d95f02; stroke-linejoin: miter"/>
   </g>
   <g id="patch_23">
    <path d="M 339.365625 228.96 
C 339.365625 190.617488 337.527211 153.806164 334.258299 126.693913 
C 330.989388 99.581663 326.551064 84.333913 321.928125 84.333913 
C 317.305186 84.333913 312.866862 99.581663 309.597951 126.693913 
C 306.329039 153.806164 304.490625 190.617488 304.490625 228.96 
" clip-path="url(#p3a5be25ed5)" style="fill: none; opacity: 0.6; stroke: #d95f02; stroke-linejoin: miter"/>
   </g>
   <g id="patch_24">
    <path d="M 341.690625 228.96 
C 341.690625 190.617488 339.852211 153.806164 336.583299 126.693913 
C 333.314388 99.581663 328.876064 84.333913 324.253125 84.333913 
C 319.630186 84.333913 315.191862 99.581663 311.922951 126.693913 
C 308.654039 153.806164 306.815625 190.617488 306.815625 228.96 
" clip-path="url(#p3a5be25ed5)" style="fill: none; opacity: 0.6; stroke: #d95f02; stroke-linejoin: miter"/>
   </g>
   <g id="patch_25">
    <path d="M 344.015625 228.96 
C 344.015625 189.339404 342.177211 151.301036 338.908299 123.285044 
C 335.639388 95.269051 331.201064 79.513043 326.578125 79.513043 
C 321.955186 79.513043 317.516862 95.269051 314.247951 123.285044 
C 310.979039 151.301036 309.140625 189.339404 309.140625 228.96 
" clip-path="url(#p3a5be25ed5)" style="fill: none; opacity: 0.6; stroke: #d95f02; stroke-linejoin: miter"/>
   </g>
   <g id="patch_26">
    <path d="M 346.340625 228.96 
C 346.340625 189.339404 344.502211 151.301036 341.233299 123.285044 
C 337.964388 95.269051 333.526064 79.513043 328.903125 79.513043 
C 324.280186 79.513043 319.841862 95.269051 316.572951 123.285044 
C 313.304039 151.301036 311.465625 189.339404 311.465625 228.96 
" clip-path="url(#p3a5be25ed5)" style="fill: none; opacity: 0.6; stroke: #d95f02; stroke-linejoin: miter"/>
   </g>
   <g id="patch_27">
    <path d="M 348.665625 228.96 
C 348.665625 186.783236 346.827211 146.29078 343.558299 116.467304 
C 340.289388 86.643829 335.851064 69.871304 331.228125 69.871304 
C 326.605186 69.871304 322.166862 86.643829 318.897951 116.467304 
C 315.629039 146.29078 313.790625 186.783236 313.790625 228.96 
" clip-path="url(#p3a5be25ed5)" style="fill: none; opacity: 0.6; stroke: #d95f02; stroke-linejoin: miter"/>
   </g>
   <g id="patch_28">
    <path d="M 350.990625 228.96 
C 350.990625 185.505153 349.152211 143.785652 345.883299 113.058435 
C 342.614388 82.331218 338.176064 65.050435 333.553125 65.050435 
C 328.930186 65.050435 324.491862 82.331218 321.222951 113.058435 
C 317.954039 143.785652 316.115625 185.505153 316.115625 228.96 
" clip-path="url(#p3a5be25ed5)" style="fill: none; opacity: 0.6; stroke: #d95f02; stroke-linejoin: miter"/>
   </g>
   <g id="patch_29">
    <path d="M 475.378125 228.96 
C 475.378125 204.676409 473.539711 181.36257 470.270799 164.191478 
C 467.001888 147.020386 462.563564 137.363478 457.940625 137.363478 
C 453.317686 137.363478 448.879362 147.020386 445.610451 164.191478 
C 442.341539 181.36257 440.503125 204.676409 440.503125 228.96 
" clip-path="url(#p3a5be25ed5)" style="fill: none; opacity: 0.6; stroke: #e7298a; stroke-linejoin: miter"/>
   </g>
   <g id="patch_30">
    <path d="M 521.878125 228.96 
C 521.878125 202.120241 520.039711 176.352315 516.770799 157.373739 
C 513.501888 138.395164 509.063564 127.721739 504.440625 127.721739 
C 499.817686 127.721739 495.379362 138.395164 492.110451 157.373739 
C 488.841539 176.352315 487.003125 202.120241 487.003125 228.96 
" clip-path="url(#p3a5be25ed5)" style="fill: none; opacity: 0.6; stroke: #e6ab02; stroke-linejoin: miter"/>
   </g>
   <g id="patch_31">
    <path d="M 548.615625 228.96 
C 548.615625 204.676409 546.777211 181.36257 543.508299 164.191478 
C 540.239388 147.020386 535.801064 137.363478 531.178125 137.363478 
C 526.555186 137.363478 522.116862 147.020386 518.847951 164.191478 
C 515.579039 181.36257 513.740625 204.676409 513.740625 228.96 
" clip-path="url(#p3a5be25ed5)" style="fill: none; opacity: 0.6; stroke: #66a61e; stroke-linejoin: miter"/>
   </g>
   <g id="patch_32">
    <path d="M 550.940625 228.96 
C 550.940625 198.28599 549.102211 168.836931 545.833299 147.147131 
C 542.564388 125.45733 538.126064 113.25913 533.503125 113.25913 
C 528.880186 113.25913 524.441862 125.45733 521.172951 147.147131 
C 517.904039 168.836931 516.065625 198.28599 516.065625 228.96 
" clip-path="url(#p3a5be25ed5)" style="fill: none; opacity: 0.6; stroke: #66a61e; stroke-linejoin: miter"/>
   </g>
   <g id="patch_33">
    <path d="M 553.265625 228.96 
C 553.265625 198.28599 551.427211 168.836931 548.158299 147.147131 
C 544.889388 125.45733 540.451064 113.25913 535.828125 113.25913 
C 531.205186 113.25913 526.766862 125.45733 523.497951 147.147131 
C 520.229039 168.836931 518.390625 198.28599 518.390625 228.96 
" clip-path="url(#p3a5be25ed5)" style="fill: none; opacity: 0.6; stroke: #66a61e; stroke-linejoin: miter"/>
   </g>
   <g id="patch_34">
    <path d="M 555.590625 228.96 
C 555.590625 197.007906 553.752211 166.331803 550.483299 143.738261 
C 547.214388 121.144719 542.776064 108.438261 538.153125 108.438261 
C 533.530186 108.438261 529.091862 121.144719 525.822951 143.738261 
C 522.554039 166.331803 520.715625 197.007906 520.715625 228.96 
" clip-path="url(#p3a5be25ed5)" style="fill: none; opacity: 0.6; stroke: #66a61e; stroke-linejoin: miter"/>
   </g>
   <g id="patch_35">
    <path d="M 557.915625 228.96 
C 557.915625 197.007906 556.077211 166.331803 552.808299 143.738261 
C 549.539388 121.144719 545.101064 108.438261 540.478125 108.438261 
C 535.855186 108.438261 531.416862 121.144719 528.147951 143.738261 
C 524.879039 166.331803 523.040625 197.007906 523.040625 228.96 
" clip-path="url(#p3a5be25ed5)" style="fill: none; opacity: 0.6; stroke: #66a61e; stroke-linejoin: miter"/>
   </g>
   <g id="patch_36">
    <path d="M 560.240625 228.96 
C 560.240625 197.007906 558.402211 166.331803 555.133299 143.738261 
C 551.864388 121.144719 547.426064 108.438261 542.803125 108.438261 
C 538.180186 108.438261 533.741862 121.144719 530.472951 143.738261 
C 527.204039 166.331803 525.365625 197.007906 525.365625 228.96 
" clip-path="url(#p3a5be25ed5)" style="fill: none; opacity: 0.6; stroke: #66a61e; stroke-linejoin: miter"/>
   </g>
   <g id="patch_37">
    <path d="M 562.565625 228.96 
C 562.565625 197.007906 560.727211 166.331803 557.458299 143.738261 
C 554.189388 121.144719 549.751064 108.438261 545.128125 108.438261 
C 540.505186 108.438261 536.066862 121.144719 532.797951 143.738261 
C 529.529039 166.331803 527.690625 197.007906 527.690625 228.96 
" clip-path="url(#p3a5be25ed5)" style="fill: none; opacity: 0.6; stroke: #66a61e; stroke-linejoin: miter"/>
   </g>
   <g id="patch_38">
    <path d="M 564.890625 228.96 
C 564.890625 195.729823 563.052211 163.826675 559.783299 140.329391 
C 556.514388 116.832108 552.076064 103.617391 547.453125 103.617391 
C 542.830186 103.617391 538.391862 116.832108 535.122951 140.329391 
C 531.854039 163.826675 530.015625 195.729823 530.015625 228.96 
" clip-path="url(#p3a5be25ed5)" style="fill: none; opacity: 0.6; stroke: #66a61e; stroke-linejoin: miter"/>
   </g>
   <g id="patch_39">
    <path d="M 567.215625 228.96 
C 567.215625 195.729823 565.377211 163.826675 562.108299 140.329391 
C 558.839388 116.832108 554.401064 103.617391 549.778125 103.617391 
C 545.155186 103.617391 540.716862 116.832108 537.447951 140.329391 
C 534.179039 163.826675 532.340625 195.729823 532.340625 228.96 
" clip-path="url(#p3a5be25ed5)" style="fill: none; opacity: 0.6; stroke: #66a61e; stroke-linejoin: miter"/>
   </g>
   <g id="patch_40">
    <path d="M 569.540625 228.96 
C 569.540625 194.451739 567.702211 161.321547 564.433299 136.920522 
C 561.164388 112.519496 556.726064 98.796522 552.103125 98.796522 
C 547.480186 98.796522 543.041862 112.519496 539.772951 136.920522 
C 536.504039 161.321547 534.665625 194.451739 534.665625 228.96 
" clip-path="url(#p3a5be25ed5)" style="fill: none; opacity: 0.6; stroke: #66a61e; stroke-linejoin: miter"/>
   </g>
   <g id="patch_41">
    <path d="M 571.865625 228.96 
C 571.865625 194.451739 570.027211 161.321547 566.758299 136.920522 
C 563.489388 112.519496 559.051064 98.796522 554.428125 98.796522 
C 549.805186 98.796522 545.366862 112.519496 542.097951 136.920522 
C 538.829039 161.321547 536.990625 194.451739 536.990625 228.96 
" clip-path="url(#p3a5be25ed5)" style="fill: none; opacity: 0.6; stroke: #66a61e; stroke-linejoin: miter"/>
   </g>
   <g id="patch_42">
    <path d="M 574.190625 228.96 
C 574.190625 189.339404 572.352211 151.301036 569.083299 123.285044 
C 565.814388 95.269051 561.376064 79.513043 556.753125 79.513043 
C 552.130186 79.513043 547.691862 95.269051 544.422951 123.285044 
C 541.154039 151.301036 539.315625 189.339404 539.315625 228.96 
" clip-path="url(#p3a5be25ed5)" style="fill: none; opacity: 0.6; stroke: #66a61e; stroke-linejoin: miter"/>
   </g>
   <g id="patch_43">
    <path d="M 576.515625 228.96 
C 576.515625 189.339404 574.677211 151.301036 571.408299 123.285044 
C 568.139388 95.269051 563.701064 79.513043 559.078125 79.513043 
C 554.455186 79.513043 550.016862 95.269051 546.747951 123.285044 
C 543.479039 151.301036 541.640625 189.339404 541.640625 228.96 
" clip-path="url(#p3a5be25ed5)" style="fill: none; opacity: 0.6; stroke: #66a61e; stroke-linejoin: miter"/>
   </g>
   <g id="patch_44">
    <path d="M 578.840625 228.96 
C 578.840625 188.06132 577.002211 148.795908 573.733299 119.876174 
C 570.464388 90.95644 566.026064 74.692174 561.403125 74.692174 
C 556.780186 74.692174 552.341862 90.95644 549.072951 119.876174 
C 545.804039 148.795908 543.965625 188.06132 543.965625 228.96 
" clip-path="url(#p3a5be25ed5)" style="fill: none; opacity: 0.6; stroke: #66a61e; stroke-linejoin: miter"/>
   </g>
   <g id="patch_45">
    <path d="M 581.165625 228.96 
C 581.165625 188.06132 579.327211 148.795908 576.058299 119.876174 
C 572.789388 90.95644 568.351064 74.692174 563.728125 74.692174 
C 559.105186 74.692174 554.666862 90.95644 551.397951 119.876174 
C 548.129039 148.795908 546.290625 188.06132 546.290625 228.96 
" clip-path="url(#p3a5be25ed5)" style="fill: none; opacity: 0.6; stroke: #66a61e; stroke-linejoin: miter"/>
   </g>
   <g id="patch_46">
    <path d="M 583.490625 228.96 
C 583.490625 186.783236 581.652211 146.29078 578.383299 116.467304 
C 575.114388 86.643829 570.676064 69.871304 566.053125 69.871304 
C 561.430186 69.871304 556.991862 86.643829 553.722951 116.467304 
C 550.454039 146.29078 548.615625 186.783236 548.615625 228.96 
" clip-path="url(#p3a5be25ed5)" style="fill: none; opacity: 0.6; stroke: #66a61e; stroke-linejoin: miter"/>
   </g>
   <g id="patch_47">
    <path d="M 585.815625 228.96 
C 585.815625 186.783236 583.977211 146.29078 580.708299 116.467304 
C 577.439388 86.643829 573.001064 69.871304 568.378125 69.871304 
C 563.755186 69.871304 559.316862 86.643829 556.047951 116.467304 
C 552.779039 146.29078 550.940625 186.783236 550.940625 228.96 
" clip-path="url(#p3a5be25ed5)" style="fill: none; opacity: 0.6; stroke: #66a61e; stroke-linejoin: miter"/>
   </g>
   <g id="patch_48">
    <path d="M 588.140625 228.96 
C 588.140625 186.783236 586.302211 146.29078 583.033299 116.467304 
C 579.764388 86.643829 575.326064 69.871304 570.703125 69.871304 
C 566.080186 69.871304 561.641862 86.643829 558.372951 116.467304 
C 555.104039 146.29078 553.265625 186.783236 553.265625 228.96 
" clip-path="url(#p3a5be25ed5)" style="fill: none; opacity: 0.6; stroke: #66a61e; stroke-linejoin: miter"/>
   </g>
   <g id="matplotlib.axis_1">
    <g id="xtick_1">
     <g id="line2d_1">
      <path d="M 87.103125 228.96 
L 87.103125 7.2 
" clip-path="url(#p3a5be25ed5)" style="fill: none; stroke-dasharray: 2.96,1.28; stroke-dashoffset: 0; stroke: #b0b0b0; stroke-opacity: 0.6; stroke-width: 0.8"/>
     </g>
     <g id="line2d_2">
      <defs>
       <path id="mcf0851120f" d="M 0 0 
L 0 3.5 
" style="stroke: #000000; stroke-width: 0.8"/>
      </defs>
      <g>
       <use xlink:href="#mcf0851120f" x="87.103125" y="228.96" style="stroke: #000000; stroke-width: 0.8"/>
      </g>
     </g>
     <g id="text_1">
      <!-- 1 -->
      <g transform="translate(83.921875 243.558437) scale(0.1 -0.1)">
       <defs>
        <path id="DejaVuSans-31" d="M 794 531 
L 1825 531 
L 1825 4091 
L 703 3866 
L 703 4441 
L 1819 4666 
L 2450 4666 
L 2450 531 
L 3481 531 
L 3481 0 
L 794 0 
L 794 531 
z
" transform="scale(0.015625)"/>
       </defs>
       <use xlink:href="#DejaVuSans-31"/>
      </g>
     </g>
    </g>
    <g id="xtick_2">
     <g id="line2d_3">
      <path d="M 133.603125 228.96 
L 133.603125 7.2 
" clip-path="url(#p3a5be25ed5)" style="fill: none; stroke-dasharray: 2.96,1.28; stroke-dashoffset: 0; stroke: #b0b0b0; stroke-opacity: 0.6; stroke-width: 0.8"/>
     </g>
     <g id="line2d_4">
      <g>
       <use xlink:href="#mcf0851120f" x="133.603125" y="228.96" style="stroke: #000000; stroke-width: 0.8"/>
      </g>
     </g>
     <g id="text_2">
      <!-- 2 -->
      <g transform="translate(130.421875 243.558437) scale(0.1 -0.1)">
       <defs>
        <path id="DejaVuSans-32" d="M 1228 531 
L 3431 531 
L 3431 0 
L 469 0 
L 469 531 
Q 828 903 1448 1529 
Q 2069 2156 2228 2338 
Q 2531 2678 2651 2914 
Q 2772 3150 2772 3378 
Q 2772 3750 2511 3984 
Q 2250 4219 1831 4219 
Q 1534 4219 1204 4116 
Q 875 4013 500 3803 
L 500 4441 
Q 881 4594 1212 4672 
Q 1544 4750 1819 4750 
Q 2544 4750 2975 4387 
Q 3406 4025 3406 3419 
Q 3406 3131 3298 2873 
Q 3191 2616 2906 2266 
Q 2828 2175 2409 1742 
Q 1991 1309 1228 531 
z
" transform="scale(0.015625)"/>
       </defs>
       <use xlink:href="#DejaVuSans-32"/>
      </g>
     </g>
    </g>
    <g id="xtick_3">
     <g id="line2d_5">
      <path d="M 180.103125 228.96 
L 180.103125 7.2 
" clip-path="url(#p3a5be25ed5)" style="fill: none; stroke-dasharray: 2.96,1.28; stroke-dashoffset: 0; stroke: #b0b0b0; stroke-opacity: 0.6; stroke-width: 0.8"/>
     </g>
     <g id="line2d_6">
      <g>
       <use xlink:href="#mcf0851120f" x="180.103125" y="228.96" style="stroke: #000000; stroke-width: 0.8"/>
      </g>
     </g>
     <g id="text_3">
      <!-- 3 -->
      <g transform="translate(176.921875 243.558437) scale(0.1 -0.1)">
       <defs>
        <path id="DejaVuSans-33" d="M 2597 2516 
Q 3050 2419 3304 2112 
Q 3559 1806 3559 1356 
Q 3559 666 3084 287 
Q 2609 -91 1734 -91 
Q 1441 -91 1130 -33 
Q 819 25 488 141 
L 488 750 
Q 750 597 1062 519 
Q 1375 441 1716 441 
Q 2309 441 2620 675 
Q 2931 909 2931 1356 
Q 2931 1769 2642 2001 
Q 2353 2234 1838 2234 
L 1294 2234 
L 1294 2753 
L 1863 2753 
Q 2328 2753 2575 2939 
Q 2822 3125 2822 3475 
Q 2822 3834 2567 4026 
Q 2313 4219 1838 4219 
Q 1578 4219 1281 4162 
Q 984 4106 628 3988 
L 628 4550 
Q 988 4650 1302 4700 
Q 1616 4750 1894 4750 
Q 2613 4750 3031 4423 
Q 3450 4097 3450 3541 
Q 3450 3153 3228 2886 
Q 3006 2619 2597 2516 
z
" transform="scale(0.015625)"/>
       </defs>
       <use xlink:href="#DejaVuSans-33"/>
      </g>
     </g>
    </g>
    <g id="xtick_4">
     <g id="line2d_7">
      <path d="M 226.603125 228.96 
L 226.603125 7.2 
" clip-path="url(#p3a5be25ed5)" style="fill: none; stroke-dasharray: 2.96,1.28; stroke-dashoffset: 0; stroke: #b0b0b0; stroke-opacity: 0.6; stroke-width: 0.8"/>
     </g>
     <g id="line2d_8">
      <g>
       <use xlink:href="#mcf0851120f" x="226.603125" y="228.96" style="stroke: #000000; stroke-width: 0.8"/>
      </g>
     </g>
     <g id="text_4">
      <!-- 4 -->
      <g transform="translate(223.421875 243.558437) scale(0.1 -0.1)">
       <defs>
        <path id="DejaVuSans-34" d="M 2419 4116 
L 825 1625 
L 2419 1625 
L 2419 4116 
z
M 2253 4666 
L 3047 4666 
L 3047 1625 
L 3713 1625 
L 3713 1100 
L 3047 1100 
L 3047 0 
L 2419 0 
L 2419 1100 
L 313 1100 
L 313 1709 
L 2253 4666 
z
" transform="scale(0.015625)"/>
       </defs>
       <use xlink:href="#DejaVuSans-34"/>
      </g>
     </g>
    </g>
    <g id="xtick_5">
     <g id="line2d_9">
      <path d="M 273.103125 228.96 
L 273.103125 7.2 
" clip-path="url(#p3a5be25ed5)" style="fill: none; stroke-dasharray: 2.96,1.28; stroke-dashoffset: 0; stroke: #b0b0b0; stroke-opacity: 0.6; stroke-width: 0.8"/>
     </g>
     <g id="line2d_10">
      <g>
       <use xlink:href="#mcf0851120f" x="273.103125" y="228.96" style="stroke: #000000; stroke-width: 0.8"/>
      </g>
     </g>
     <g id="text_5">
      <!-- 5 -->
      <g transform="translate(269.921875 243.558437) scale(0.1 -0.1)">
       <defs>
        <path id="DejaVuSans-35" d="M 691 4666 
L 3169 4666 
L 3169 4134 
L 1269 4134 
L 1269 2991 
Q 1406 3038 1543 3061 
Q 1681 3084 1819 3084 
Q 2600 3084 3056 2656 
Q 3513 2228 3513 1497 
Q 3513 744 3044 326 
Q 2575 -91 1722 -91 
Q 1428 -91 1123 -41 
Q 819 9 494 109 
L 494 744 
Q 775 591 1075 516 
Q 1375 441 1709 441 
Q 2250 441 2565 725 
Q 2881 1009 2881 1497 
Q 2881 1984 2565 2268 
Q 2250 2553 1709 2553 
Q 1456 2553 1204 2497 
Q 953 2441 691 2322 
L 691 4666 
z
" transform="scale(0.015625)"/>
       </defs>
       <use xlink:href="#DejaVuSans-35"/>
      </g>
     </g>
    </g>
    <g id="xtick_6">
     <g id="line2d_11">
      <path d="M 319.603125 228.96 
L 319.603125 7.2 
" clip-path="url(#p3a5be25ed5)" style="fill: none; stroke-dasharray: 2.96,1.28; stroke-dashoffset: 0; stroke: #b0b0b0; stroke-opacity: 0.6; stroke-width: 0.8"/>
     </g>
     <g id="line2d_12">
      <g>
       <use xlink:href="#mcf0851120f" x="319.603125" y="228.96" style="stroke: #000000; stroke-width: 0.8"/>
      </g>
     </g>
     <g id="text_6">
      <!-- 6 -->
      <g transform="translate(316.421875 243.558437) scale(0.1 -0.1)">
       <defs>
        <path id="DejaVuSans-36" d="M 2113 2584 
Q 1688 2584 1439 2293 
Q 1191 2003 1191 1497 
Q 1191 994 1439 701 
Q 1688 409 2113 409 
Q 2538 409 2786 701 
Q 3034 994 3034 1497 
Q 3034 2003 2786 2293 
Q 2538 2584 2113 2584 
z
M 3366 4563 
L 3366 3988 
Q 3128 4100 2886 4159 
Q 2644 4219 2406 4219 
Q 1781 4219 1451 3797 
Q 1122 3375 1075 2522 
Q 1259 2794 1537 2939 
Q 1816 3084 2150 3084 
Q 2853 3084 3261 2657 
Q 3669 2231 3669 1497 
Q 3669 778 3244 343 
Q 2819 -91 2113 -91 
Q 1303 -91 875 529 
Q 447 1150 447 2328 
Q 447 3434 972 4092 
Q 1497 4750 2381 4750 
Q 2619 4750 2861 4703 
Q 3103 4656 3366 4563 
z
" transform="scale(0.015625)"/>
       </defs>
       <use xlink:href="#DejaVuSans-36"/>
      </g>
     </g>
    </g>
    <g id="xtick_7">
     <g id="line2d_13">
      <path d="M 366.103125 228.96 
L 366.103125 7.2 
" clip-path="url(#p3a5be25ed5)" style="fill: none; stroke-dasharray: 2.96,1.28; stroke-dashoffset: 0; stroke: #b0b0b0; stroke-opacity: 0.6; stroke-width: 0.8"/>
     </g>
     <g id="line2d_14">
      <g>
       <use xlink:href="#mcf0851120f" x="366.103125" y="228.96" style="stroke: #000000; stroke-width: 0.8"/>
      </g>
     </g>
     <g id="text_7">
      <!-- 7 -->
      <g transform="translate(362.921875 243.558437) scale(0.1 -0.1)">
       <defs>
        <path id="DejaVuSans-37" d="M 525 4666 
L 3525 4666 
L 3525 4397 
L 1831 0 
L 1172 0 
L 2766 4134 
L 525 4134 
L 525 4666 
z
" transform="scale(0.015625)"/>
       </defs>
       <use xlink:href="#DejaVuSans-37"/>
      </g>
     </g>
    </g>
    <g id="xtick_8">
     <g id="line2d_15">
      <path d="M 412.603125 228.96 
L 412.603125 7.2 
" clip-path="url(#p3a5be25ed5)" style="fill: none; stroke-dasharray: 2.96,1.28; stroke-dashoffset: 0; stroke: #b0b0b0; stroke-opacity: 0.6; stroke-width: 0.8"/>
     </g>
     <g id="line2d_16">
      <g>
       <use xlink:href="#mcf0851120f" x="412.603125" y="228.96" style="stroke: #000000; stroke-width: 0.8"/>
      </g>
     </g>
     <g id="text_8">
      <!-- 8 -->
      <g transform="translate(409.421875 243.558437) scale(0.1 -0.1)">
       <defs>
        <path id="DejaVuSans-38" d="M 2034 2216 
Q 1584 2216 1326 1975 
Q 1069 1734 1069 1313 
Q 1069 891 1326 650 
Q 1584 409 2034 409 
Q 2484 409 2743 651 
Q 3003 894 3003 1313 
Q 3003 1734 2745 1975 
Q 2488 2216 2034 2216 
z
M 1403 2484 
Q 997 2584 770 2862 
Q 544 3141 544 3541 
Q 544 4100 942 4425 
Q 1341 4750 2034 4750 
Q 2731 4750 3128 4425 
Q 3525 4100 3525 3541 
Q 3525 3141 3298 2862 
Q 3072 2584 2669 2484 
Q 3125 2378 3379 2068 
Q 3634 1759 3634 1313 
Q 3634 634 3220 271 
Q 2806 -91 2034 -91 
Q 1263 -91 848 271 
Q 434 634 434 1313 
Q 434 1759 690 2068 
Q 947 2378 1403 2484 
z
M 1172 3481 
Q 1172 3119 1398 2916 
Q 1625 2713 2034 2713 
Q 2441 2713 2670 2916 
Q 2900 3119 2900 3481 
Q 2900 3844 2670 4047 
Q 2441 4250 2034 4250 
Q 1625 4250 1398 4047 
Q 1172 3844 1172 3481 
z
" transform="scale(0.015625)"/>
       </defs>
       <use xlink:href="#DejaVuSans-38"/>
      </g>
     </g>
    </g>
    <g id="xtick_9">
     <g id="line2d_17">
      <path d="M 459.103125 228.96 
L 459.103125 7.2 
" clip-path="url(#p3a5be25ed5)" style="fill: none; stroke-dasharray: 2.96,1.28; stroke-dashoffset: 0; stroke: #b0b0b0; stroke-opacity: 0.6; stroke-width: 0.8"/>
     </g>
     <g id="line2d_18">
      <g>
       <use xlink:href="#mcf0851120f" x="459.103125" y="228.96" style="stroke: #000000; stroke-width: 0.8"/>
      </g>
     </g>
     <g id="text_9">
      <!-- 9 -->
      <g transform="translate(455.921875 243.558437) scale(0.1 -0.1)">
       <defs>
        <path id="DejaVuSans-39" d="M 703 97 
L 703 672 
Q 941 559 1184 500 
Q 1428 441 1663 441 
Q 2288 441 2617 861 
Q 2947 1281 2994 2138 
Q 2813 1869 2534 1725 
Q 2256 1581 1919 1581 
Q 1219 1581 811 2004 
Q 403 2428 403 3163 
Q 403 3881 828 4315 
Q 1253 4750 1959 4750 
Q 2769 4750 3195 4129 
Q 3622 3509 3622 2328 
Q 3622 1225 3098 567 
Q 2575 -91 1691 -91 
Q 1453 -91 1209 -44 
Q 966 3 703 97 
z
M 1959 2075 
Q 2384 2075 2632 2365 
Q 2881 2656 2881 3163 
Q 2881 3666 2632 3958 
Q 2384 4250 1959 4250 
Q 1534 4250 1286 3958 
Q 1038 3666 1038 3163 
Q 1038 2656 1286 2365 
Q 1534 2075 1959 2075 
z
" transform="scale(0.015625)"/>
       </defs>
       <use xlink:href="#DejaVuSans-39"/>
      </g>
     </g>
    </g>
    <g id="xtick_10">
     <g id="line2d_19">
      <path d="M 505.603125 228.96 
L 505.603125 7.2 
" clip-path="url(#p3a5be25ed5)" style="fill: none; stroke-dasharray: 2.96,1.28; stroke-dashoffset: 0; stroke: #b0b0b0; stroke-opacity: 0.6; stroke-width: 0.8"/>
     </g>
     <g id="line2d_20">
      <g>
       <use xlink:href="#mcf0851120f" x="505.603125" y="228.96" style="stroke: #000000; stroke-width: 0.8"/>
      </g>
     </g>
     <g id="text_10">
      <!-- 10 -->
      <g transform="translate(499.240625 243.558437) scale(0.1 -0.1)">
       <defs>
        <path id="DejaVuSans-30" d="M 2034 4250 
Q 1547 4250 1301 3770 
Q 1056 3291 1056 2328 
Q 1056 1369 1301 889 
Q 1547 409 2034 409 
Q 2525 409 2770 889 
Q 3016 1369 3016 2328 
Q 3016 3291 2770 3770 
Q 2525 4250 2034 4250 
z
M 2034 4750 
Q 2819 4750 3233 4129 
Q 3647 3509 3647 2328 
Q 3647 1150 3233 529 
Q 2819 -91 2034 -91 
Q 1250 -91 836 529 
Q 422 1150 422 2328 
Q 422 3509 836 4129 
Q 1250 4750 2034 4750 
z
" transform="scale(0.015625)"/>
       </defs>
       <use xlink:href="#DejaVuSans-31"/>
       <use xlink:href="#DejaVuSans-30" x="63.623047"/>
      </g>
     </g>
    </g>
    <g id="xtick_11">
     <g id="line2d_21">
      <path d="M 552.103125 228.96 
L 552.103125 7.2 
" clip-path="url(#p3a5be25ed5)" style="fill: none; stroke-dasharray: 2.96,1.28; stroke-dashoffset: 0; stroke: #b0b0b0; stroke-opacity: 0.6; stroke-width: 0.8"/>
     </g>
     <g id="line2d_22">
      <g>
       <use xlink:href="#mcf0851120f" x="552.103125" y="228.96" style="stroke: #000000; stroke-width: 0.8"/>
      </g>
     </g>
     <g id="text_11">
      <!-- 11 -->
      <g transform="translate(545.740625 243.558437) scale(0.1 -0.1)">
       <use xlink:href="#DejaVuSans-31"/>
       <use xlink:href="#DejaVuSans-31" x="63.623047"/>
      </g>
     </g>
    </g>
    <g id="text_12">
     <!-- Wi-Fi Channel -->
     <g transform="translate(285.560156 257.236562) scale(0.1 -0.1)">
      <defs>
       <path id="DejaVuSans-57" d="M 213 4666 
L 850 4666 
L 1831 722 
L 2809 4666 
L 3519 4666 
L 4500 722 
L 5478 4666 
L 6119 4666 
L 4947 0 
L 4153 0 
L 3169 4050 
L 2175 0 
L 1381 0 
L 213 4666 
z
" transform="scale(0.015625)"/>
       <path id="DejaVuSans-69" d="M 603 3500 
L 1178 3500 
L 1178 0 
L 603 0 
L 603 3500 
z
M 603 4863 
L 1178 4863 
L 1178 4134 
L 603 4134 
L 603 4863 
z
" transform="scale(0.015625)"/>
       <path id="DejaVuSans-2d" d="M 313 2009 
L 1997 2009 
L 1997 1497 
L 313 1497 
L 313 2009 
z
" transform="scale(0.015625)"/>
       <path id="DejaVuSans-46" d="M 628 4666 
L 3309 4666 
L 3309 4134 
L 1259 4134 
L 1259 2759 
L 3109 2759 
L 3109 2228 
L 1259 2228 
L 1259 0 
L 628 0 
L 628 4666 
z
" transform="scale(0.015625)"/>
       <path id="DejaVuSans-20" transform="scale(0.015625)"/>
       <path id="DejaVuSans-43" d="M 4122 4306 
L 4122 3641 
Q 3803 3938 3442 4084 
Q 3081 4231 2675 4231 
Q 1875 4231 1450 3742 
Q 1025 3253 1025 2328 
Q 1025 1406 1450 917 
Q 1875 428 2675 428 
Q 3081 428 3442 575 
Q 3803 722 4122 1019 
L 4122 359 
Q 3791 134 3420 21 
Q 3050 -91 2638 -91 
Q 1578 -91 968 557 
Q 359 1206 359 2328 
Q 359 3453 968 4101 
Q 1578 4750 2638 4750 
Q 3056 4750 3426 4639 
Q 3797 4528 4122 4306 
z
" transform="scale(0.015625)"/>
       <path id="DejaVuSans-68" d="M 3513 2113 
L 3513 0 
L 2938 0 
L 2938 2094 
Q 2938 2591 2744 2837 
Q 2550 3084 2163 3084 
Q 1697 3084 1428 2787 
Q 1159 2491 1159 1978 
L 1159 0 
L 581 0 
L 581 4863 
L 1159 4863 
L 1159 2956 
Q 1366 3272 1645 3428 
Q 1925 3584 2291 3584 
Q 2894 3584 3203 3211 
Q 3513 2838 3513 2113 
z
" transform="scale(0.015625)"/>
       <path id="DejaVuSans-61" d="M 2194 1759 
Q 1497 1759 1228 1600 
Q 959 1441 959 1056 
Q 959 750 1161 570 
Q 1363 391 1709 391 
Q 2188 391 2477 730 
Q 2766 1069 2766 1631 
L 2766 1759 
L 2194 1759 
z
M 3341 1997 
L 3341 0 
L 2766 0 
L 2766 531 
Q 2569 213 2275 61 
Q 1981 -91 1556 -91 
Q 1019 -91 701 211 
Q 384 513 384 1019 
Q 384 1609 779 1909 
Q 1175 2209 1959 2209 
L 2766 2209 
L 2766 2266 
Q 2766 2663 2505 2880 
Q 2244 3097 1772 3097 
Q 1472 3097 1187 3025 
Q 903 2953 641 2809 
L 641 3341 
Q 956 3463 1253 3523 
Q 1550 3584 1831 3584 
Q 2591 3584 2966 3190 
Q 3341 2797 3341 1997 
z
" transform="scale(0.015625)"/>
       <path id="DejaVuSans-6e" d="M 3513 2113 
L 3513 0 
L 2938 0 
L 2938 2094 
Q 2938 2591 2744 2837 
Q 2550 3084 2163 3084 
Q 1697 3084 1428 2787 
Q 1159 2491 1159 1978 
L 1159 0 
L 581 0 
L 581 3500 
L 1159 3500 
L 1159 2956 
Q 1366 3272 1645 3428 
Q 1925 3584 2291 3584 
Q 2894 3584 3203 3211 
Q 3513 2838 3513 2113 
z
" transform="scale(0.015625)"/>
       <path id="DejaVuSans-65" d="M 3597 1894 
L 3597 1613 
L 953 1613 
Q 991 1019 1311 708 
Q 1631 397 2203 397 
Q 2534 397 2845 478 
Q 3156 559 3463 722 
L 3463 178 
Q 3153 47 2828 -22 
Q 2503 -91 2169 -91 
Q 1331 -91 842 396 
Q 353 884 353 1716 
Q 353 2575 817 3079 
Q 1281 3584 2069 3584 
Q 2775 3584 3186 3129 
Q 3597 2675 3597 1894 
z
M 3022 2063 
Q 3016 2534 2758 2815 
Q 2500 3097 2075 3097 
Q 1594 3097 1305 2825 
Q 1016 2553 972 2059 
L 3022 2063 
z
" transform="scale(0.015625)"/>
       <path id="DejaVuSans-6c" d="M 603 4863 
L 1178 4863 
L 1178 0 
L 603 0 
L 603 4863 
z
" transform="scale(0.015625)"/>
      </defs>
      <use xlink:href="#DejaVuSans-57"/>
      <use xlink:href="#DejaVuSans-69" x="96.626953"/>
      <use xlink:href="#DejaVuSans-2d" x="124.410156"/>
      <use xlink:href="#DejaVuSans-46" x="160.494141"/>
      <use xlink:href="#DejaVuSans-69" x="210.763672"/>
      <use xlink:href="#DejaVuSans-20" x="238.546875"/>
      <use xlink:href="#DejaVuSans-43" x="270.333984"/>
      <use xlink:href="#DejaVuSans-68" x="340.158203"/>
      <use xlink:href="#DejaVuSans-61" x="403.537109"/>
      <use xlink:href="#DejaVuSans-6e" x="464.816406"/>
      <use xlink:href="#DejaVuSans-6e" x="528.195312"/>
      <use xlink:href="#DejaVuSans-65" x="591.574219"/>
      <use xlink:href="#DejaVuSans-6c" x="653.097656"/>
     </g>
    </g>
   </g>
   <g id="matplotlib.axis_2">
    <g id="ytick_1">
     <g id="line2d_23">
      <path d="M 40.603125 228.96 
L 598.603125 228.96 
" clip-path="url(#p3a5be25ed5)" style="fill: none; stroke-dasharray: 2.96,1.28; stroke-dashoffset: 0; stroke: #b0b0b0; stroke-opacity: 0.6; stroke-width: 0.8"/>
     </g>
     <g id="line2d_24">
      <defs>
       <path id="mb736a8f54a" d="M 0 0 
L -3.5 0 
" style="stroke: #000000; stroke-width: 0.8"/>
      </defs>
      <g>
       <use xlink:href="#mb736a8f54a" x="40.603125" y="228.96" style="stroke: #000000; stroke-width: 0.8"/>
      </g>
     </g>
     <g id="text_13">
      <!-- 0 -->
      <g transform="translate(27.240625 232.759219) scale(0.1 -0.1)">
       <use xlink:href="#DejaVuSans-30"/>
      </g>
     </g>
    </g>
    <g id="ytick_2">
     <g id="line2d_25">
      <path d="M 40.603125 180.751304 
L 598.603125 180.751304 
" clip-path="url(#p3a5be25ed5)" style="fill: none; stroke-dasharray: 2.96,1.28; stroke-dashoffset: 0; stroke: #b0b0b0; stroke-opacity: 0.6; stroke-width: 0.8"/>
     </g>
     <g id="line2d_26">
      <g>
       <use xlink:href="#mb736a8f54a" x="40.603125" y="180.751304" style="stroke: #000000; stroke-width: 0.8"/>
      </g>
     </g>
     <g id="text_14">
      <!-- 20 -->
      <g transform="translate(20.878125 184.550523) scale(0.1 -0.1)">
       <use xlink:href="#DejaVuSans-32"/>
       <use xlink:href="#DejaVuSans-30" x="63.623047"/>
      </g>
     </g>
    </g>
    <g id="ytick_3">
     <g id="line2d_27">
      <path d="M 40.603125 132.542609 
L 598.603125 132.542609 
" clip-path="url(#p3a5be25ed5)" style="fill: none; stroke-dasharray: 2.96,1.28; stroke-dashoffset: 0; stroke: #b0b0b0; stroke-opacity: 0.6; stroke-width: 0.8"/>
     </g>
     <g id="line2d_28">
      <g>
       <use xlink:href="#mb736a8f54a" x="40.603125" y="132.542609" style="stroke: #000000; stroke-width: 0.8"/>
      </g>
     </g>
     <g id="text_15">
      <!-- 40 -->
      <g transform="translate(20.878125 136.341827) scale(0.1 -0.1)">
       <use xlink:href="#DejaVuSans-34"/>
       <use xlink:href="#DejaVuSans-30" x="63.623047"/>
      </g>
     </g>
    </g>
    <g id="ytick_4">
     <g id="line2d_29">
      <path d="M 40.603125 84.333913 
L 598.603125 84.333913 
" clip-path="url(#p3a5be25ed5)" style="fill: none; stroke-dasharray: 2.96,1.28; stroke-dashoffset: 0; stroke: #b0b0b0; stroke-opacity: 0.6; stroke-width: 0.8"/>
     </g>
     <g id="line2d_30">
      <g>
       <use xlink:href="#mb736a8f54a" x="40.603125" y="84.333913" style="stroke: #000000; stroke-width: 0.8"/>
      </g>
     </g>
     <g id="text_16">
      <!-- 60 -->
      <g transform="translate(20.878125 88.133132) scale(0.1 -0.1)">
       <use xlink:href="#DejaVuSans-36"/>
       <use xlink:href="#DejaVuSans-30" x="63.623047"/>
      </g>
     </g>
    </g>
    <g id="ytick_5">
     <g id="line2d_31">
      <path d="M 40.603125 36.125217 
L 598.603125 36.125217 
" clip-path="url(#p3a5be25ed5)" style="fill: none; stroke-dasharray: 2.96,1.28; stroke-dashoffset: 0; stroke: #b0b0b0; stroke-opacity: 0.6; stroke-width: 0.8"/>
     </g>
     <g id="line2d_32">
      <g>
       <use xlink:href="#mb736a8f54a" x="40.603125" y="36.125217" style="stroke: #000000; stroke-width: 0.8"/>
      </g>
     </g>
     <g id="text_17">
      <!-- 80 -->
      <g transform="translate(20.878125 39.924436) scale(0.1 -0.1)">
       <use xlink:href="#DejaVuSans-38"/>
       <use xlink:href="#DejaVuSans-30" x="63.623047"/>
      </g>
     </g>
    </g>
    <g id="text_18">
     <!-- RSSI -->
     <g transform="translate(14.798437 129.377656) rotate(-90) scale(0.1 -0.1)">
      <defs>
       <path id="DejaVuSans-52" d="M 2841 2188 
Q 3044 2119 3236 1894 
Q 3428 1669 3622 1275 
L 4263 0 
L 3584 0 
L 2988 1197 
Q 2756 1666 2539 1819 
Q 2322 1972 1947 1972 
L 1259 1972 
L 1259 0 
L 628 0 
L 628 4666 
L 2053 4666 
Q 2853 4666 3247 4331 
Q 3641 3997 3641 3322 
Q 3641 2881 3436 2590 
Q 3231 2300 2841 2188 
z
M 1259 4147 
L 1259 2491 
L 2053 2491 
Q 2509 2491 2742 2702 
Q 2975 2913 2975 3322 
Q 2975 3731 2742 3939 
Q 2509 4147 2053 4147 
L 1259 4147 
z
" transform="scale(0.015625)"/>
       <path id="DejaVuSans-53" d="M 3425 4513 
L 3425 3897 
Q 3066 4069 2747 4153 
Q 2428 4238 2131 4238 
Q 1616 4238 1336 4038 
Q 1056 3838 1056 3469 
Q 1056 3159 1242 3001 
Q 1428 2844 1947 2747 
L 2328 2669 
Q 3034 2534 3370 2195 
Q 3706 1856 3706 1288 
Q 3706 609 3251 259 
Q 2797 -91 1919 -91 
Q 1588 -91 1214 -16 
Q 841 59 441 206 
L 441 856 
Q 825 641 1194 531 
Q 1563 422 1919 422 
Q 2459 422 2753 634 
Q 3047 847 3047 1241 
Q 3047 1584 2836 1778 
Q 2625 1972 2144 2069 
L 1759 2144 
Q 1053 2284 737 2584 
Q 422 2884 422 3419 
Q 422 4038 858 4394 
Q 1294 4750 2059 4750 
Q 2388 4750 2728 4690 
Q 3069 4631 3425 4513 
z
" transform="scale(0.015625)"/>
       <path id="DejaVuSans-49" d="M 628 4666 
L 1259 4666 
L 1259 0 
L 628 0 
L 628 4666 
z
" transform="scale(0.015625)"/>
      </defs>
      <use xlink:href="#DejaVuSans-52"/>
      <use xlink:href="#DejaVuSans-53" x="69.482422"/>
      <use xlink:href="#DejaVuSans-53" x="132.958984"/>
      <use xlink:href="#DejaVuSans-49" x="196.435547"/>
     </g>
    </g>
   </g>
   <g id="line2d_33">
    <path d="M 40.603125 228.96 
L 598.603125 228.96 
" clip-path="url(#p3a5be25ed5)" style="fill: none; stroke: #000000; stroke-width: 0.8; stroke-linecap: square"/>
   </g>
   <g id="patch_49">
    <path d="M 40.603125 228.96 
L 40.603125 7.2 
" style="fill: none; stroke: #000000; stroke-width: 0.8; stroke-linejoin: miter; stroke-linecap: square"/>
   </g>
   <g id="patch_50">
    <path d="M 598.603125 228.96 
L 598.603125 7.2 
" style="fill: none; stroke: #000000; stroke-width: 0.8; stroke-linejoin: miter; stroke-linecap: square"/>
   </g>
   <g id="patch_51">
    <path d="M 40.603125 228.96 
L 598.603125 228.96 
" style="fill: none; stroke: #000000; stroke-width: 0.8; stroke-linejoin: miter; stroke-linecap: square"/>
   </g>
   <g id="patch_52">
    <path d="M 40.603125 7.2 
L 598.603125 7.2 
" style="fill: none; stroke: #000000; stroke-width: 0.8; stroke-linejoin: miter; stroke-linecap: square"/>
   </g>
   <g id="legend_1">
    <g id="patch_53">
     <path d="M 159.203125 73.9125 
L 258.290625 73.9125 
Q 260.290625 73.9125 260.290625 71.9125 
L 260.290625 14.2 
Q 260.290625 12.2 258.290625 12.2 
L 159.203125 12.2 
Q 157.203125 12.2 157.203125 14.2 
L 157.203125 71.9125 
Q 157.203125 73.9125 159.203125 73.9125 
z
" style="fill: #ffffff; opacity: 0.8; stroke: #cccccc; stroke-linejoin: miter"/>
    </g>
    <g id="text_19">
     <!-- Channel -->
     <g transform="translate(188.219531 23.798437) scale(0.1 -0.1)">
      <use xlink:href="#DejaVuSans-43"/>
      <use xlink:href="#DejaVuSans-68" x="69.824219"/>
      <use xlink:href="#DejaVuSans-61" x="133.203125"/>
      <use xlink:href="#DejaVuSans-6e" x="194.482422"/>
      <use xlink:href="#DejaVuSans-6e" x="257.861328"/>
      <use xlink:href="#DejaVuSans-65" x="321.240234"/>
      <use xlink:href="#DejaVuSans-6c" x="382.763672"/>
     </g>
    </g>
    <g id="line2d_34">
     <path d="M 161.203125 34.976562 
L 171.203125 34.976562 
L 181.203125 34.976562 
" style="fill: none; stroke: #1b9e77; stroke-opacity: 0.5; stroke-width: 3; stroke-linecap: square"/>
    </g>
    <g id="text_20">
     <!-- 1 -->
     <g transform="translate(189.203125 38.476562) scale(0.1 -0.1)">
      <use xlink:href="#DejaVuSans-31"/>
     </g>
    </g>
    <g id="line2d_35">
     <path d="M 161.203125 49.654687 
L 171.203125 49.654687 
L 181.203125 49.654687 
" style="fill: none; stroke: #d95f02; stroke-opacity: 0.5; stroke-width: 3; stroke-linecap: square"/>
    </g>
    <g id="text_21">
     <!-- 6 -->
     <g transform="translate(189.203125 53.154687) scale(0.1 -0.1)">
      <use xlink:href="#DejaVuSans-36"/>
     </g>
    </g>
    <g id="line2d_36">
     <path d="M 161.203125 64.332812 
L 171.203125 64.332812 
L 181.203125 64.332812 
" style="fill: none; stroke: #e7298a; stroke-opacity: 0.5; stroke-width: 3; stroke-linecap: square"/>
    </g>
    <g id="text_22">
     <!-- 9 -->
     <g transform="translate(189.203125 67.832812) scale(0.1 -0.1)">
      <use xlink:href="#DejaVuSans-39"/>
     </g>
    </g>
    <g id="line2d_37">
     <path d="M 215.565625 34.976562 
L 225.565625 34.976562 
L 235.565625 34.976562 
" style="fill: none; stroke: #e6ab02; stroke-opacity: 0.5; stroke-width: 3; stroke-linecap: square"/>
    </g>
    <g id="text_23">
     <!-- 10 -->
     <g transform="translate(243.565625 38.476562) scale(0.1 -0.1)">
      <use xlink:href="#DejaVuSans-31"/>
      <use xlink:href="#DejaVuSans-30" x="63.623047"/>
     </g>
    </g>
    <g id="line2d_38">
     <path d="M 215.565625 49.654687 
L 225.565625 49.654687 
L 235.565625 49.654687 
" style="fill: none; stroke: #66a61e; stroke-opacity: 0.5; stroke-width: 3; stroke-linecap: square"/>
    </g>
    <g id="text_24">
     <!-- 11 -->
     <g transform="translate(243.565625 53.154687) scale(0.1 -0.1)">
      <use xlink:href="#DejaVuSans-31"/>
      <use xlink:href="#DejaVuSans-31" x="63.623047"/>
     </g>
    </g>
   </g>
  </g>
 </g>
 <defs>
  <clipPath id="p3a5be25ed5">
   <rect x="40.603125" y="7.2" width="558" height="221.76"/>
  </clipPath>
 </defs>
</svg>
