<?xml version="1.0" encoding="utf-8" standalone="no"?>
<!DOCTYPE svg PUBLIC "-//W3C//DTD SVG 1.1//EN"
  "http://www.w3.org/Graphics/SVG/1.1/DTD/svg11.dtd">
<svg xmlns:xlink="http://www.w3.org/1999/xlink" width="605.803125pt" height="392.514375pt" viewBox="0 0 605.803125 392.514375" xmlns="http://www.w3.org/2000/svg" version="1.1">
 <metadata>
  <rdf:RDF xmlns:dc="http://purl.org/dc/elements/1.1/" xmlns:cc="http://creativecommons.org/ns#" xmlns:rdf="http://www.w3.org/1999/02/22-rdf-syntax-ns#">
   <cc:Work>
    <dc:type rdf:resource="http://purl.org/dc/dcmitype/StillImage"/>
    <dc:date>2024-12-10T10:58:38.846441</dc:date>
    <dc:format>image/svg+xml</dc:format>
    <dc:creator>
     <cc:Agent>
      <dc:title>Matplotlib v3.9.0, https://matplotlib.org/</dc:title>
     </cc:Agent>
    </dc:creator>
   </cc:Work>
  </rdf:RDF>
 </metadata>
 <defs>
  <style type="text/css">*{stroke-linejoin: round; stroke-linecap: butt}</style>
 </defs>
 <g id="figure_1">
  <g id="patch_1">
   <path d="M 0 392.514375 
L 605.803125 392.514375 
L 605.803125 0 
L 0 0 
z
" style="fill: #ffffff"/>
  </g>
  <g id="axes_1">
   <g id="patch_2">
    <path d="M 40.603125 354.958125 
L 598.603125 354.958125 
L 598.603125 22.318125 
L 40.603125 22.318125 
z
" style="fill: #ffffff"/>
   </g>
   <g id="patch_3">
    <path d="M 89.428125 354.958125 
C 89.428125 314.698487 87.46715 276.046597 83.980311 247.578734 
C 80.493472 219.110871 75.75926 203.100734 70.828125 203.100734 
C 65.89699 203.100734 61.162778 219.110871 57.675939 247.578734 
C 54.1891 276.046597 52.228125 314.698487 52.228125 354.958125 
" clip-path="url(#p26a778eb20)" style="fill: none; opacity: 0.7; stroke: #48708b; stroke-linejoin: miter"/>
   </g>
   <g id="patch_4">
    <path d="M 91.753125 354.958125 
C 91.753125 314.698487 89.79215 276.046597 86.305311 247.578734 
C 82.818472 219.110871 78.08426 203.100734 73.153125 203.100734 
C 68.22199 203.100734 63.487778 219.110871 60.000939 247.578734 
C 56.5141 276.046597 54.553125 314.698487 54.553125 354.958125 
" clip-path="url(#p26a778eb20)" style="fill: none; opacity: 0.7; stroke: #48708b; stroke-linejoin: miter"/>
   </g>
   <g id="patch_5">
    <path d="M 94.078125 354.958125 
C 94.078125 314.698487 92.11715 276.046597 88.630311 247.578734 
C 85.143472 219.110871 80.40926 203.100734 75.478125 203.100734 
C 70.54699 203.100734 65.812778 219.110871 62.325939 247.578734 
C 58.8391 276.046597 56.878125 314.698487 56.878125 354.958125 
" clip-path="url(#p26a778eb20)" style="fill: none; opacity: 0.7; stroke: #48708b; stroke-linejoin: miter"/>
   </g>
   <g id="patch_6">
    <path d="M 96.403125 354.958125 
C 96.403125 312.781361 94.44215 272.288905 90.955311 242.465429 
C 87.468472 212.641954 82.73426 195.869429 77.803125 195.869429 
C 72.87199 195.869429 68.137778 212.641954 64.650939 242.465429 
C 61.1641 272.288905 59.203125 312.781361 59.203125 354.958125 
" clip-path="url(#p26a778eb20)" style="fill: none; opacity: 0.7; stroke: #48708b; stroke-linejoin: miter"/>
   </g>
   <g id="patch_7">
    <path d="M 98.728125 354.958125 
C 98.728125 312.781361 96.76715 272.288905 93.280311 242.465429 
C 89.793472 212.641954 85.05926 195.869429 80.128125 195.869429 
C 75.19699 195.869429 70.462778 212.641954 66.975939 242.465429 
C 63.4891 272.288905 61.528125 312.781361 61.528125 354.958125 
" clip-path="url(#p26a778eb20)" style="fill: none; opacity: 0.7; stroke: #48708b; stroke-linejoin: miter"/>
   </g>
   <g id="patch_8">
    <path d="M 101.053125 354.958125 
C 101.053125 312.781361 99.09215 272.288905 95.605311 242.465429 
C 92.118472 212.641954 87.38426 195.869429 82.453125 195.869429 
C 77.52199 195.869429 72.787778 212.641954 69.300939 242.465429 
C 65.8141 272.288905 63.853125 312.781361 63.853125 354.958125 
" clip-path="url(#p26a778eb20)" style="fill: none; opacity: 0.7; stroke: #48708b; stroke-linejoin: miter"/>
   </g>
   <g id="patch_9">
    <path d="M 103.378125 354.958125 
C 103.378125 310.864236 101.41715 268.531213 97.930311 237.352125 
C 94.443472 206.173037 89.70926 188.638125 84.778125 188.638125 
C 79.84699 188.638125 75.112778 206.173037 71.625939 237.352125 
C 68.1391 268.531213 66.178125 310.864236 66.178125 354.958125 
" clip-path="url(#p26a778eb20)" style="fill: none; opacity: 0.7; stroke: #48708b; stroke-linejoin: miter"/>
   </g>
   <g id="patch_10">
    <path d="M 105.703125 354.958125 
C 105.703125 285.941603 103.74215 219.68122 100.255311 170.879169 
C 96.768472 122.077118 92.03426 94.631168 87.103125 94.631168 
C 82.17199 94.631168 77.437778 122.077118 73.950939 170.879169 
C 70.4641 219.68122 68.503125 285.941603 68.503125 354.958125 
" clip-path="url(#p26a778eb20)" style="fill: none; opacity: 0.7; stroke: #48708b; stroke-linejoin: miter"/>
   </g>
   <g id="patch_11">
    <path d="M 108.028125 354.958125 
C 108.028125 284.024477 106.06715 215.923528 102.580311 165.765864 
C 99.093472 115.608201 94.35926 87.399864 89.428125 87.399864 
C 84.49699 87.399864 79.762778 115.608201 76.275939 165.765864 
C 72.7891 215.923528 70.828125 284.024477 70.828125 354.958125 
" clip-path="url(#p26a778eb20)" style="fill: none; opacity: 0.7; stroke: #48708b; stroke-linejoin: miter"/>
   </g>
   <g id="patch_12">
    <path d="M 110.353125 354.958125 
C 110.353125 284.024477 108.39215 215.923528 104.905311 165.765864 
C 101.418472 115.608201 96.68426 87.399864 91.753125 87.399864 
C 86.82199 87.399864 82.087778 115.608201 78.600939 165.765864 
C 75.1141 215.923528 73.153125 284.024477 73.153125 354.958125 
" clip-path="url(#p26a778eb20)" style="fill: none; opacity: 0.7; stroke: #48708b; stroke-linejoin: miter"/>
   </g>
   <g id="patch_13">
    <path d="M 112.678125 354.958125 
C 112.678125 282.107352 110.71715 212.165836 107.230311 160.65256 
C 103.743472 109.139284 99.00926 80.16856 94.078125 80.16856 
C 89.14699 80.16856 84.412778 109.139284 80.925939 160.65256 
C 77.4391 212.165836 75.478125 282.107352 75.478125 354.958125 
" clip-path="url(#p26a778eb20)" style="fill: none; opacity: 0.7; stroke: #48708b; stroke-linejoin: miter"/>
   </g>
   <g id="patch_14">
    <path d="M 115.003125 354.958125 
C 115.003125 282.107352 113.04215 212.165836 109.555311 160.65256 
C 106.068472 109.139284 101.33426 80.16856 96.403125 80.16856 
C 91.47199 80.16856 86.737778 109.139284 83.250939 160.65256 
C 79.7641 212.165836 77.803125 282.107352 77.803125 354.958125 
" clip-path="url(#p26a778eb20)" style="fill: none; opacity: 0.7; stroke: #48708b; stroke-linejoin: miter"/>
   </g>
   <g id="patch_15">
    <path d="M 117.328125 354.958125 
C 117.328125 282.107352 115.36715 212.165836 111.880311 160.65256 
C 108.393472 109.139284 103.65926 80.16856 98.728125 80.16856 
C 93.79699 80.16856 89.062778 109.139284 85.575939 160.65256 
C 82.0891 212.165836 80.128125 282.107352 80.128125 354.958125 
" clip-path="url(#p26a778eb20)" style="fill: none; opacity: 0.7; stroke: #48708b; stroke-linejoin: miter"/>
   </g>
   <g id="patch_16">
    <path d="M 119.653125 354.958125 
C 119.653125 282.107352 117.69215 212.165836 114.205311 160.65256 
C 110.718472 109.139284 105.98426 80.16856 101.053125 80.16856 
C 96.12199 80.16856 91.387778 109.139284 87.900939 160.65256 
C 84.4141 212.165836 82.453125 282.107352 82.453125 354.958125 
" clip-path="url(#p26a778eb20)" style="fill: none; opacity: 0.7; stroke: #48708b; stroke-linejoin: miter"/>
   </g>
   <g id="patch_17">
    <path d="M 328.903125 354.958125 
C 328.903125 316.615613 326.94215 279.804289 323.455311 252.692038 
C 319.968472 225.579788 315.23426 210.332038 310.303125 210.332038 
C 305.37199 210.332038 300.637778 225.579788 297.150939 252.692038 
C 293.6641 279.804289 291.703125 316.615613 291.703125 354.958125 
" clip-path="url(#p26a778eb20)" style="fill: none; opacity: 0.7; stroke: #9f4800; stroke-linejoin: miter"/>
   </g>
   <g id="patch_18">
    <path d="M 331.228125 354.958125 
C 331.228125 314.698487 329.26715 276.046597 325.780311 247.578734 
C 322.293472 219.110871 317.55926 203.100734 312.628125 203.100734 
C 307.69699 203.100734 302.962778 219.110871 299.475939 247.578734 
C 295.9891 276.046597 294.028125 314.698487 294.028125 354.958125 
" clip-path="url(#p26a778eb20)" style="fill: none; opacity: 0.7; stroke: #9f4800; stroke-linejoin: miter"/>
   </g>
   <g id="patch_19">
    <path d="M 333.553125 354.958125 
C 333.553125 314.698487 331.59215 276.046597 328.105311 247.578734 
C 324.618472 219.110871 319.88426 203.100734 314.953125 203.100734 
C 310.02199 203.100734 305.287778 219.110871 301.800939 247.578734 
C 298.3141 276.046597 296.353125 314.698487 296.353125 354.958125 
" clip-path="url(#p26a778eb20)" style="fill: none; opacity: 0.7; stroke: #9f4800; stroke-linejoin: miter"/>
   </g>
   <g id="patch_20">
    <path d="M 335.878125 354.958125 
C 335.878125 312.781361 333.91715 272.288905 330.430311 242.465429 
C 326.943472 212.641954 322.20926 195.869429 317.278125 195.869429 
C 312.34699 195.869429 307.612778 212.641954 304.125939 242.465429 
C 300.6391 272.288905 298.678125 312.781361 298.678125 354.958125 
" clip-path="url(#p26a778eb20)" style="fill: none; opacity: 0.7; stroke: #9f4800; stroke-linejoin: miter"/>
   </g>
   <g id="patch_21">
    <path d="M 338.203125 354.958125 
C 338.203125 310.864236 336.24215 268.531213 332.755311 237.352125 
C 329.268472 206.173037 324.53426 188.638125 319.603125 188.638125 
C 314.67199 188.638125 309.937778 206.173037 306.450939 237.352125 
C 302.9641 268.531213 301.003125 310.864236 301.003125 354.958125 
" clip-path="url(#p26a778eb20)" style="fill: none; opacity: 0.7; stroke: #9f4800; stroke-linejoin: miter"/>
   </g>
   <g id="patch_22">
    <path d="M 340.528125 354.958125 
C 340.528125 310.864236 338.56715 268.531213 335.080311 237.352125 
C 331.593472 206.173037 326.85926 188.638125 321.928125 188.638125 
C 316.99699 188.638125 312.262778 206.173037 308.775939 237.352125 
C 305.2891 268.531213 303.328125 310.864236 303.328125 354.958125 
" clip-path="url(#p26a778eb20)" style="fill: none; opacity: 0.7; stroke: #9f4800; stroke-linejoin: miter"/>
   </g>
   <g id="patch_23">
    <path d="M 342.853125 354.958125 
C 342.853125 295.527231 340.89215 238.469679 337.405311 196.44569 
C 333.918472 154.421702 329.18426 130.78769 324.253125 130.78769 
C 319.32199 130.78769 314.587778 154.421702 311.100939 196.44569 
C 307.6141 238.469679 305.653125 295.527231 305.653125 354.958125 
" clip-path="url(#p26a778eb20)" style="fill: none; opacity: 0.7; stroke: #9f4800; stroke-linejoin: miter"/>
   </g>
   <g id="patch_24">
    <path d="M 345.178125 354.958125 
C 345.178125 293.610105 343.21715 234.711987 339.730311 191.332386 
C 336.243472 147.952785 331.50926 123.556386 326.578125 123.556386 
C 321.64699 123.556386 316.912778 147.952785 313.425939 191.332386 
C 309.9391 234.711987 307.978125 293.610105 307.978125 354.958125 
" clip-path="url(#p26a778eb20)" style="fill: none; opacity: 0.7; stroke: #9f4800; stroke-linejoin: miter"/>
   </g>
   <g id="patch_25">
    <path d="M 383.540625 354.958125 
C 383.540625 293.610105 381.57965 234.711987 378.092811 191.332386 
C 374.605972 147.952785 369.87176 123.556386 364.940625 123.556386 
C 360.00949 123.556386 355.275278 147.952785 351.788439 191.332386 
C 348.3016 234.711987 346.340625 293.610105 346.340625 354.958125 
" clip-path="url(#p26a778eb20)" style="fill: none; opacity: 0.7; stroke: #4c804c; stroke-linejoin: miter"/>
   </g>
   <g id="patch_26">
    <path d="M 476.540625 354.958125 
C 476.540625 278.2731 474.57965 204.650452 471.092811 150.425951 
C 467.605972 96.20145 462.87176 65.705951 457.940625 65.705951 
C 453.00949 65.705951 448.275278 96.20145 444.788439 150.425951 
C 441.3016 204.650452 439.340625 278.2731 439.340625 354.958125 
" clip-path="url(#p26a778eb20)" style="fill: none; opacity: 0.7; stroke: #a65758; stroke-linejoin: miter"/>
   </g>
   <g id="patch_27">
    <path d="M 559.078125 354.958125 
C 559.078125 314.698487 557.11715 276.046597 553.630311 247.578734 
C 550.143472 219.110871 545.40926 203.100734 540.478125 203.100734 
C 535.54699 203.100734 530.812778 219.110871 527.325939 247.578734 
C 523.8391 276.046597 521.878125 314.698487 521.878125 354.958125 
" clip-path="url(#p26a778eb20)" style="fill: none; opacity: 0.7; stroke: #937fa5; stroke-linejoin: miter"/>
   </g>
   <g id="patch_28">
    <path d="M 561.403125 354.958125 
C 561.403125 314.698487 559.44215 276.046597 555.955311 247.578734 
C 552.468472 219.110871 547.73426 203.100734 542.803125 203.100734 
C 537.87199 203.100734 533.137778 219.110871 529.650939 247.578734 
C 526.1641 276.046597 524.203125 314.698487 524.203125 354.958125 
" clip-path="url(#p26a778eb20)" style="fill: none; opacity: 0.7; stroke: #937fa5; stroke-linejoin: miter"/>
   </g>
   <g id="patch_29">
    <path d="M 563.728125 354.958125 
C 563.728125 314.698487 561.76715 276.046597 558.280311 247.578734 
C 554.793472 219.110871 550.05926 203.100734 545.128125 203.100734 
C 540.19699 203.100734 535.462778 219.110871 531.975939 247.578734 
C 528.4891 276.046597 526.528125 314.698487 526.528125 354.958125 
" clip-path="url(#p26a778eb20)" style="fill: none; opacity: 0.7; stroke: #937fa5; stroke-linejoin: miter"/>
   </g>
   <g id="patch_30">
    <path d="M 566.053125 354.958125 
C 566.053125 312.781361 564.09215 272.288905 560.605311 242.465429 
C 557.118472 212.641954 552.38426 195.869429 547.453125 195.869429 
C 542.52199 195.869429 537.787778 212.641954 534.300939 242.465429 
C 530.8141 272.288905 528.853125 312.781361 528.853125 354.958125 
" clip-path="url(#p26a778eb20)" style="fill: none; opacity: 0.7; stroke: #937fa5; stroke-linejoin: miter"/>
   </g>
   <g id="patch_31">
    <path d="M 568.378125 354.958125 
C 568.378125 312.781361 566.41715 272.288905 562.930311 242.465429 
C 559.443472 212.641954 554.70926 195.869429 549.778125 195.869429 
C 544.84699 195.869429 540.112778 212.641954 536.625939 242.465429 
C 533.1391 272.288905 531.178125 312.781361 531.178125 354.958125 
" clip-path="url(#p26a778eb20)" style="fill: none; opacity: 0.7; stroke: #937fa5; stroke-linejoin: miter"/>
   </g>
   <g id="patch_32">
    <path d="M 570.703125 354.958125 
C 570.703125 312.781361 568.74215 272.288905 565.255311 242.465429 
C 561.768472 212.641954 557.03426 195.869429 552.103125 195.869429 
C 547.17199 195.869429 542.437778 212.641954 538.950939 242.465429 
C 535.4641 272.288905 533.503125 312.781361 533.503125 354.958125 
" clip-path="url(#p26a778eb20)" style="fill: none; opacity: 0.7; stroke: #937fa5; stroke-linejoin: miter"/>
   </g>
   <g id="patch_33">
    <path d="M 573.028125 354.958125 
C 573.028125 276.355975 571.06715 200.89276 567.580311 145.312647 
C 564.093472 89.732534 559.35926 58.474647 554.428125 58.474647 
C 549.49699 58.474647 544.762778 89.732534 541.275939 145.312647 
C 537.7891 200.89276 535.828125 276.355975 535.828125 354.958125 
" clip-path="url(#p26a778eb20)" style="fill: none; opacity: 0.7; stroke: #937fa5; stroke-linejoin: miter"/>
   </g>
   <g id="patch_34">
    <path d="M 575.353125 354.958125 
C 575.353125 276.355975 573.39215 200.89276 569.905311 145.312647 
C 566.418472 89.732534 561.68426 58.474647 556.753125 58.474647 
C 551.82199 58.474647 547.087778 89.732534 543.600939 145.312647 
C 540.1141 200.89276 538.153125 276.355975 538.153125 354.958125 
" clip-path="url(#p26a778eb20)" style="fill: none; opacity: 0.7; stroke: #937fa5; stroke-linejoin: miter"/>
   </g>
   <g id="patch_35">
    <path d="M 577.678125 354.958125 
C 577.678125 276.355975 575.71715 200.89276 572.230311 145.312647 
C 568.743472 89.732534 564.00926 58.474647 559.078125 58.474647 
C 554.14699 58.474647 549.412778 89.732534 545.925939 145.312647 
C 542.4391 200.89276 540.478125 276.355975 540.478125 354.958125 
" clip-path="url(#p26a778eb20)" style="fill: none; opacity: 0.7; stroke: #937fa5; stroke-linejoin: miter"/>
   </g>
   <g id="patch_36">
    <path d="M 580.003125 354.958125 
C 580.003125 276.355975 578.04215 200.89276 574.555311 145.312647 
C 571.068472 89.732534 566.33426 58.474647 561.403125 58.474647 
C 556.47199 58.474647 551.737778 89.732534 548.250939 145.312647 
C 544.7641 200.89276 542.803125 276.355975 542.803125 354.958125 
" clip-path="url(#p26a778eb20)" style="fill: none; opacity: 0.7; stroke: #937fa5; stroke-linejoin: miter"/>
   </g>
   <g id="matplotlib.axis_1">
    <g id="xtick_1">
     <g id="line2d_1">
      <path d="M 87.103125 354.958125 
L 87.103125 22.318125 
" clip-path="url(#p26a778eb20)" style="fill: none; stroke-dasharray: 2.96,1.28; stroke-dashoffset: 0; stroke: #b0b0b0; stroke-opacity: 0.6; stroke-width: 0.8"/>
     </g>
     <g id="line2d_2">
      <defs>
       <path id="m88d5915f51" d="M 0 0 
L 0 3.5 
" style="stroke: #000000; stroke-width: 0.8"/>
      </defs>
      <g>
       <use xlink:href="#m88d5915f51" x="87.103125" y="354.958125" style="stroke: #000000; stroke-width: 0.8"/>
      </g>
     </g>
     <g id="text_1">
      <!-- 1 -->
      <g transform="translate(83.921875 369.556562) scale(0.1 -0.1)">
       <defs>
        <path id="DejaVuSans-31" d="M 794 531 
L 1825 531 
L 1825 4091 
L 703 3866 
L 703 4441 
L 1819 4666 
L 2450 4666 
L 2450 531 
L 3481 531 
L 3481 0 
L 794 0 
L 794 531 
z
" transform="scale(0.015625)"/>
       </defs>
       <use xlink:href="#DejaVuSans-31"/>
      </g>
     </g>
    </g>
    <g id="xtick_2">
     <g id="line2d_3">
      <path d="M 133.603125 354.958125 
L 133.603125 22.318125 
" clip-path="url(#p26a778eb20)" style="fill: none; stroke-dasharray: 2.96,1.28; stroke-dashoffset: 0; stroke: #b0b0b0; stroke-opacity: 0.6; stroke-width: 0.8"/>
     </g>
     <g id="line2d_4">
      <g>
       <use xlink:href="#m88d5915f51" x="133.603125" y="354.958125" style="stroke: #000000; stroke-width: 0.8"/>
      </g>
     </g>
     <g id="text_2">
      <!-- 2 -->
      <g transform="translate(130.421875 369.556562) scale(0.1 -0.1)">
       <defs>
        <path id="DejaVuSans-32" d="M 1228 531 
L 3431 531 
L 3431 0 
L 469 0 
L 469 531 
Q 828 903 1448 1529 
Q 2069 2156 2228 2338 
Q 2531 2678 2651 2914 
Q 2772 3150 2772 3378 
Q 2772 3750 2511 3984 
Q 2250 4219 1831 4219 
Q 1534 4219 1204 4116 
Q 875 4013 500 3803 
L 500 4441 
Q 881 4594 1212 4672 
Q 1544 4750 1819 4750 
Q 2544 4750 2975 4387 
Q 3406 4025 3406 3419 
Q 3406 3131 3298 2873 
Q 3191 2616 2906 2266 
Q 2828 2175 2409 1742 
Q 1991 1309 1228 531 
z
" transform="scale(0.015625)"/>
       </defs>
       <use xlink:href="#DejaVuSans-32"/>
      </g>
     </g>
    </g>
    <g id="xtick_3">
     <g id="line2d_5">
      <path d="M 180.103125 354.958125 
L 180.103125 22.318125 
" clip-path="url(#p26a778eb20)" style="fill: none; stroke-dasharray: 2.96,1.28; stroke-dashoffset: 0; stroke: #b0b0b0; stroke-opacity: 0.6; stroke-width: 0.8"/>
     </g>
     <g id="line2d_6">
      <g>
       <use xlink:href="#m88d5915f51" x="180.103125" y="354.958125" style="stroke: #000000; stroke-width: 0.8"/>
      </g>
     </g>
     <g id="text_3">
      <!-- 3 -->
      <g transform="translate(176.921875 369.556562) scale(0.1 -0.1)">
       <defs>
        <path id="DejaVuSans-33" d="M 2597 2516 
Q 3050 2419 3304 2112 
Q 3559 1806 3559 1356 
Q 3559 666 3084 287 
Q 2609 -91 1734 -91 
Q 1441 -91 1130 -33 
Q 819 25 488 141 
L 488 750 
Q 750 597 1062 519 
Q 1375 441 1716 441 
Q 2309 441 2620 675 
Q 2931 909 2931 1356 
Q 2931 1769 2642 2001 
Q 2353 2234 1838 2234 
L 1294 2234 
L 1294 2753 
L 1863 2753 
Q 2328 2753 2575 2939 
Q 2822 3125 2822 3475 
Q 2822 3834 2567 4026 
Q 2313 4219 1838 4219 
Q 1578 4219 1281 4162 
Q 984 4106 628 3988 
L 628 4550 
Q 988 4650 1302 4700 
Q 1616 4750 1894 4750 
Q 2613 4750 3031 4423 
Q 3450 4097 3450 3541 
Q 3450 3153 3228 2886 
Q 3006 2619 2597 2516 
z
" transform="scale(0.015625)"/>
       </defs>
       <use xlink:href="#DejaVuSans-33"/>
      </g>
     </g>
    </g>
    <g id="xtick_4">
     <g id="line2d_7">
      <path d="M 226.603125 354.958125 
L 226.603125 22.318125 
" clip-path="url(#p26a778eb20)" style="fill: none; stroke-dasharray: 2.96,1.28; stroke-dashoffset: 0; stroke: #b0b0b0; stroke-opacity: 0.6; stroke-width: 0.8"/>
     </g>
     <g id="line2d_8">
      <g>
       <use xlink:href="#m88d5915f51" x="226.603125" y="354.958125" style="stroke: #000000; stroke-width: 0.8"/>
      </g>
     </g>
     <g id="text_4">
      <!-- 4 -->
      <g transform="translate(223.421875 369.556562) scale(0.1 -0.1)">
       <defs>
        <path id="DejaVuSans-34" d="M 2419 4116 
L 825 1625 
L 2419 1625 
L 2419 4116 
z
M 2253 4666 
L 3047 4666 
L 3047 1625 
L 3713 1625 
L 3713 1100 
L 3047 1100 
L 3047 0 
L 2419 0 
L 2419 1100 
L 313 1100 
L 313 1709 
L 2253 4666 
z
" transform="scale(0.015625)"/>
       </defs>
       <use xlink:href="#DejaVuSans-34"/>
      </g>
     </g>
    </g>
    <g id="xtick_5">
     <g id="line2d_9">
      <path d="M 273.103125 354.958125 
L 273.103125 22.318125 
" clip-path="url(#p26a778eb20)" style="fill: none; stroke-dasharray: 2.96,1.28; stroke-dashoffset: 0; stroke: #b0b0b0; stroke-opacity: 0.6; stroke-width: 0.8"/>
     </g>
     <g id="line2d_10">
      <g>
       <use xlink:href="#m88d5915f51" x="273.103125" y="354.958125" style="stroke: #000000; stroke-width: 0.8"/>
      </g>
     </g>
     <g id="text_5">
      <!-- 5 -->
      <g transform="translate(269.921875 369.556562) scale(0.1 -0.1)">
       <defs>
        <path id="DejaVuSans-35" d="M 691 4666 
L 3169 4666 
L 3169 4134 
L 1269 4134 
L 1269 2991 
Q 1406 3038 1543 3061 
Q 1681 3084 1819 3084 
Q 2600 3084 3056 2656 
Q 3513 2228 3513 1497 
Q 3513 744 3044 326 
Q 2575 -91 1722 -91 
Q 1428 -91 1123 -41 
Q 819 9 494 109 
L 494 744 
Q 775 591 1075 516 
Q 1375 441 1709 441 
Q 2250 441 2565 725 
Q 2881 1009 2881 1497 
Q 2881 1984 2565 2268 
Q 2250 2553 1709 2553 
Q 1456 2553 1204 2497 
Q 953 2441 691 2322 
L 691 4666 
z
" transform="scale(0.015625)"/>
       </defs>
       <use xlink:href="#DejaVuSans-35"/>
      </g>
     </g>
    </g>
    <g id="xtick_6">
     <g id="line2d_11">
      <path d="M 319.603125 354.958125 
L 319.603125 22.318125 
" clip-path="url(#p26a778eb20)" style="fill: none; stroke-dasharray: 2.96,1.28; stroke-dashoffset: 0; stroke: #b0b0b0; stroke-opacity: 0.6; stroke-width: 0.8"/>
     </g>
     <g id="line2d_12">
      <g>
       <use xlink:href="#m88d5915f51" x="319.603125" y="354.958125" style="stroke: #000000; stroke-width: 0.8"/>
      </g>
     </g>
     <g id="text_6">
      <!-- 6 -->
      <g transform="translate(316.421875 369.556562) scale(0.1 -0.1)">
       <defs>
        <path id="DejaVuSans-36" d="M 2113 2584 
Q 1688 2584 1439 2293 
Q 1191 2003 1191 1497 
Q 1191 994 1439 701 
Q 1688 409 2113 409 
Q 2538 409 2786 701 
Q 3034 994 3034 1497 
Q 3034 2003 2786 2293 
Q 2538 2584 2113 2584 
z
M 3366 4563 
L 3366 3988 
Q 3128 4100 2886 4159 
Q 2644 4219 2406 4219 
Q 1781 4219 1451 3797 
Q 1122 3375 1075 2522 
Q 1259 2794 1537 2939 
Q 1816 3084 2150 3084 
Q 2853 3084 3261 2657 
Q 3669 2231 3669 1497 
Q 3669 778 3244 343 
Q 2819 -91 2113 -91 
Q 1303 -91 875 529 
Q 447 1150 447 2328 
Q 447 3434 972 4092 
Q 1497 4750 2381 4750 
Q 2619 4750 2861 4703 
Q 3103 4656 3366 4563 
z
" transform="scale(0.015625)"/>
       </defs>
       <use xlink:href="#DejaVuSans-36"/>
      </g>
     </g>
    </g>
    <g id="xtick_7">
     <g id="line2d_13">
      <path d="M 366.103125 354.958125 
L 366.103125 22.318125 
" clip-path="url(#p26a778eb20)" style="fill: none; stroke-dasharray: 2.96,1.28; stroke-dashoffset: 0; stroke: #b0b0b0; stroke-opacity: 0.6; stroke-width: 0.8"/>
     </g>
     <g id="line2d_14">
      <g>
       <use xlink:href="#m88d5915f51" x="366.103125" y="354.958125" style="stroke: #000000; stroke-width: 0.8"/>
      </g>
     </g>
     <g id="text_7">
      <!-- 7 -->
      <g transform="translate(362.921875 369.556562) scale(0.1 -0.1)">
       <defs>
        <path id="DejaVuSans-37" d="M 525 4666 
L 3525 4666 
L 3525 4397 
L 1831 0 
L 1172 0 
L 2766 4134 
L 525 4134 
L 525 4666 
z
" transform="scale(0.015625)"/>
       </defs>
       <use xlink:href="#DejaVuSans-37"/>
      </g>
     </g>
    </g>
    <g id="xtick_8">
     <g id="line2d_15">
      <path d="M 412.603125 354.958125 
L 412.603125 22.318125 
" clip-path="url(#p26a778eb20)" style="fill: none; stroke-dasharray: 2.96,1.28; stroke-dashoffset: 0; stroke: #b0b0b0; stroke-opacity: 0.6; stroke-width: 0.8"/>
     </g>
     <g id="line2d_16">
      <g>
       <use xlink:href="#m88d5915f51" x="412.603125" y="354.958125" style="stroke: #000000; stroke-width: 0.8"/>
      </g>
     </g>
     <g id="text_8">
      <!-- 8 -->
      <g transform="translate(409.421875 369.556562) scale(0.1 -0.1)">
       <defs>
        <path id="DejaVuSans-38" d="M 2034 2216 
Q 1584 2216 1326 1975 
Q 1069 1734 1069 1313 
Q 1069 891 1326 650 
Q 1584 409 2034 409 
Q 2484 409 2743 651 
Q 3003 894 3003 1313 
Q 3003 1734 2745 1975 
Q 2488 2216 2034 2216 
z
M 1403 2484 
Q 997 2584 770 2862 
Q 544 3141 544 3541 
Q 544 4100 942 4425 
Q 1341 4750 2034 4750 
Q 2731 4750 3128 4425 
Q 3525 4100 3525 3541 
Q 3525 3141 3298 2862 
Q 3072 2584 2669 2484 
Q 3125 2378 3379 2068 
Q 3634 1759 3634 1313 
Q 3634 634 3220 271 
Q 2806 -91 2034 -91 
Q 1263 -91 848 271 
Q 434 634 434 1313 
Q 434 1759 690 2068 
Q 947 2378 1403 2484 
z
M 1172 3481 
Q 1172 3119 1398 2916 
Q 1625 2713 2034 2713 
Q 2441 2713 2670 2916 
Q 2900 3119 2900 3481 
Q 2900 3844 2670 4047 
Q 2441 4250 2034 4250 
Q 1625 4250 1398 4047 
Q 1172 3844 1172 3481 
z
" transform="scale(0.015625)"/>
       </defs>
       <use xlink:href="#DejaVuSans-38"/>
      </g>
     </g>
    </g>
    <g id="xtick_9">
     <g id="line2d_17">
      <path d="M 459.103125 354.958125 
L 459.103125 22.318125 
" clip-path="url(#p26a778eb20)" style="fill: none; stroke-dasharray: 2.96,1.28; stroke-dashoffset: 0; stroke: #b0b0b0; stroke-opacity: 0.6; stroke-width: 0.8"/>
     </g>
     <g id="line2d_18">
      <g>
       <use xlink:href="#m88d5915f51" x="459.103125" y="354.958125" style="stroke: #000000; stroke-width: 0.8"/>
      </g>
     </g>
     <g id="text_9">
      <!-- 9 -->
      <g transform="translate(455.921875 369.556562) scale(0.1 -0.1)">
       <defs>
        <path id="DejaVuSans-39" d="M 703 97 
L 703 672 
Q 941 559 1184 500 
Q 1428 441 1663 441 
Q 2288 441 2617 861 
Q 2947 1281 2994 2138 
Q 2813 1869 2534 1725 
Q 2256 1581 1919 1581 
Q 1219 1581 811 2004 
Q 403 2428 403 3163 
Q 403 3881 828 4315 
Q 1253 4750 1959 4750 
Q 2769 4750 3195 4129 
Q 3622 3509 3622 2328 
Q 3622 1225 3098 567 
Q 2575 -91 1691 -91 
Q 1453 -91 1209 -44 
Q 966 3 703 97 
z
M 1959 2075 
Q 2384 2075 2632 2365 
Q 2881 2656 2881 3163 
Q 2881 3666 2632 3958 
Q 2384 4250 1959 4250 
Q 1534 4250 1286 3958 
Q 1038 3666 1038 3163 
Q 1038 2656 1286 2365 
Q 1534 2075 1959 2075 
z
" transform="scale(0.015625)"/>
       </defs>
       <use xlink:href="#DejaVuSans-39"/>
      </g>
     </g>
    </g>
    <g id="xtick_10">
     <g id="line2d_19">
      <path d="M 505.603125 354.958125 
L 505.603125 22.318125 
" clip-path="url(#p26a778eb20)" style="fill: none; stroke-dasharray: 2.96,1.28; stroke-dashoffset: 0; stroke: #b0b0b0; stroke-opacity: 0.6; stroke-width: 0.8"/>
     </g>
     <g id="line2d_20">
      <g>
       <use xlink:href="#m88d5915f51" x="505.603125" y="354.958125" style="stroke: #000000; stroke-width: 0.8"/>
      </g>
     </g>
     <g id="text_10">
      <!-- 10 -->
      <g transform="translate(499.240625 369.556562) scale(0.1 -0.1)">
       <defs>
        <path id="DejaVuSans-30" d="M 2034 4250 
Q 1547 4250 1301 3770 
Q 1056 3291 1056 2328 
Q 1056 1369 1301 889 
Q 1547 409 2034 409 
Q 2525 409 2770 889 
Q 3016 1369 3016 2328 
Q 3016 3291 2770 3770 
Q 2525 4250 2034 4250 
z
M 2034 4750 
Q 2819 4750 3233 4129 
Q 3647 3509 3647 2328 
Q 3647 1150 3233 529 
Q 2819 -91 2034 -91 
Q 1250 -91 836 529 
Q 422 1150 422 2328 
Q 422 3509 836 4129 
Q 1250 4750 2034 4750 
z
" transform="scale(0.015625)"/>
       </defs>
       <use xlink:href="#DejaVuSans-31"/>
       <use xlink:href="#DejaVuSans-30" x="63.623047"/>
      </g>
     </g>
    </g>
    <g id="xtick_11">
     <g id="line2d_21">
      <path d="M 552.103125 354.958125 
L 552.103125 22.318125 
" clip-path="url(#p26a778eb20)" style="fill: none; stroke-dasharray: 2.96,1.28; stroke-dashoffset: 0; stroke: #b0b0b0; stroke-opacity: 0.6; stroke-width: 0.8"/>
     </g>
     <g id="line2d_22">
      <g>
       <use xlink:href="#m88d5915f51" x="552.103125" y="354.958125" style="stroke: #000000; stroke-width: 0.8"/>
      </g>
     </g>
     <g id="text_11">
      <!-- 11 -->
      <g transform="translate(545.740625 369.556562) scale(0.1 -0.1)">
       <use xlink:href="#DejaVuSans-31"/>
       <use xlink:href="#DejaVuSans-31" x="63.623047"/>
      </g>
     </g>
    </g>
    <g id="text_12">
     <!-- Wi-Fi Channel -->
     <g transform="translate(285.560156 383.234687) scale(0.1 -0.1)">
      <defs>
       <path id="DejaVuSans-57" d="M 213 4666 
L 850 4666 
L 1831 722 
L 2809 4666 
L 3519 4666 
L 4500 722 
L 5478 4666 
L 6119 4666 
L 4947 0 
L 4153 0 
L 3169 4050 
L 2175 0 
L 1381 0 
L 213 4666 
z
" transform="scale(0.015625)"/>
       <path id="DejaVuSans-69" d="M 603 3500 
L 1178 3500 
L 1178 0 
L 603 0 
L 603 3500 
z
M 603 4863 
L 1178 4863 
L 1178 4134 
L 603 4134 
L 603 4863 
z
" transform="scale(0.015625)"/>
       <path id="DejaVuSans-2d" d="M 313 2009 
L 1997 2009 
L 1997 1497 
L 313 1497 
L 313 2009 
z
" transform="scale(0.015625)"/>
       <path id="DejaVuSans-46" d="M 628 4666 
L 3309 4666 
L 3309 4134 
L 1259 4134 
L 1259 2759 
L 3109 2759 
L 3109 2228 
L 1259 2228 
L 1259 0 
L 628 0 
L 628 4666 
z
" transform="scale(0.015625)"/>
       <path id="DejaVuSans-20" transform="scale(0.015625)"/>
       <path id="DejaVuSans-43" d="M 4122 4306 
L 4122 3641 
Q 3803 3938 3442 4084 
Q 3081 4231 2675 4231 
Q 1875 4231 1450 3742 
Q 1025 3253 1025 2328 
Q 1025 1406 1450 917 
Q 1875 428 2675 428 
Q 3081 428 3442 575 
Q 3803 722 4122 1019 
L 4122 359 
Q 3791 134 3420 21 
Q 3050 -91 2638 -91 
Q 1578 -91 968 557 
Q 359 1206 359 2328 
Q 359 3453 968 4101 
Q 1578 4750 2638 4750 
Q 3056 4750 3426 4639 
Q 3797 4528 4122 4306 
z
" transform="scale(0.015625)"/>
       <path id="DejaVuSans-68" d="M 3513 2113 
L 3513 0 
L 2938 0 
L 2938 2094 
Q 2938 2591 2744 2837 
Q 2550 3084 2163 3084 
Q 1697 3084 1428 2787 
Q 1159 2491 1159 1978 
L 1159 0 
L 581 0 
L 581 4863 
L 1159 4863 
L 1159 2956 
Q 1366 3272 1645 3428 
Q 1925 3584 2291 3584 
Q 2894 3584 3203 3211 
Q 3513 2838 3513 2113 
z
" transform="scale(0.015625)"/>
       <path id="DejaVuSans-61" d="M 2194 1759 
Q 1497 1759 1228 1600 
Q 959 1441 959 1056 
Q 959 750 1161 570 
Q 1363 391 1709 391 
Q 2188 391 2477 730 
Q 2766 1069 2766 1631 
L 2766 1759 
L 2194 1759 
z
M 3341 1997 
L 3341 0 
L 2766 0 
L 2766 531 
Q 2569 213 2275 61 
Q 1981 -91 1556 -91 
Q 1019 -91 701 211 
Q 384 513 384 1019 
Q 384 1609 779 1909 
Q 1175 2209 1959 2209 
L 2766 2209 
L 2766 2266 
Q 2766 2663 2505 2880 
Q 2244 3097 1772 3097 
Q 1472 3097 1187 3025 
Q 903 2953 641 2809 
L 641 3341 
Q 956 3463 1253 3523 
Q 1550 3584 1831 3584 
Q 2591 3584 2966 3190 
Q 3341 2797 3341 1997 
z
" transform="scale(0.015625)"/>
       <path id="DejaVuSans-6e" d="M 3513 2113 
L 3513 0 
L 2938 0 
L 2938 2094 
Q 2938 2591 2744 2837 
Q 2550 3084 2163 3084 
Q 1697 3084 1428 2787 
Q 1159 2491 1159 1978 
L 1159 0 
L 581 0 
L 581 3500 
L 1159 3500 
L 1159 2956 
Q 1366 3272 1645 3428 
Q 1925 3584 2291 3584 
Q 2894 3584 3203 3211 
Q 3513 2838 3513 2113 
z
" transform="scale(0.015625)"/>
       <path id="DejaVuSans-65" d="M 3597 1894 
L 3597 1613 
L 953 1613 
Q 991 1019 1311 708 
Q 1631 397 2203 397 
Q 2534 397 2845 478 
Q 3156 559 3463 722 
L 3463 178 
Q 3153 47 2828 -22 
Q 2503 -91 2169 -91 
Q 1331 -91 842 396 
Q 353 884 353 1716 
Q 353 2575 817 3079 
Q 1281 3584 2069 3584 
Q 2775 3584 3186 3129 
Q 3597 2675 3597 1894 
z
M 3022 2063 
Q 3016 2534 2758 2815 
Q 2500 3097 2075 3097 
Q 1594 3097 1305 2825 
Q 1016 2553 972 2059 
L 3022 2063 
z
" transform="scale(0.015625)"/>
       <path id="DejaVuSans-6c" d="M 603 4863 
L 1178 4863 
L 1178 0 
L 603 0 
L 603 4863 
z
" transform="scale(0.015625)"/>
      </defs>
      <use xlink:href="#DejaVuSans-57"/>
      <use xlink:href="#DejaVuSans-69" x="96.626953"/>
      <use xlink:href="#DejaVuSans-2d" x="124.410156"/>
      <use xlink:href="#DejaVuSans-46" x="160.494141"/>
      <use xlink:href="#DejaVuSans-69" x="210.763672"/>
      <use xlink:href="#DejaVuSans-20" x="238.546875"/>
      <use xlink:href="#DejaVuSans-43" x="270.333984"/>
      <use xlink:href="#DejaVuSans-68" x="340.158203"/>
      <use xlink:href="#DejaVuSans-61" x="403.537109"/>
      <use xlink:href="#DejaVuSans-6e" x="464.816406"/>
      <use xlink:href="#DejaVuSans-6e" x="528.195312"/>
      <use xlink:href="#DejaVuSans-65" x="591.574219"/>
      <use xlink:href="#DejaVuSans-6c" x="653.097656"/>
     </g>
    </g>
   </g>
   <g id="matplotlib.axis_2">
    <g id="ytick_1">
     <g id="line2d_23">
      <path d="M 40.603125 354.958125 
L 598.603125 354.958125 
" clip-path="url(#p26a778eb20)" style="fill: none; stroke-dasharray: 2.96,1.28; stroke-dashoffset: 0; stroke: #b0b0b0; stroke-opacity: 0.6; stroke-width: 0.8"/>
     </g>
     <g id="line2d_24">
      <defs>
       <path id="m132688b027" d="M 0 0 
L -3.5 0 
" style="stroke: #000000; stroke-width: 0.8"/>
      </defs>
      <g>
       <use xlink:href="#m132688b027" x="40.603125" y="354.958125" style="stroke: #000000; stroke-width: 0.8"/>
      </g>
     </g>
     <g id="text_13">
      <!-- 0 -->
      <g transform="translate(27.240625 358.757344) scale(0.1 -0.1)">
       <use xlink:href="#DejaVuSans-30"/>
      </g>
     </g>
    </g>
    <g id="ytick_2">
     <g id="line2d_25">
      <path d="M 40.603125 282.645082 
L 598.603125 282.645082 
" clip-path="url(#p26a778eb20)" style="fill: none; stroke-dasharray: 2.96,1.28; stroke-dashoffset: 0; stroke: #b0b0b0; stroke-opacity: 0.6; stroke-width: 0.8"/>
     </g>
     <g id="line2d_26">
      <g>
       <use xlink:href="#m132688b027" x="40.603125" y="282.645082" style="stroke: #000000; stroke-width: 0.8"/>
      </g>
     </g>
     <g id="text_14">
      <!-- 20 -->
      <g transform="translate(20.878125 286.4443) scale(0.1 -0.1)">
       <use xlink:href="#DejaVuSans-32"/>
       <use xlink:href="#DejaVuSans-30" x="63.623047"/>
      </g>
     </g>
    </g>
    <g id="ytick_3">
     <g id="line2d_27">
      <path d="M 40.603125 210.332038 
L 598.603125 210.332038 
" clip-path="url(#p26a778eb20)" style="fill: none; stroke-dasharray: 2.96,1.28; stroke-dashoffset: 0; stroke: #b0b0b0; stroke-opacity: 0.6; stroke-width: 0.8"/>
     </g>
     <g id="line2d_28">
      <g>
       <use xlink:href="#m132688b027" x="40.603125" y="210.332038" style="stroke: #000000; stroke-width: 0.8"/>
      </g>
     </g>
     <g id="text_15">
      <!-- 40 -->
      <g transform="translate(20.878125 214.131257) scale(0.1 -0.1)">
       <use xlink:href="#DejaVuSans-34"/>
       <use xlink:href="#DejaVuSans-30" x="63.623047"/>
      </g>
     </g>
    </g>
    <g id="ytick_4">
     <g id="line2d_29">
      <path d="M 40.603125 138.018995 
L 598.603125 138.018995 
" clip-path="url(#p26a778eb20)" style="fill: none; stroke-dasharray: 2.96,1.28; stroke-dashoffset: 0; stroke: #b0b0b0; stroke-opacity: 0.6; stroke-width: 0.8"/>
     </g>
     <g id="line2d_30">
      <g>
       <use xlink:href="#m132688b027" x="40.603125" y="138.018995" style="stroke: #000000; stroke-width: 0.8"/>
      </g>
     </g>
     <g id="text_16">
      <!-- 60 -->
      <g transform="translate(20.878125 141.818213) scale(0.1 -0.1)">
       <use xlink:href="#DejaVuSans-36"/>
       <use xlink:href="#DejaVuSans-30" x="63.623047"/>
      </g>
     </g>
    </g>
    <g id="ytick_5">
     <g id="line2d_31">
      <path d="M 40.603125 65.705951 
L 598.603125 65.705951 
" clip-path="url(#p26a778eb20)" style="fill: none; stroke-dasharray: 2.96,1.28; stroke-dashoffset: 0; stroke: #b0b0b0; stroke-opacity: 0.6; stroke-width: 0.8"/>
     </g>
     <g id="line2d_32">
      <g>
       <use xlink:href="#m132688b027" x="40.603125" y="65.705951" style="stroke: #000000; stroke-width: 0.8"/>
      </g>
     </g>
     <g id="text_17">
      <!-- 80 -->
      <g transform="translate(20.878125 69.50517) scale(0.1 -0.1)">
       <use xlink:href="#DejaVuSans-38"/>
       <use xlink:href="#DejaVuSans-30" x="63.623047"/>
      </g>
     </g>
    </g>
    <g id="text_18">
     <!-- RSSI -->
     <g transform="translate(14.798437 199.935781) rotate(-90) scale(0.1 -0.1)">
      <defs>
       <path id="DejaVuSans-52" d="M 2841 2188 
Q 3044 2119 3236 1894 
Q 3428 1669 3622 1275 
L 4263 0 
L 3584 0 
L 2988 1197 
Q 2756 1666 2539 1819 
Q 2322 1972 1947 1972 
L 1259 1972 
L 1259 0 
L 628 0 
L 628 4666 
L 2053 4666 
Q 2853 4666 3247 4331 
Q 3641 3997 3641 3322 
Q 3641 2881 3436 2590 
Q 3231 2300 2841 2188 
z
M 1259 4147 
L 1259 2491 
L 2053 2491 
Q 2509 2491 2742 2702 
Q 2975 2913 2975 3322 
Q 2975 3731 2742 3939 
Q 2509 4147 2053 4147 
L 1259 4147 
z
" transform="scale(0.015625)"/>
       <path id="DejaVuSans-53" d="M 3425 4513 
L 3425 3897 
Q 3066 4069 2747 4153 
Q 2428 4238 2131 4238 
Q 1616 4238 1336 4038 
Q 1056 3838 1056 3469 
Q 1056 3159 1242 3001 
Q 1428 2844 1947 2747 
L 2328 2669 
Q 3034 2534 3370 2195 
Q 3706 1856 3706 1288 
Q 3706 609 3251 259 
Q 2797 -91 1919 -91 
Q 1588 -91 1214 -16 
Q 841 59 441 206 
L 441 856 
Q 825 641 1194 531 
Q 1563 422 1919 422 
Q 2459 422 2753 634 
Q 3047 847 3047 1241 
Q 3047 1584 2836 1778 
Q 2625 1972 2144 2069 
L 1759 2144 
Q 1053 2284 737 2584 
Q 422 2884 422 3419 
Q 422 4038 858 4394 
Q 1294 4750 2059 4750 
Q 2388 4750 2728 4690 
Q 3069 4631 3425 4513 
z
" transform="scale(0.015625)"/>
       <path id="DejaVuSans-49" d="M 628 4666 
L 1259 4666 
L 1259 0 
L 628 0 
L 628 4666 
z
" transform="scale(0.015625)"/>
      </defs>
      <use xlink:href="#DejaVuSans-52"/>
      <use xlink:href="#DejaVuSans-53" x="69.482422"/>
      <use xlink:href="#DejaVuSans-53" x="132.958984"/>
      <use xlink:href="#DejaVuSans-49" x="196.435547"/>
     </g>
    </g>
   </g>
   <g id="line2d_33">
    <path d="M 40.603125 354.958125 
L 598.603125 354.958125 
" clip-path="url(#p26a778eb20)" style="fill: none; stroke: #000000; stroke-width: 0.8; stroke-linecap: square"/>
   </g>
   <g id="patch_37">
    <path d="M 40.603125 354.958125 
L 40.603125 22.318125 
" style="fill: none; stroke: #000000; stroke-width: 0.8; stroke-linejoin: miter; stroke-linecap: square"/>
   </g>
   <g id="patch_38">
    <path d="M 598.603125 354.958125 
L 598.603125 22.318125 
" style="fill: none; stroke: #000000; stroke-width: 0.8; stroke-linejoin: miter; stroke-linecap: square"/>
   </g>
   <g id="patch_39">
    <path d="M 40.603125 354.958125 
L 598.603125 354.958125 
" style="fill: none; stroke: #000000; stroke-width: 0.8; stroke-linejoin: miter; stroke-linecap: square"/>
   </g>
   <g id="patch_40">
    <path d="M 40.603125 22.318125 
L 598.603125 22.318125 
" style="fill: none; stroke: #000000; stroke-width: 0.8; stroke-linejoin: miter; stroke-linecap: square"/>
   </g>
   <g id="text_19">
    <!-- Wi-Fi Network Signal Strength -->
    <g transform="translate(230.136562 16.318125) scale(0.12 -0.12)">
     <defs>
      <path id="DejaVuSans-4e" d="M 628 4666 
L 1478 4666 
L 3547 763 
L 3547 4666 
L 4159 4666 
L 4159 0 
L 3309 0 
L 1241 3903 
L 1241 0 
L 628 0 
L 628 4666 
z
" transform="scale(0.015625)"/>
      <path id="DejaVuSans-74" d="M 1172 4494 
L 1172 3500 
L 2356 3500 
L 2356 3053 
L 1172 3053 
L 1172 1153 
Q 1172 725 1289 603 
Q 1406 481 1766 481 
L 2356 481 
L 2356 0 
L 1766 0 
Q 1100 0 847 248 
Q 594 497 594 1153 
L 594 3053 
L 172 3053 
L 172 3500 
L 594 3500 
L 594 4494 
L 1172 4494 
z
" transform="scale(0.015625)"/>
      <path id="DejaVuSans-77" d="M 269 3500 
L 844 3500 
L 1563 769 
L 2278 3500 
L 2956 3500 
L 3675 769 
L 4391 3500 
L 4966 3500 
L 4050 0 
L 3372 0 
L 2619 2869 
L 1863 0 
L 1184 0 
L 269 3500 
z
" transform="scale(0.015625)"/>
      <path id="DejaVuSans-6f" d="M 1959 3097 
Q 1497 3097 1228 2736 
Q 959 2375 959 1747 
Q 959 1119 1226 758 
Q 1494 397 1959 397 
Q 2419 397 2687 759 
Q 2956 1122 2956 1747 
Q 2956 2369 2687 2733 
Q 2419 3097 1959 3097 
z
M 1959 3584 
Q 2709 3584 3137 3096 
Q 3566 2609 3566 1747 
Q 3566 888 3137 398 
Q 2709 -91 1959 -91 
Q 1206 -91 779 398 
Q 353 888 353 1747 
Q 353 2609 779 3096 
Q 1206 3584 1959 3584 
z
" transform="scale(0.015625)"/>
      <path id="DejaVuSans-72" d="M 2631 2963 
Q 2534 3019 2420 3045 
Q 2306 3072 2169 3072 
Q 1681 3072 1420 2755 
Q 1159 2438 1159 1844 
L 1159 0 
L 581 0 
L 581 3500 
L 1159 3500 
L 1159 2956 
Q 1341 3275 1631 3429 
Q 1922 3584 2338 3584 
Q 2397 3584 2469 3576 
Q 2541 3569 2628 3553 
L 2631 2963 
z
" transform="scale(0.015625)"/>
      <path id="DejaVuSans-6b" d="M 581 4863 
L 1159 4863 
L 1159 1991 
L 2875 3500 
L 3609 3500 
L 1753 1863 
L 3688 0 
L 2938 0 
L 1159 1709 
L 1159 0 
L 581 0 
L 581 4863 
z
" transform="scale(0.015625)"/>
      <path id="DejaVuSans-67" d="M 2906 1791 
Q 2906 2416 2648 2759 
Q 2391 3103 1925 3103 
Q 1463 3103 1205 2759 
Q 947 2416 947 1791 
Q 947 1169 1205 825 
Q 1463 481 1925 481 
Q 2391 481 2648 825 
Q 2906 1169 2906 1791 
z
M 3481 434 
Q 3481 -459 3084 -895 
Q 2688 -1331 1869 -1331 
Q 1566 -1331 1297 -1286 
Q 1028 -1241 775 -1147 
L 775 -588 
Q 1028 -725 1275 -790 
Q 1522 -856 1778 -856 
Q 2344 -856 2625 -561 
Q 2906 -266 2906 331 
L 2906 616 
Q 2728 306 2450 153 
Q 2172 0 1784 0 
Q 1141 0 747 490 
Q 353 981 353 1791 
Q 353 2603 747 3093 
Q 1141 3584 1784 3584 
Q 2172 3584 2450 3431 
Q 2728 3278 2906 2969 
L 2906 3500 
L 3481 3500 
L 3481 434 
z
" transform="scale(0.015625)"/>
     </defs>
     <use xlink:href="#DejaVuSans-57"/>
     <use xlink:href="#DejaVuSans-69" x="96.626953"/>
     <use xlink:href="#DejaVuSans-2d" x="124.410156"/>
     <use xlink:href="#DejaVuSans-46" x="160.494141"/>
     <use xlink:href="#DejaVuSans-69" x="210.763672"/>
     <use xlink:href="#DejaVuSans-20" x="238.546875"/>
     <use xlink:href="#DejaVuSans-4e" x="270.333984"/>
     <use xlink:href="#DejaVuSans-65" x="345.138672"/>
     <use xlink:href="#DejaVuSans-74" x="406.662109"/>
     <use xlink:href="#DejaVuSans-77" x="445.871094"/>
     <use xlink:href="#DejaVuSans-6f" x="527.658203"/>
     <use xlink:href="#DejaVuSans-72" x="588.839844"/>
     <use xlink:href="#DejaVuSans-6b" x="629.953125"/>
     <use xlink:href="#DejaVuSans-20" x="687.863281"/>
     <use xlink:href="#DejaVuSans-53" x="719.650391"/>
     <use xlink:href="#DejaVuSans-69" x="783.126953"/>
     <use xlink:href="#DejaVuSans-67" x="810.910156"/>
     <use xlink:href="#DejaVuSans-6e" x="874.386719"/>
     <use xlink:href="#DejaVuSans-61" x="937.765625"/>
     <use xlink:href="#DejaVuSans-6c" x="999.044922"/>
     <use xlink:href="#DejaVuSans-20" x="1026.828125"/>
     <use xlink:href="#DejaVuSans-53" x="1058.615234"/>
     <use xlink:href="#DejaVuSans-74" x="1122.091797"/>
     <use xlink:href="#DejaVuSans-72" x="1161.300781"/>
     <use xlink:href="#DejaVuSans-65" x="1200.164062"/>
     <use xlink:href="#DejaVuSans-6e" x="1261.6875"/>
     <use xlink:href="#DejaVuSans-67" x="1325.066406"/>
     <use xlink:href="#DejaVuSans-74" x="1388.542969"/>
     <use xlink:href="#DejaVuSans-68" x="1427.751953"/>
    </g>
   </g>
  </g>
 </g>
 <defs>
  <clipPath id="p26a778eb20">
   <rect x="40.603125" y="22.318125" width="558" height="332.64"/>
  </clipPath>
 </defs>
</svg>
