<?xml version="1.0" encoding="utf-8" standalone="no"?>
<!DOCTYPE svg PUBLIC "-//W3C//DTD SVG 1.1//EN"
  "http://www.w3.org/Graphics/SVG/1.1/DTD/svg11.dtd">
<svg xmlns:xlink="http://www.w3.org/1999/xlink" width="605.803125pt" height="266.51625pt" viewBox="0 0 605.803125 266.51625" xmlns="http://www.w3.org/2000/svg" version="1.1">
 <metadata>
  <rdf:RDF xmlns:dc="http://purl.org/dc/elements/1.1/" xmlns:cc="http://creativecommons.org/ns#" xmlns:rdf="http://www.w3.org/1999/02/22-rdf-syntax-ns#">
   <cc:Work>
    <dc:type rdf:resource="http://purl.org/dc/dcmitype/StillImage"/>
    <dc:date>2024-12-12T18:41:35.277549</dc:date>
    <dc:format>image/svg+xml</dc:format>
    <dc:creator>
     <cc:Agent>
      <dc:title>Matplotlib v3.9.0, https://matplotlib.org/</dc:title>
     </cc:Agent>
    </dc:creator>
   </cc:Work>
  </rdf:RDF>
 </metadata>
 <defs>
  <style type="text/css">*{stroke-linejoin: round; stroke-linecap: butt}</style>
 </defs>
 <g id="figure_1">
  <g id="patch_1">
   <path d="M 0 266.51625 
L 605.803125 266.51625 
L 605.803125 0 
L 0 0 
z
" style="fill: #ffffff"/>
  </g>
  <g id="axes_1">
   <g id="patch_2">
    <path d="M 40.603125 228.96 
L 598.603125 228.96 
L 598.603125 7.2 
L 40.603125 7.2 
z
" style="fill: #ffffff"/>
   </g>
   <g id="patch_3">
    <path d="M 88.265625 228.96 
C 88.265625 202.120241 86.427211 176.352315 83.158299 157.373739 
C 79.889388 138.395164 75.451064 127.721739 70.828125 127.721739 
C 66.205186 127.721739 61.766862 138.395164 58.497951 157.373739 
C 55.229039 176.352315 53.390625 202.120241 53.390625 228.96 
" clip-path="url(#p8c478ed0c3)" style="fill: none; opacity: 0.6; stroke: #1b9e77; stroke-linejoin: miter"/>
   </g>
   <g id="patch_4">
    <path d="M 90.590625 228.96 
C 90.590625 202.120241 88.752211 176.352315 85.483299 157.373739 
C 82.214388 138.395164 77.776064 127.721739 73.153125 127.721739 
C 68.530186 127.721739 64.091862 138.395164 60.822951 157.373739 
C 57.554039 176.352315 55.715625 202.120241 55.715625 228.96 
" clip-path="url(#p8c478ed0c3)" style="fill: none; opacity: 0.6; stroke: #1b9e77; stroke-linejoin: miter"/>
   </g>
   <g id="patch_5">
    <path d="M 92.915625 228.96 
C 92.915625 202.120241 91.077211 176.352315 87.808299 157.373739 
C 84.539388 138.395164 80.101064 127.721739 75.478125 127.721739 
C 70.855186 127.721739 66.416862 138.395164 63.147951 157.373739 
C 59.879039 176.352315 58.040625 202.120241 58.040625 228.96 
" clip-path="url(#p8c478ed0c3)" style="fill: none; opacity: 0.6; stroke: #1b9e77; stroke-linejoin: miter"/>
   </g>
   <g id="patch_6">
    <path d="M 95.240625 228.96 
C 95.240625 200.842158 93.402211 173.847187 90.133299 153.96487 
C 86.864388 134.082553 82.426064 122.90087 77.803125 122.90087 
C 73.180186 122.90087 68.741862 134.082553 65.472951 153.96487 
C 62.204039 173.847187 60.365625 200.842158 60.365625 228.96 
" clip-path="url(#p8c478ed0c3)" style="fill: none; opacity: 0.6; stroke: #1b9e77; stroke-linejoin: miter"/>
   </g>
   <g id="patch_7">
    <path d="M 97.565625 228.96 
C 97.565625 200.842158 95.727211 173.847187 92.458299 153.96487 
C 89.189388 134.082553 84.751064 122.90087 80.128125 122.90087 
C 75.505186 122.90087 71.066862 134.082553 67.797951 153.96487 
C 64.529039 173.847187 62.690625 200.842158 62.690625 228.96 
" clip-path="url(#p8c478ed0c3)" style="fill: none; opacity: 0.6; stroke: #1b9e77; stroke-linejoin: miter"/>
   </g>
   <g id="patch_8">
    <path d="M 99.890625 228.96 
C 99.890625 200.842158 98.052211 173.847187 94.783299 153.96487 
C 91.514388 134.082553 87.076064 122.90087 82.453125 122.90087 
C 77.830186 122.90087 73.391862 134.082553 70.122951 153.96487 
C 66.854039 173.847187 65.015625 200.842158 65.015625 228.96 
" clip-path="url(#p8c478ed0c3)" style="fill: none; opacity: 0.6; stroke: #1b9e77; stroke-linejoin: miter"/>
   </g>
   <g id="patch_9">
    <path d="M 102.215625 228.96 
C 102.215625 199.564074 100.377211 171.342059 97.108299 150.556 
C 93.839388 129.769941 89.401064 118.08 84.778125 118.08 
C 80.155186 118.08 75.716862 129.769941 72.447951 150.556 
C 69.179039 171.342059 67.340625 199.564074 67.340625 228.96 
" clip-path="url(#p8c478ed0c3)" style="fill: none; opacity: 0.6; stroke: #1b9e77; stroke-linejoin: miter"/>
   </g>
   <g id="patch_10">
    <path d="M 104.540625 228.96 
C 104.540625 182.948985 102.702211 138.775396 99.433299 106.240696 
C 96.164388 73.705995 91.726064 55.408696 87.103125 55.408696 
C 82.480186 55.408696 78.041862 73.705995 74.772951 106.240696 
C 71.504039 138.775396 69.665625 182.948985 69.665625 228.96 
" clip-path="url(#p8c478ed0c3)" style="fill: none; opacity: 0.6; stroke: #1b9e77; stroke-linejoin: miter"/>
   </g>
   <g id="patch_11">
    <path d="M 106.865625 228.96 
C 106.865625 181.670902 105.027211 136.270268 101.758299 102.831826 
C 98.489388 69.393384 94.051064 50.587826 89.428125 50.587826 
C 84.805186 50.587826 80.366862 69.393384 77.097951 102.831826 
C 73.829039 136.270268 71.990625 181.670902 71.990625 228.96 
" clip-path="url(#p8c478ed0c3)" style="fill: none; opacity: 0.6; stroke: #1b9e77; stroke-linejoin: miter"/>
   </g>
   <g id="patch_12">
    <path d="M 109.190625 228.96 
C 109.190625 181.670902 107.352211 136.270268 104.083299 102.831826 
C 100.814388 69.393384 96.376064 50.587826 91.753125 50.587826 
C 87.130186 50.587826 82.691862 69.393384 79.422951 102.831826 
C 76.154039 136.270268 74.315625 181.670902 74.315625 228.96 
" clip-path="url(#p8c478ed0c3)" style="fill: none; opacity: 0.6; stroke: #1b9e77; stroke-linejoin: miter"/>
   </g>
   <g id="patch_13">
    <path d="M 111.515625 228.96 
C 111.515625 180.392818 109.677211 133.765141 106.408299 99.422957 
C 103.139388 65.080773 98.701064 45.766957 94.078125 45.766957 
C 89.455186 45.766957 85.016862 65.080773 81.747951 99.422957 
C 78.479039 133.765141 76.640625 180.392818 76.640625 228.96 
" clip-path="url(#p8c478ed0c3)" style="fill: none; opacity: 0.6; stroke: #1b9e77; stroke-linejoin: miter"/>
   </g>
   <g id="patch_14">
    <path d="M 113.840625 228.96 
C 113.840625 180.392818 112.002211 133.765141 108.733299 99.422957 
C 105.464388 65.080773 101.026064 45.766957 96.403125 45.766957 
C 91.780186 45.766957 87.341862 65.080773 84.072951 99.422957 
C 80.804039 133.765141 78.965625 180.392818 78.965625 228.96 
" clip-path="url(#p8c478ed0c3)" style="fill: none; opacity: 0.6; stroke: #1b9e77; stroke-linejoin: miter"/>
   </g>
   <g id="patch_15">
    <path d="M 116.165625 228.96 
C 116.165625 180.392818 114.327211 133.765141 111.058299 99.422957 
C 107.789388 65.080773 103.351064 45.766957 98.728125 45.766957 
C 94.105186 45.766957 89.666862 65.080773 86.397951 99.422957 
C 83.129039 133.765141 81.290625 180.392818 81.290625 228.96 
" clip-path="url(#p8c478ed0c3)" style="fill: none; opacity: 0.6; stroke: #1b9e77; stroke-linejoin: miter"/>
   </g>
   <g id="patch_16">
    <path d="M 118.490625 228.96 
C 118.490625 180.392818 116.652211 133.765141 113.383299 99.422957 
C 110.114388 65.080773 105.676064 45.766957 101.053125 45.766957 
C 96.430186 45.766957 91.991862 65.080773 88.722951 99.422957 
C 85.454039 133.765141 83.615625 180.392818 83.615625 228.96 
" clip-path="url(#p8c478ed0c3)" style="fill: none; opacity: 0.6; stroke: #1b9e77; stroke-linejoin: miter"/>
   </g>
   <g id="patch_17">
    <path d="M 327.740625 228.96 
C 327.740625 203.398325 325.902211 178.857442 322.633299 160.782609 
C 319.364388 142.707775 314.926064 132.542609 310.303125 132.542609 
C 305.680186 132.542609 301.241862 142.707775 297.972951 160.782609 
C 294.704039 178.857442 292.865625 203.398325 292.865625 228.96 
" clip-path="url(#p8c478ed0c3)" style="fill: none; opacity: 0.6; stroke: #d95f02; stroke-linejoin: miter"/>
   </g>
   <g id="patch_18">
    <path d="M 330.065625 228.96 
C 330.065625 202.120241 328.227211 176.352315 324.958299 157.373739 
C 321.689388 138.395164 317.251064 127.721739 312.628125 127.721739 
C 308.005186 127.721739 303.566862 138.395164 300.297951 157.373739 
C 297.029039 176.352315 295.190625 202.120241 295.190625 228.96 
" clip-path="url(#p8c478ed0c3)" style="fill: none; opacity: 0.6; stroke: #d95f02; stroke-linejoin: miter"/>
   </g>
   <g id="patch_19">
    <path d="M 332.390625 228.96 
C 332.390625 202.120241 330.552211 176.352315 327.283299 157.373739 
C 324.014388 138.395164 319.576064 127.721739 314.953125 127.721739 
C 310.330186 127.721739 305.891862 138.395164 302.622951 157.373739 
C 299.354039 176.352315 297.515625 202.120241 297.515625 228.96 
" clip-path="url(#p8c478ed0c3)" style="fill: none; opacity: 0.6; stroke: #d95f02; stroke-linejoin: miter"/>
   </g>
   <g id="patch_20">
    <path d="M 334.715625 228.96 
C 334.715625 200.842158 332.877211 173.847187 329.608299 153.96487 
C 326.339388 134.082553 321.901064 122.90087 317.278125 122.90087 
C 312.655186 122.90087 308.216862 134.082553 304.947951 153.96487 
C 301.679039 173.847187 299.840625 200.842158 299.840625 228.96 
" clip-path="url(#p8c478ed0c3)" style="fill: none; opacity: 0.6; stroke: #d95f02; stroke-linejoin: miter"/>
   </g>
   <g id="patch_21">
    <path d="M 337.040625 228.96 
C 337.040625 199.564074 335.202211 171.342059 331.933299 150.556 
C 328.664388 129.769941 324.226064 118.08 319.603125 118.08 
C 314.980186 118.08 310.541862 129.769941 307.272951 150.556 
C 304.004039 171.342059 302.165625 199.564074 302.165625 228.96 
" clip-path="url(#p8c478ed0c3)" style="fill: none; opacity: 0.6; stroke: #d95f02; stroke-linejoin: miter"/>
   </g>
   <g id="patch_22">
    <path d="M 339.365625 228.96 
C 339.365625 199.564074 337.527211 171.342059 334.258299 150.556 
C 330.989388 129.769941 326.551064 118.08 321.928125 118.08 
C 317.305186 118.08 312.866862 129.769941 309.597951 150.556 
C 306.329039 171.342059 304.490625 199.564074 304.490625 228.96 
" clip-path="url(#p8c478ed0c3)" style="fill: none; opacity: 0.6; stroke: #d95f02; stroke-linejoin: miter"/>
   </g>
   <g id="patch_23">
    <path d="M 341.690625 228.96 
C 341.690625 189.339404 339.852211 151.301036 336.583299 123.285044 
C 333.314388 95.269051 328.876064 79.513043 324.253125 79.513043 
C 319.630186 79.513043 315.191862 95.269051 311.922951 123.285044 
C 308.654039 151.301036 306.815625 189.339404 306.815625 228.96 
" clip-path="url(#p8c478ed0c3)" style="fill: none; opacity: 0.6; stroke: #d95f02; stroke-linejoin: miter"/>
   </g>
   <g id="patch_24">
    <path d="M 344.015625 228.96 
C 344.015625 188.06132 342.177211 148.795908 338.908299 119.876174 
C 335.639388 90.95644 331.201064 74.692174 326.578125 74.692174 
C 321.955186 74.692174 317.516862 90.95644 314.247951 119.876174 
C 310.979039 148.795908 309.140625 188.06132 309.140625 228.96 
" clip-path="url(#p8c478ed0c3)" style="fill: none; opacity: 0.6; stroke: #d95f02; stroke-linejoin: miter"/>
   </g>
   <g id="patch_25">
    <path d="M 382.378125 228.96 
C 382.378125 188.06132 380.539711 148.795908 377.270799 119.876174 
C 374.001888 90.95644 369.563564 74.692174 364.940625 74.692174 
C 360.317686 74.692174 355.879362 90.95644 352.610451 119.876174 
C 349.341539 148.795908 347.503125 188.06132 347.503125 228.96 
" clip-path="url(#p8c478ed0c3)" style="fill: none; opacity: 0.6; stroke: #7570b3; stroke-linejoin: miter"/>
   </g>
   <g id="patch_26">
    <path d="M 475.378125 228.96 
C 475.378125 177.83665 473.539711 128.754885 470.270799 92.605218 
C 467.001888 56.45555 462.563564 36.125217 457.940625 36.125217 
C 453.317686 36.125217 448.879362 56.45555 445.610451 92.605218 
C 442.341539 128.754885 440.503125 177.83665 440.503125 228.96 
" clip-path="url(#p8c478ed0c3)" style="fill: none; opacity: 0.6; stroke: #e7298a; stroke-linejoin: miter"/>
   </g>
   <g id="patch_27">
    <path d="M 557.915625 228.96 
C 557.915625 202.120241 556.077211 176.352315 552.808299 157.373739 
C 549.539388 138.395164 545.101064 127.721739 540.478125 127.721739 
C 535.855186 127.721739 531.416862 138.395164 528.147951 157.373739 
C 524.879039 176.352315 523.040625 202.120241 523.040625 228.96 
" clip-path="url(#p8c478ed0c3)" style="fill: none; opacity: 0.6; stroke: #66a61e; stroke-linejoin: miter"/>
   </g>
   <g id="patch_28">
    <path d="M 560.240625 228.96 
C 560.240625 202.120241 558.402211 176.352315 555.133299 157.373739 
C 551.864388 138.395164 547.426064 127.721739 542.803125 127.721739 
C 538.180186 127.721739 533.741862 138.395164 530.472951 157.373739 
C 527.204039 176.352315 525.365625 202.120241 525.365625 228.96 
" clip-path="url(#p8c478ed0c3)" style="fill: none; opacity: 0.6; stroke: #66a61e; stroke-linejoin: miter"/>
   </g>
   <g id="patch_29">
    <path d="M 562.565625 228.96 
C 562.565625 202.120241 560.727211 176.352315 557.458299 157.373739 
C 554.189388 138.395164 549.751064 127.721739 545.128125 127.721739 
C 540.505186 127.721739 536.066862 138.395164 532.797951 157.373739 
C 529.529039 176.352315 527.690625 202.120241 527.690625 228.96 
" clip-path="url(#p8c478ed0c3)" style="fill: none; opacity: 0.6; stroke: #66a61e; stroke-linejoin: miter"/>
   </g>
   <g id="patch_30">
    <path d="M 564.890625 228.96 
C 564.890625 200.842158 563.052211 173.847187 559.783299 153.96487 
C 556.514388 134.082553 552.076064 122.90087 547.453125 122.90087 
C 542.830186 122.90087 538.391862 134.082553 535.122951 153.96487 
C 531.854039 173.847187 530.015625 200.842158 530.015625 228.96 
" clip-path="url(#p8c478ed0c3)" style="fill: none; opacity: 0.6; stroke: #66a61e; stroke-linejoin: miter"/>
   </g>
   <g id="patch_31">
    <path d="M 567.215625 228.96 
C 567.215625 200.842158 565.377211 173.847187 562.108299 153.96487 
C 558.839388 134.082553 554.401064 122.90087 549.778125 122.90087 
C 545.155186 122.90087 540.716862 134.082553 537.447951 153.96487 
C 534.179039 173.847187 532.340625 200.842158 532.340625 228.96 
" clip-path="url(#p8c478ed0c3)" style="fill: none; opacity: 0.6; stroke: #66a61e; stroke-linejoin: miter"/>
   </g>
   <g id="patch_32">
    <path d="M 569.540625 228.96 
C 569.540625 200.842158 567.702211 173.847187 564.433299 153.96487 
C 561.164388 134.082553 556.726064 122.90087 552.103125 122.90087 
C 547.480186 122.90087 543.041862 134.082553 539.772951 153.96487 
C 536.504039 173.847187 534.665625 200.842158 534.665625 228.96 
" clip-path="url(#p8c478ed0c3)" style="fill: none; opacity: 0.6; stroke: #66a61e; stroke-linejoin: miter"/>
   </g>
   <g id="patch_33">
    <path d="M 571.865625 228.96 
C 571.865625 176.558567 570.027211 126.249757 566.758299 89.196348 
C 563.489388 52.142939 559.051064 31.304348 554.428125 31.304348 
C 549.805186 31.304348 545.366862 52.142939 542.097951 89.196348 
C 538.829039 126.249757 536.990625 176.558567 536.990625 228.96 
" clip-path="url(#p8c478ed0c3)" style="fill: none; opacity: 0.6; stroke: #66a61e; stroke-linejoin: miter"/>
   </g>
   <g id="patch_34">
    <path d="M 574.190625 228.96 
C 574.190625 176.558567 572.352211 126.249757 569.083299 89.196348 
C 565.814388 52.142939 561.376064 31.304348 556.753125 31.304348 
C 552.130186 31.304348 547.691862 52.142939 544.422951 89.196348 
C 541.154039 126.249757 539.315625 176.558567 539.315625 228.96 
" clip-path="url(#p8c478ed0c3)" style="fill: none; opacity: 0.6; stroke: #66a61e; stroke-linejoin: miter"/>
   </g>
   <g id="patch_35">
    <path d="M 576.515625 228.96 
C 576.515625 176.558567 574.677211 126.249757 571.408299 89.196348 
C 568.139388 52.142939 563.701064 31.304348 559.078125 31.304348 
C 554.455186 31.304348 550.016862 52.142939 546.747951 89.196348 
C 543.479039 126.249757 541.640625 176.558567 541.640625 228.96 
" clip-path="url(#p8c478ed0c3)" style="fill: none; opacity: 0.6; stroke: #66a61e; stroke-linejoin: miter"/>
   </g>
   <g id="patch_36">
    <path d="M 578.840625 228.96 
C 578.840625 176.558567 577.002211 126.249757 573.733299 89.196348 
C 570.464388 52.142939 566.026064 31.304348 561.403125 31.304348 
C 556.780186 31.304348 552.341862 52.142939 549.072951 89.196348 
C 545.804039 126.249757 543.965625 176.558567 543.965625 228.96 
" clip-path="url(#p8c478ed0c3)" style="fill: none; opacity: 0.6; stroke: #66a61e; stroke-linejoin: miter"/>
   </g>
   <g id="matplotlib.axis_1">
    <g id="xtick_1">
     <g id="line2d_1">
      <path d="M 87.103125 228.96 
L 87.103125 7.2 
" clip-path="url(#p8c478ed0c3)" style="fill: none; stroke-dasharray: 2.96,1.28; stroke-dashoffset: 0; stroke: #b0b0b0; stroke-opacity: 0.6; stroke-width: 0.8"/>
     </g>
     <g id="line2d_2">
      <defs>
       <path id="md8be0c96dc" d="M 0 0 
L 0 3.5 
" style="stroke: #000000; stroke-width: 0.8"/>
      </defs>
      <g>
       <use xlink:href="#md8be0c96dc" x="87.103125" y="228.96" style="stroke: #000000; stroke-width: 0.8"/>
      </g>
     </g>
     <g id="text_1">
      <!-- 1 -->
      <g transform="translate(83.921875 243.558437) scale(0.1 -0.1)">
       <defs>
        <path id="DejaVuSans-31" d="M 794 531 
L 1825 531 
L 1825 4091 
L 703 3866 
L 703 4441 
L 1819 4666 
L 2450 4666 
L 2450 531 
L 3481 531 
L 3481 0 
L 794 0 
L 794 531 
z
" transform="scale(0.015625)"/>
       </defs>
       <use xlink:href="#DejaVuSans-31"/>
      </g>
     </g>
    </g>
    <g id="xtick_2">
     <g id="line2d_3">
      <path d="M 133.603125 228.96 
L 133.603125 7.2 
" clip-path="url(#p8c478ed0c3)" style="fill: none; stroke-dasharray: 2.96,1.28; stroke-dashoffset: 0; stroke: #b0b0b0; stroke-opacity: 0.6; stroke-width: 0.8"/>
     </g>
     <g id="line2d_4">
      <g>
       <use xlink:href="#md8be0c96dc" x="133.603125" y="228.96" style="stroke: #000000; stroke-width: 0.8"/>
      </g>
     </g>
     <g id="text_2">
      <!-- 2 -->
      <g transform="translate(130.421875 243.558437) scale(0.1 -0.1)">
       <defs>
        <path id="DejaVuSans-32" d="M 1228 531 
L 3431 531 
L 3431 0 
L 469 0 
L 469 531 
Q 828 903 1448 1529 
Q 2069 2156 2228 2338 
Q 2531 2678 2651 2914 
Q 2772 3150 2772 3378 
Q 2772 3750 2511 3984 
Q 2250 4219 1831 4219 
Q 1534 4219 1204 4116 
Q 875 4013 500 3803 
L 500 4441 
Q 881 4594 1212 4672 
Q 1544 4750 1819 4750 
Q 2544 4750 2975 4387 
Q 3406 4025 3406 3419 
Q 3406 3131 3298 2873 
Q 3191 2616 2906 2266 
Q 2828 2175 2409 1742 
Q 1991 1309 1228 531 
z
" transform="scale(0.015625)"/>
       </defs>
       <use xlink:href="#DejaVuSans-32"/>
      </g>
     </g>
    </g>
    <g id="xtick_3">
     <g id="line2d_5">
      <path d="M 180.103125 228.96 
L 180.103125 7.2 
" clip-path="url(#p8c478ed0c3)" style="fill: none; stroke-dasharray: 2.96,1.28; stroke-dashoffset: 0; stroke: #b0b0b0; stroke-opacity: 0.6; stroke-width: 0.8"/>
     </g>
     <g id="line2d_6">
      <g>
       <use xlink:href="#md8be0c96dc" x="180.103125" y="228.96" style="stroke: #000000; stroke-width: 0.8"/>
      </g>
     </g>
     <g id="text_3">
      <!-- 3 -->
      <g transform="translate(176.921875 243.558437) scale(0.1 -0.1)">
       <defs>
        <path id="DejaVuSans-33" d="M 2597 2516 
Q 3050 2419 3304 2112 
Q 3559 1806 3559 1356 
Q 3559 666 3084 287 
Q 2609 -91 1734 -91 
Q 1441 -91 1130 -33 
Q 819 25 488 141 
L 488 750 
Q 750 597 1062 519 
Q 1375 441 1716 441 
Q 2309 441 2620 675 
Q 2931 909 2931 1356 
Q 2931 1769 2642 2001 
Q 2353 2234 1838 2234 
L 1294 2234 
L 1294 2753 
L 1863 2753 
Q 2328 2753 2575 2939 
Q 2822 3125 2822 3475 
Q 2822 3834 2567 4026 
Q 2313 4219 1838 4219 
Q 1578 4219 1281 4162 
Q 984 4106 628 3988 
L 628 4550 
Q 988 4650 1302 4700 
Q 1616 4750 1894 4750 
Q 2613 4750 3031 4423 
Q 3450 4097 3450 3541 
Q 3450 3153 3228 2886 
Q 3006 2619 2597 2516 
z
" transform="scale(0.015625)"/>
       </defs>
       <use xlink:href="#DejaVuSans-33"/>
      </g>
     </g>
    </g>
    <g id="xtick_4">
     <g id="line2d_7">
      <path d="M 226.603125 228.96 
L 226.603125 7.2 
" clip-path="url(#p8c478ed0c3)" style="fill: none; stroke-dasharray: 2.96,1.28; stroke-dashoffset: 0; stroke: #b0b0b0; stroke-opacity: 0.6; stroke-width: 0.8"/>
     </g>
     <g id="line2d_8">
      <g>
       <use xlink:href="#md8be0c96dc" x="226.603125" y="228.96" style="stroke: #000000; stroke-width: 0.8"/>
      </g>
     </g>
     <g id="text_4">
      <!-- 4 -->
      <g transform="translate(223.421875 243.558437) scale(0.1 -0.1)">
       <defs>
        <path id="DejaVuSans-34" d="M 2419 4116 
L 825 1625 
L 2419 1625 
L 2419 4116 
z
M 2253 4666 
L 3047 4666 
L 3047 1625 
L 3713 1625 
L 3713 1100 
L 3047 1100 
L 3047 0 
L 2419 0 
L 2419 1100 
L 313 1100 
L 313 1709 
L 2253 4666 
z
" transform="scale(0.015625)"/>
       </defs>
       <use xlink:href="#DejaVuSans-34"/>
      </g>
     </g>
    </g>
    <g id="xtick_5">
     <g id="line2d_9">
      <path d="M 273.103125 228.96 
L 273.103125 7.2 
" clip-path="url(#p8c478ed0c3)" style="fill: none; stroke-dasharray: 2.96,1.28; stroke-dashoffset: 0; stroke: #b0b0b0; stroke-opacity: 0.6; stroke-width: 0.8"/>
     </g>
     <g id="line2d_10">
      <g>
       <use xlink:href="#md8be0c96dc" x="273.103125" y="228.96" style="stroke: #000000; stroke-width: 0.8"/>
      </g>
     </g>
     <g id="text_5">
      <!-- 5 -->
      <g transform="translate(269.921875 243.558437) scale(0.1 -0.1)">
       <defs>
        <path id="DejaVuSans-35" d="M 691 4666 
L 3169 4666 
L 3169 4134 
L 1269 4134 
L 1269 2991 
Q 1406 3038 1543 3061 
Q 1681 3084 1819 3084 
Q 2600 3084 3056 2656 
Q 3513 2228 3513 1497 
Q 3513 744 3044 326 
Q 2575 -91 1722 -91 
Q 1428 -91 1123 -41 
Q 819 9 494 109 
L 494 744 
Q 775 591 1075 516 
Q 1375 441 1709 441 
Q 2250 441 2565 725 
Q 2881 1009 2881 1497 
Q 2881 1984 2565 2268 
Q 2250 2553 1709 2553 
Q 1456 2553 1204 2497 
Q 953 2441 691 2322 
L 691 4666 
z
" transform="scale(0.015625)"/>
       </defs>
       <use xlink:href="#DejaVuSans-35"/>
      </g>
     </g>
    </g>
    <g id="xtick_6">
     <g id="line2d_11">
      <path d="M 319.603125 228.96 
L 319.603125 7.2 
" clip-path="url(#p8c478ed0c3)" style="fill: none; stroke-dasharray: 2.96,1.28; stroke-dashoffset: 0; stroke: #b0b0b0; stroke-opacity: 0.6; stroke-width: 0.8"/>
     </g>
     <g id="line2d_12">
      <g>
       <use xlink:href="#md8be0c96dc" x="319.603125" y="228.96" style="stroke: #000000; stroke-width: 0.8"/>
      </g>
     </g>
     <g id="text_6">
      <!-- 6 -->
      <g transform="translate(316.421875 243.558437) scale(0.1 -0.1)">
       <defs>
        <path id="DejaVuSans-36" d="M 2113 2584 
Q 1688 2584 1439 2293 
Q 1191 2003 1191 1497 
Q 1191 994 1439 701 
Q 1688 409 2113 409 
Q 2538 409 2786 701 
Q 3034 994 3034 1497 
Q 3034 2003 2786 2293 
Q 2538 2584 2113 2584 
z
M 3366 4563 
L 3366 3988 
Q 3128 4100 2886 4159 
Q 2644 4219 2406 4219 
Q 1781 4219 1451 3797 
Q 1122 3375 1075 2522 
Q 1259 2794 1537 2939 
Q 1816 3084 2150 3084 
Q 2853 3084 3261 2657 
Q 3669 2231 3669 1497 
Q 3669 778 3244 343 
Q 2819 -91 2113 -91 
Q 1303 -91 875 529 
Q 447 1150 447 2328 
Q 447 3434 972 4092 
Q 1497 4750 2381 4750 
Q 2619 4750 2861 4703 
Q 3103 4656 3366 4563 
z
" transform="scale(0.015625)"/>
       </defs>
       <use xlink:href="#DejaVuSans-36"/>
      </g>
     </g>
    </g>
    <g id="xtick_7">
     <g id="line2d_13">
      <path d="M 366.103125 228.96 
L 366.103125 7.2 
" clip-path="url(#p8c478ed0c3)" style="fill: none; stroke-dasharray: 2.96,1.28; stroke-dashoffset: 0; stroke: #b0b0b0; stroke-opacity: 0.6; stroke-width: 0.8"/>
     </g>
     <g id="line2d_14">
      <g>
       <use xlink:href="#md8be0c96dc" x="366.103125" y="228.96" style="stroke: #000000; stroke-width: 0.8"/>
      </g>
     </g>
     <g id="text_7">
      <!-- 7 -->
      <g transform="translate(362.921875 243.558437) scale(0.1 -0.1)">
       <defs>
        <path id="DejaVuSans-37" d="M 525 4666 
L 3525 4666 
L 3525 4397 
L 1831 0 
L 1172 0 
L 2766 4134 
L 525 4134 
L 525 4666 
z
" transform="scale(0.015625)"/>
       </defs>
       <use xlink:href="#DejaVuSans-37"/>
      </g>
     </g>
    </g>
    <g id="xtick_8">
     <g id="line2d_15">
      <path d="M 412.603125 228.96 
L 412.603125 7.2 
" clip-path="url(#p8c478ed0c3)" style="fill: none; stroke-dasharray: 2.96,1.28; stroke-dashoffset: 0; stroke: #b0b0b0; stroke-opacity: 0.6; stroke-width: 0.8"/>
     </g>
     <g id="line2d_16">
      <g>
       <use xlink:href="#md8be0c96dc" x="412.603125" y="228.96" style="stroke: #000000; stroke-width: 0.8"/>
      </g>
     </g>
     <g id="text_8">
      <!-- 8 -->
      <g transform="translate(409.421875 243.558437) scale(0.1 -0.1)">
       <defs>
        <path id="DejaVuSans-38" d="M 2034 2216 
Q 1584 2216 1326 1975 
Q 1069 1734 1069 1313 
Q 1069 891 1326 650 
Q 1584 409 2034 409 
Q 2484 409 2743 651 
Q 3003 894 3003 1313 
Q 3003 1734 2745 1975 
Q 2488 2216 2034 2216 
z
M 1403 2484 
Q 997 2584 770 2862 
Q 544 3141 544 3541 
Q 544 4100 942 4425 
Q 1341 4750 2034 4750 
Q 2731 4750 3128 4425 
Q 3525 4100 3525 3541 
Q 3525 3141 3298 2862 
Q 3072 2584 2669 2484 
Q 3125 2378 3379 2068 
Q 3634 1759 3634 1313 
Q 3634 634 3220 271 
Q 2806 -91 2034 -91 
Q 1263 -91 848 271 
Q 434 634 434 1313 
Q 434 1759 690 2068 
Q 947 2378 1403 2484 
z
M 1172 3481 
Q 1172 3119 1398 2916 
Q 1625 2713 2034 2713 
Q 2441 2713 2670 2916 
Q 2900 3119 2900 3481 
Q 2900 3844 2670 4047 
Q 2441 4250 2034 4250 
Q 1625 4250 1398 4047 
Q 1172 3844 1172 3481 
z
" transform="scale(0.015625)"/>
       </defs>
       <use xlink:href="#DejaVuSans-38"/>
      </g>
     </g>
    </g>
    <g id="xtick_9">
     <g id="line2d_17">
      <path d="M 459.103125 228.96 
L 459.103125 7.2 
" clip-path="url(#p8c478ed0c3)" style="fill: none; stroke-dasharray: 2.96,1.28; stroke-dashoffset: 0; stroke: #b0b0b0; stroke-opacity: 0.6; stroke-width: 0.8"/>
     </g>
     <g id="line2d_18">
      <g>
       <use xlink:href="#md8be0c96dc" x="459.103125" y="228.96" style="stroke: #000000; stroke-width: 0.8"/>
      </g>
     </g>
     <g id="text_9">
      <!-- 9 -->
      <g transform="translate(455.921875 243.558437) scale(0.1 -0.1)">
       <defs>
        <path id="DejaVuSans-39" d="M 703 97 
L 703 672 
Q 941 559 1184 500 
Q 1428 441 1663 441 
Q 2288 441 2617 861 
Q 2947 1281 2994 2138 
Q 2813 1869 2534 1725 
Q 2256 1581 1919 1581 
Q 1219 1581 811 2004 
Q 403 2428 403 3163 
Q 403 3881 828 4315 
Q 1253 4750 1959 4750 
Q 2769 4750 3195 4129 
Q 3622 3509 3622 2328 
Q 3622 1225 3098 567 
Q 2575 -91 1691 -91 
Q 1453 -91 1209 -44 
Q 966 3 703 97 
z
M 1959 2075 
Q 2384 2075 2632 2365 
Q 2881 2656 2881 3163 
Q 2881 3666 2632 3958 
Q 2384 4250 1959 4250 
Q 1534 4250 1286 3958 
Q 1038 3666 1038 3163 
Q 1038 2656 1286 2365 
Q 1534 2075 1959 2075 
z
" transform="scale(0.015625)"/>
       </defs>
       <use xlink:href="#DejaVuSans-39"/>
      </g>
     </g>
    </g>
    <g id="xtick_10">
     <g id="line2d_19">
      <path d="M 505.603125 228.96 
L 505.603125 7.2 
" clip-path="url(#p8c478ed0c3)" style="fill: none; stroke-dasharray: 2.96,1.28; stroke-dashoffset: 0; stroke: #b0b0b0; stroke-opacity: 0.6; stroke-width: 0.8"/>
     </g>
     <g id="line2d_20">
      <g>
       <use xlink:href="#md8be0c96dc" x="505.603125" y="228.96" style="stroke: #000000; stroke-width: 0.8"/>
      </g>
     </g>
     <g id="text_10">
      <!-- 10 -->
      <g transform="translate(499.240625 243.558437) scale(0.1 -0.1)">
       <defs>
        <path id="DejaVuSans-30" d="M 2034 4250 
Q 1547 4250 1301 3770 
Q 1056 3291 1056 2328 
Q 1056 1369 1301 889 
Q 1547 409 2034 409 
Q 2525 409 2770 889 
Q 3016 1369 3016 2328 
Q 3016 3291 2770 3770 
Q 2525 4250 2034 4250 
z
M 2034 4750 
Q 2819 4750 3233 4129 
Q 3647 3509 3647 2328 
Q 3647 1150 3233 529 
Q 2819 -91 2034 -91 
Q 1250 -91 836 529 
Q 422 1150 422 2328 
Q 422 3509 836 4129 
Q 1250 4750 2034 4750 
z
" transform="scale(0.015625)"/>
       </defs>
       <use xlink:href="#DejaVuSans-31"/>
       <use xlink:href="#DejaVuSans-30" x="63.623047"/>
      </g>
     </g>
    </g>
    <g id="xtick_11">
     <g id="line2d_21">
      <path d="M 552.103125 228.96 
L 552.103125 7.2 
" clip-path="url(#p8c478ed0c3)" style="fill: none; stroke-dasharray: 2.96,1.28; stroke-dashoffset: 0; stroke: #b0b0b0; stroke-opacity: 0.6; stroke-width: 0.8"/>
     </g>
     <g id="line2d_22">
      <g>
       <use xlink:href="#md8be0c96dc" x="552.103125" y="228.96" style="stroke: #000000; stroke-width: 0.8"/>
      </g>
     </g>
     <g id="text_11">
      <!-- 11 -->
      <g transform="translate(545.740625 243.558437) scale(0.1 -0.1)">
       <use xlink:href="#DejaVuSans-31"/>
       <use xlink:href="#DejaVuSans-31" x="63.623047"/>
      </g>
     </g>
    </g>
    <g id="text_12">
     <!-- Wi-Fi Channel -->
     <g transform="translate(285.560156 257.236562) scale(0.1 -0.1)">
      <defs>
       <path id="DejaVuSans-57" d="M 213 4666 
L 850 4666 
L 1831 722 
L 2809 4666 
L 3519 4666 
L 4500 722 
L 5478 4666 
L 6119 4666 
L 4947 0 
L 4153 0 
L 3169 4050 
L 2175 0 
L 1381 0 
L 213 4666 
z
" transform="scale(0.015625)"/>
       <path id="DejaVuSans-69" d="M 603 3500 
L 1178 3500 
L 1178 0 
L 603 0 
L 603 3500 
z
M 603 4863 
L 1178 4863 
L 1178 4134 
L 603 4134 
L 603 4863 
z
" transform="scale(0.015625)"/>
       <path id="DejaVuSans-2d" d="M 313 2009 
L 1997 2009 
L 1997 1497 
L 313 1497 
L 313 2009 
z
" transform="scale(0.015625)"/>
       <path id="DejaVuSans-46" d="M 628 4666 
L 3309 4666 
L 3309 4134 
L 1259 4134 
L 1259 2759 
L 3109 2759 
L 3109 2228 
L 1259 2228 
L 1259 0 
L 628 0 
L 628 4666 
z
" transform="scale(0.015625)"/>
       <path id="DejaVuSans-20" transform="scale(0.015625)"/>
       <path id="DejaVuSans-43" d="M 4122 4306 
L 4122 3641 
Q 3803 3938 3442 4084 
Q 3081 4231 2675 4231 
Q 1875 4231 1450 3742 
Q 1025 3253 1025 2328 
Q 1025 1406 1450 917 
Q 1875 428 2675 428 
Q 3081 428 3442 575 
Q 3803 722 4122 1019 
L 4122 359 
Q 3791 134 3420 21 
Q 3050 -91 2638 -91 
Q 1578 -91 968 557 
Q 359 1206 359 2328 
Q 359 3453 968 4101 
Q 1578 4750 2638 4750 
Q 3056 4750 3426 4639 
Q 3797 4528 4122 4306 
z
" transform="scale(0.015625)"/>
       <path id="DejaVuSans-68" d="M 3513 2113 
L 3513 0 
L 2938 0 
L 2938 2094 
Q 2938 2591 2744 2837 
Q 2550 3084 2163 3084 
Q 1697 3084 1428 2787 
Q 1159 2491 1159 1978 
L 1159 0 
L 581 0 
L 581 4863 
L 1159 4863 
L 1159 2956 
Q 1366 3272 1645 3428 
Q 1925 3584 2291 3584 
Q 2894 3584 3203 3211 
Q 3513 2838 3513 2113 
z
" transform="scale(0.015625)"/>
       <path id="DejaVuSans-61" d="M 2194 1759 
Q 1497 1759 1228 1600 
Q 959 1441 959 1056 
Q 959 750 1161 570 
Q 1363 391 1709 391 
Q 2188 391 2477 730 
Q 2766 1069 2766 1631 
L 2766 1759 
L 2194 1759 
z
M 3341 1997 
L 3341 0 
L 2766 0 
L 2766 531 
Q 2569 213 2275 61 
Q 1981 -91 1556 -91 
Q 1019 -91 701 211 
Q 384 513 384 1019 
Q 384 1609 779 1909 
Q 1175 2209 1959 2209 
L 2766 2209 
L 2766 2266 
Q 2766 2663 2505 2880 
Q 2244 3097 1772 3097 
Q 1472 3097 1187 3025 
Q 903 2953 641 2809 
L 641 3341 
Q 956 3463 1253 3523 
Q 1550 3584 1831 3584 
Q 2591 3584 2966 3190 
Q 3341 2797 3341 1997 
z
" transform="scale(0.015625)"/>
       <path id="DejaVuSans-6e" d="M 3513 2113 
L 3513 0 
L 2938 0 
L 2938 2094 
Q 2938 2591 2744 2837 
Q 2550 3084 2163 3084 
Q 1697 3084 1428 2787 
Q 1159 2491 1159 1978 
L 1159 0 
L 581 0 
L 581 3500 
L 1159 3500 
L 1159 2956 
Q 1366 3272 1645 3428 
Q 1925 3584 2291 3584 
Q 2894 3584 3203 3211 
Q 3513 2838 3513 2113 
z
" transform="scale(0.015625)"/>
       <path id="DejaVuSans-65" d="M 3597 1894 
L 3597 1613 
L 953 1613 
Q 991 1019 1311 708 
Q 1631 397 2203 397 
Q 2534 397 2845 478 
Q 3156 559 3463 722 
L 3463 178 
Q 3153 47 2828 -22 
Q 2503 -91 2169 -91 
Q 1331 -91 842 396 
Q 353 884 353 1716 
Q 353 2575 817 3079 
Q 1281 3584 2069 3584 
Q 2775 3584 3186 3129 
Q 3597 2675 3597 1894 
z
M 3022 2063 
Q 3016 2534 2758 2815 
Q 2500 3097 2075 3097 
Q 1594 3097 1305 2825 
Q 1016 2553 972 2059 
L 3022 2063 
z
" transform="scale(0.015625)"/>
       <path id="DejaVuSans-6c" d="M 603 4863 
L 1178 4863 
L 1178 0 
L 603 0 
L 603 4863 
z
" transform="scale(0.015625)"/>
      </defs>
      <use xlink:href="#DejaVuSans-57"/>
      <use xlink:href="#DejaVuSans-69" x="96.626953"/>
      <use xlink:href="#DejaVuSans-2d" x="124.410156"/>
      <use xlink:href="#DejaVuSans-46" x="160.494141"/>
      <use xlink:href="#DejaVuSans-69" x="210.763672"/>
      <use xlink:href="#DejaVuSans-20" x="238.546875"/>
      <use xlink:href="#DejaVuSans-43" x="270.333984"/>
      <use xlink:href="#DejaVuSans-68" x="340.158203"/>
      <use xlink:href="#DejaVuSans-61" x="403.537109"/>
      <use xlink:href="#DejaVuSans-6e" x="464.816406"/>
      <use xlink:href="#DejaVuSans-6e" x="528.195312"/>
      <use xlink:href="#DejaVuSans-65" x="591.574219"/>
      <use xlink:href="#DejaVuSans-6c" x="653.097656"/>
     </g>
    </g>
   </g>
   <g id="matplotlib.axis_2">
    <g id="ytick_1">
     <g id="line2d_23">
      <path d="M 40.603125 228.96 
L 598.603125 228.96 
" clip-path="url(#p8c478ed0c3)" style="fill: none; stroke-dasharray: 2.96,1.28; stroke-dashoffset: 0; stroke: #b0b0b0; stroke-opacity: 0.6; stroke-width: 0.8"/>
     </g>
     <g id="line2d_24">
      <defs>
       <path id="mb62ec74f5e" d="M 0 0 
L -3.5 0 
" style="stroke: #000000; stroke-width: 0.8"/>
      </defs>
      <g>
       <use xlink:href="#mb62ec74f5e" x="40.603125" y="228.96" style="stroke: #000000; stroke-width: 0.8"/>
      </g>
     </g>
     <g id="text_13">
      <!-- 0 -->
      <g transform="translate(27.240625 232.759219) scale(0.1 -0.1)">
       <use xlink:href="#DejaVuSans-30"/>
      </g>
     </g>
    </g>
    <g id="ytick_2">
     <g id="line2d_25">
      <path d="M 40.603125 180.751304 
L 598.603125 180.751304 
" clip-path="url(#p8c478ed0c3)" style="fill: none; stroke-dasharray: 2.96,1.28; stroke-dashoffset: 0; stroke: #b0b0b0; stroke-opacity: 0.6; stroke-width: 0.8"/>
     </g>
     <g id="line2d_26">
      <g>
       <use xlink:href="#mb62ec74f5e" x="40.603125" y="180.751304" style="stroke: #000000; stroke-width: 0.8"/>
      </g>
     </g>
     <g id="text_14">
      <!-- 20 -->
      <g transform="translate(20.878125 184.550523) scale(0.1 -0.1)">
       <use xlink:href="#DejaVuSans-32"/>
       <use xlink:href="#DejaVuSans-30" x="63.623047"/>
      </g>
     </g>
    </g>
    <g id="ytick_3">
     <g id="line2d_27">
      <path d="M 40.603125 132.542609 
L 598.603125 132.542609 
" clip-path="url(#p8c478ed0c3)" style="fill: none; stroke-dasharray: 2.96,1.28; stroke-dashoffset: 0; stroke: #b0b0b0; stroke-opacity: 0.6; stroke-width: 0.8"/>
     </g>
     <g id="line2d_28">
      <g>
       <use xlink:href="#mb62ec74f5e" x="40.603125" y="132.542609" style="stroke: #000000; stroke-width: 0.8"/>
      </g>
     </g>
     <g id="text_15">
      <!-- 40 -->
      <g transform="translate(20.878125 136.341827) scale(0.1 -0.1)">
       <use xlink:href="#DejaVuSans-34"/>
       <use xlink:href="#DejaVuSans-30" x="63.623047"/>
      </g>
     </g>
    </g>
    <g id="ytick_4">
     <g id="line2d_29">
      <path d="M 40.603125 84.333913 
L 598.603125 84.333913 
" clip-path="url(#p8c478ed0c3)" style="fill: none; stroke-dasharray: 2.96,1.28; stroke-dashoffset: 0; stroke: #b0b0b0; stroke-opacity: 0.6; stroke-width: 0.8"/>
     </g>
     <g id="line2d_30">
      <g>
       <use xlink:href="#mb62ec74f5e" x="40.603125" y="84.333913" style="stroke: #000000; stroke-width: 0.8"/>
      </g>
     </g>
     <g id="text_16">
      <!-- 60 -->
      <g transform="translate(20.878125 88.133132) scale(0.1 -0.1)">
       <use xlink:href="#DejaVuSans-36"/>
       <use xlink:href="#DejaVuSans-30" x="63.623047"/>
      </g>
     </g>
    </g>
    <g id="ytick_5">
     <g id="line2d_31">
      <path d="M 40.603125 36.125217 
L 598.603125 36.125217 
" clip-path="url(#p8c478ed0c3)" style="fill: none; stroke-dasharray: 2.96,1.28; stroke-dashoffset: 0; stroke: #b0b0b0; stroke-opacity: 0.6; stroke-width: 0.8"/>
     </g>
     <g id="line2d_32">
      <g>
       <use xlink:href="#mb62ec74f5e" x="40.603125" y="36.125217" style="stroke: #000000; stroke-width: 0.8"/>
      </g>
     </g>
     <g id="text_17">
      <!-- 80 -->
      <g transform="translate(20.878125 39.924436) scale(0.1 -0.1)">
       <use xlink:href="#DejaVuSans-38"/>
       <use xlink:href="#DejaVuSans-30" x="63.623047"/>
      </g>
     </g>
    </g>
    <g id="text_18">
     <!-- RSSI -->
     <g transform="translate(14.798437 129.377656) rotate(-90) scale(0.1 -0.1)">
      <defs>
       <path id="DejaVuSans-52" d="M 2841 2188 
Q 3044 2119 3236 1894 
Q 3428 1669 3622 1275 
L 4263 0 
L 3584 0 
L 2988 1197 
Q 2756 1666 2539 1819 
Q 2322 1972 1947 1972 
L 1259 1972 
L 1259 0 
L 628 0 
L 628 4666 
L 2053 4666 
Q 2853 4666 3247 4331 
Q 3641 3997 3641 3322 
Q 3641 2881 3436 2590 
Q 3231 2300 2841 2188 
z
M 1259 4147 
L 1259 2491 
L 2053 2491 
Q 2509 2491 2742 2702 
Q 2975 2913 2975 3322 
Q 2975 3731 2742 3939 
Q 2509 4147 2053 4147 
L 1259 4147 
z
" transform="scale(0.015625)"/>
       <path id="DejaVuSans-53" d="M 3425 4513 
L 3425 3897 
Q 3066 4069 2747 4153 
Q 2428 4238 2131 4238 
Q 1616 4238 1336 4038 
Q 1056 3838 1056 3469 
Q 1056 3159 1242 3001 
Q 1428 2844 1947 2747 
L 2328 2669 
Q 3034 2534 3370 2195 
Q 3706 1856 3706 1288 
Q 3706 609 3251 259 
Q 2797 -91 1919 -91 
Q 1588 -91 1214 -16 
Q 841 59 441 206 
L 441 856 
Q 825 641 1194 531 
Q 1563 422 1919 422 
Q 2459 422 2753 634 
Q 3047 847 3047 1241 
Q 3047 1584 2836 1778 
Q 2625 1972 2144 2069 
L 1759 2144 
Q 1053 2284 737 2584 
Q 422 2884 422 3419 
Q 422 4038 858 4394 
Q 1294 4750 2059 4750 
Q 2388 4750 2728 4690 
Q 3069 4631 3425 4513 
z
" transform="scale(0.015625)"/>
       <path id="DejaVuSans-49" d="M 628 4666 
L 1259 4666 
L 1259 0 
L 628 0 
L 628 4666 
z
" transform="scale(0.015625)"/>
      </defs>
      <use xlink:href="#DejaVuSans-52"/>
      <use xlink:href="#DejaVuSans-53" x="69.482422"/>
      <use xlink:href="#DejaVuSans-53" x="132.958984"/>
      <use xlink:href="#DejaVuSans-49" x="196.435547"/>
     </g>
    </g>
   </g>
   <g id="line2d_33">
    <path d="M 40.603125 228.96 
L 598.603125 228.96 
" clip-path="url(#p8c478ed0c3)" style="fill: none; stroke: #000000; stroke-width: 0.8; stroke-linecap: square"/>
   </g>
   <g id="patch_37">
    <path d="M 40.603125 228.96 
L 40.603125 7.2 
" style="fill: none; stroke: #000000; stroke-width: 0.8; stroke-linejoin: miter; stroke-linecap: square"/>
   </g>
   <g id="patch_38">
    <path d="M 598.603125 228.96 
L 598.603125 7.2 
" style="fill: none; stroke: #000000; stroke-width: 0.8; stroke-linejoin: miter; stroke-linecap: square"/>
   </g>
   <g id="patch_39">
    <path d="M 40.603125 228.96 
L 598.603125 228.96 
" style="fill: none; stroke: #000000; stroke-width: 0.8; stroke-linejoin: miter; stroke-linecap: square"/>
   </g>
   <g id="patch_40">
    <path d="M 40.603125 7.2 
L 598.603125 7.2 
" style="fill: none; stroke: #000000; stroke-width: 0.8; stroke-linejoin: miter; stroke-linecap: square"/>
   </g>
   <g id="legend_1">
    <g id="patch_41">
     <path d="M 159.203125 73.9125 
L 258.290625 73.9125 
Q 260.290625 73.9125 260.290625 71.9125 
L 260.290625 14.2 
Q 260.290625 12.2 258.290625 12.2 
L 159.203125 12.2 
Q 157.203125 12.2 157.203125 14.2 
L 157.203125 71.9125 
Q 157.203125 73.9125 159.203125 73.9125 
z
" style="fill: #ffffff; opacity: 0.8; stroke: #cccccc; stroke-linejoin: miter"/>
    </g>
    <g id="text_19">
     <!-- Channel -->
     <g transform="translate(188.219531 23.798437) scale(0.1 -0.1)">
      <use xlink:href="#DejaVuSans-43"/>
      <use xlink:href="#DejaVuSans-68" x="69.824219"/>
      <use xlink:href="#DejaVuSans-61" x="133.203125"/>
      <use xlink:href="#DejaVuSans-6e" x="194.482422"/>
      <use xlink:href="#DejaVuSans-6e" x="257.861328"/>
      <use xlink:href="#DejaVuSans-65" x="321.240234"/>
      <use xlink:href="#DejaVuSans-6c" x="382.763672"/>
     </g>
    </g>
    <g id="line2d_34">
     <path d="M 161.203125 34.976562 
L 171.203125 34.976562 
L 181.203125 34.976562 
" style="fill: none; stroke: #1b9e77; stroke-opacity: 0.5; stroke-width: 3; stroke-linecap: square"/>
    </g>
    <g id="text_20">
     <!-- 1 -->
     <g transform="translate(189.203125 38.476562) scale(0.1 -0.1)">
      <use xlink:href="#DejaVuSans-31"/>
     </g>
    </g>
    <g id="line2d_35">
     <path d="M 161.203125 49.654687 
L 171.203125 49.654687 
L 181.203125 49.654687 
" style="fill: none; stroke: #d95f02; stroke-opacity: 0.5; stroke-width: 3; stroke-linecap: square"/>
    </g>
    <g id="text_21">
     <!-- 6 -->
     <g transform="translate(189.203125 53.154687) scale(0.1 -0.1)">
      <use xlink:href="#DejaVuSans-36"/>
     </g>
    </g>
    <g id="line2d_36">
     <path d="M 161.203125 64.332812 
L 171.203125 64.332812 
L 181.203125 64.332812 
" style="fill: none; stroke: #7570b3; stroke-opacity: 0.5; stroke-width: 3; stroke-linecap: square"/>
    </g>
    <g id="text_22">
     <!-- 7 -->
     <g transform="translate(189.203125 67.832812) scale(0.1 -0.1)">
      <use xlink:href="#DejaVuSans-37"/>
     </g>
    </g>
    <g id="line2d_37">
     <path d="M 215.565625 34.976562 
L 225.565625 34.976562 
L 235.565625 34.976562 
" style="fill: none; stroke: #e7298a; stroke-opacity: 0.5; stroke-width: 3; stroke-linecap: square"/>
    </g>
    <g id="text_23">
     <!-- 9 -->
     <g transform="translate(243.565625 38.476562) scale(0.1 -0.1)">
      <use xlink:href="#DejaVuSans-39"/>
     </g>
    </g>
    <g id="line2d_38">
     <path d="M 215.565625 49.654687 
L 225.565625 49.654687 
L 235.565625 49.654687 
" style="fill: none; stroke: #66a61e; stroke-opacity: 0.5; stroke-width: 3; stroke-linecap: square"/>
    </g>
    <g id="text_24">
     <!-- 11 -->
     <g transform="translate(243.565625 53.154687) scale(0.1 -0.1)">
      <use xlink:href="#DejaVuSans-31"/>
      <use xlink:href="#DejaVuSans-31" x="63.623047"/>
     </g>
    </g>
   </g>
  </g>
 </g>
 <defs>
  <clipPath id="p8c478ed0c3">
   <rect x="40.603125" y="7.2" width="558" height="221.76"/>
  </clipPath>
 </defs>
</svg>
